<svg class="icon" width="128" height="128" viewBox="0 0 1024 1024" xmlns="http://www.w3.org/2000/svg"><path d="M640 106.667H384c-46.933 0-85.333 38.4-85.333 85.333v640c0 46.933 38.4 85.333 85.333 85.333h256c46.933 0 85.333-38.4 85.333-85.333V192c0-46.933-38.4-85.333-85.333-85.333zM384 832V192h256v640H384z" fill="#90CAF9"/><path d="M597.333 810.667a213.333 213.333 0 10426.667 0 213.333 213.333 0 10-426.667 0z" fill="#43A047"/><path d="M768 682.667h85.333v256H768z" fill="#FFF"/><path d="M682.667 768h256v85.333h-256z" fill="#FFF"/></svg>