<svg class="icon" width="128" height="128" viewBox="0 0 1024 1024" xmlns="http://www.w3.org/2000/svg"><path d="M810.667 938.667H256V85.333h554.667c46.933 0 85.333 38.4 85.333 85.334v682.666c0 46.934-38.4 85.334-85.333 85.334z" fill="#673AB7"/><path d="M213.333 85.333H256v853.334h-42.667c-46.933 0-85.333-38.4-85.333-85.334V170.667c0-46.934 38.4-85.334 85.333-85.334z" fill="#311B92"/><path d="M768 516.267c-2.133 102.4-66.133 147.2-113.067 142.933-12.8-2.133-44.8-2.133-61.866-34.133C576 646.4 554.667 659.2 526.933 659.2c-55.466 0-70.4-53.333-72.533-66.133-2.133-14.934-4.267-29.867-2.133-46.934 2.133-21.333 23.466-138.666 121.6-138.666 46.933 0 74.666 23.466 78.933 27.733L640 580.267c0 6.4-4.267 34.133 23.467 34.133 44.8 0 51.2-83.2 51.2-98.133 2.133-25.6 6.4-174.934-149.334-174.934-147.2 0-168.533 157.867-170.666 196.267-10.667 181.333 128 181.333 153.6 181.333 36.266 0 78.933-14.933 83.2-17.066L640 744.533C633.6 748.8 597.333 768 546.133 768c-46.933 0-215.466-8.533-209.066-230.4 6.4-44.8 34.133-238.933 230.4-238.933 196.266 0 200.533 172.8 200.533 217.6zM514.133 544c-2.133 21.333 0 38.4 4.267 49.067 4.267 10.666 12.8 17.066 25.6 17.066 2.133 0 6.4 0 8.533-2.133 4.267-2.133 6.4-2.133 10.667-6.4 4.267-2.133 6.4-6.4 10.667-12.8 4.266-4.267 6.4-12.8 8.533-21.333l10.667-115.2c-4.267-2.134-10.667-2.134-14.934-2.134-10.666 0-19.2 2.134-25.6 6.4-6.4 4.267-12.8 10.667-19.2 17.067-4.266 8.533-8.533 17.067-12.8 27.733s-4.266 27.734-6.4 42.667z" fill="#FFF"/></svg>