<svg class="icon" width="128" height="128" viewBox="0 0 1024 1024" xmlns="http://www.w3.org/2000/svg"><path d="M371.2 704H320v-85.333h85.333l8.534 32C420.267 678.4 398.933 704 371.2 704zm418.133 64s-251.733-149.333-384-149.333V320c123.734 0 384-149.333 384-149.333V768z" fill="#90CAF9"/><path d="M85.333 469.333a106.667 106.667 0 10213.334 0 106.667 106.667 0 10-213.334 0z" fill="#283593"/><path d="M853.333 405.333h-64v128h64c36.267 0 64-27.733 64-64s-27.733-64-64-64zM396.8 878.933c-19.2 12.8-53.333 25.6-98.133 29.867-12.8 2.133-25.6-6.4-29.867-21.333L174.933 595.2s187.734-132.267 187.734 23.467c0 117.333 32 179.2 46.933 202.666 10.667 14.934 10.667 34.134 0 49.067-4.267 4.267-8.533 6.4-12.8 8.533z" fill="#283593"/><path d="M192 618.667h213.333V320H192c-23.467 0-42.667 19.2-42.667 42.667V576c0 23.467 19.2 42.667 42.667 42.667z" fill="#3F51B5"/><path d="M810.667 810.667C787.2 810.667 768 791.467 768 768V170.667C768 147.2 787.2 128 810.667 128s42.666 19.2 42.666 42.667V768c0 23.467-19.2 42.667-42.666 42.667z" fill="#42A5F5"/></svg>