<svg class="icon" width="128" height="128" viewBox="0 0 1024 1024" xmlns="http://www.w3.org/2000/svg"><path d="M821.333 951.467L736 866.133l44.8-44.8 85.333 85.334c12.8 12.8 12.8 32 0 44.8-10.666 10.666-32 10.666-44.8 0zm-618.666 0L288 866.133l-44.8-44.8-85.333 85.334c-12.8 12.8-12.8 32 0 44.8 10.666 10.666 32 10.666 44.8 0z" fill="#37474F"/><path d="M85.333 512a426.667 426.667 0 10853.334 0 426.667 426.667 0 10-853.334 0z" fill="#C62828"/><path d="M170.667 512a341.333 341.333 0 10682.666 0 341.333 341.333 0 10-682.666 0z" fill="#EEE"/><path d="M322.048 714.24l-12.075-12.075 196.075-196.074 12.075 12.053z" fill="#E53935"/><path d="M490.667 234.667h42.666V512h-42.666z"/><path d="M667.413 632.619l-34.666 34.688-138.752-138.752 34.688-34.71z"/><path d="M469.333 512a42.667 42.667 0 1085.334 0 42.667 42.667 0 10-85.334 0z"/><path d="M490.667 512a21.333 21.333 0 1042.666 0 21.333 21.333 0 10-42.666 0z" fill="#C62828"/><path d="M469.333 21.333h85.334v64h-85.334zM947.2 345.6c53.333-74.667 44.8-179.2-21.333-245.333C859.733 34.133 755.2 25.6 680.533 78.933L947.2 345.6zm-870.4 0C23.467 270.933 32 166.4 98.133 100.267 164.267 34.133 268.8 25.6 343.467 78.933L76.8 345.6z" fill="#37474F"/></svg>