<svg class="icon" width="128" height="128" viewBox="0 0 1024 1024" xmlns="http://www.w3.org/2000/svg"><path d="M768 938.667H170.667v-768h426.666L768 341.333z" fill="#42A5F5"/><path d="M853.333 853.333H256v-768h426.667L853.333 256z" fill="#90CAF9"/><path d="M821.333 277.333h-160v-160z" fill="#E1F5FE"/><path d="M499.2 637.867c0-4.267 0-8.534 2.133-12.8s4.267-6.4 6.4-10.667 6.4-4.267 10.667-6.4 8.533-2.133 12.8-2.133 10.667 0 14.933 2.133 8.534 4.267 10.667 6.4 4.267 6.4 6.4 10.667 2.133 8.533 2.133 12.8 0 8.533-2.133 12.8-4.267 6.4-6.4 10.666-6.4 4.267-10.667 6.4-8.533 2.134-14.933 2.134-10.667 0-12.8-2.134-8.533-4.266-10.667-6.4-4.266-6.4-6.4-10.666-2.133-8.534-2.133-12.8zm57.6-66.134h-49.067L499.2 362.667h64l-6.4 209.066z" fill="#1976D2"/></svg>