<svg class="icon" width="128" height="128" viewBox="0 0 1024 1024" xmlns="http://www.w3.org/2000/svg"><path d="M512 64l100.267 76.8L736 123.733l46.933 117.334L900.267 288 883.2 411.733 960 512l-76.8 100.267L900.267 736l-117.334 46.933L736 900.267 612.267 883.2 512 960l-100.267-76.8L288 900.267l-46.933-117.334L123.733 736 140.8 612.267 64 512l76.8-100.267L123.733 288l117.334-46.933L288 123.733 411.733 140.8z" fill="#8BC34A"/><path d="M738.133 311.467L448 601.6 328.533 482.133 268.8 541.867l179.2 179.2L797.867 371.2z" fill="#CCFF90"/></svg>