<svg class="icon" width="128" height="25.18" viewBox="0 0 5205 1024" xmlns="http://www.w3.org/2000/svg"><path d="M5205.333 960h-682.666V64H4992l213.333 213.333z" fill="#90CAF9"/><path d="M5173.333 298.667h-202.666V96z" fill="#E1F5FE"/><path d="M4757.333 640A85.333 85.333 0 104928 640a85.333 85.333 0 10-170.667 0z" fill="#1976D2"/><path d="M4992 448l-106.667-42.667V640H4928V488.533L4992 512z" fill="#1976D2"/><path d="M853.333 960H170.667V64H640l213.333 213.333z" fill="#90CAF9"/><path d="M821.333 298.667H618.667V96z" fill="#E1F5FE"/><path d="M405.333 640A85.333 85.333 0 10576 640a85.333 85.333 0 10-170.667 0z" fill="#1976D2"/><path d="M640 448l-106.667-42.667V640H576V488.533L640 512z" fill="#1976D2"/></svg>