<svg class="icon" width="128" height="128" viewBox="0 0 1024 1024" xmlns="http://www.w3.org/2000/svg"><path d="M832 917.333H192c-46.933 0-85.333-38.4-85.333-85.333V192c0-46.933 38.4-85.333 85.333-85.333h640c46.933 0 85.333 38.4 85.333 85.333v640c0 46.933-38.4 85.333-85.333 85.333z" fill="#3F51B5"/><path d="M716.8 541.867c2.133-8.534 2.133-19.2 2.133-29.867s0-19.2-2.133-29.867l59.733-42.666c6.4-4.267 8.534-12.8 4.267-19.2l-57.6-98.134c-4.267-6.4-10.667-8.533-17.067-6.4l-66.133 32c-14.933-12.8-32-21.333-51.2-29.866l-6.4-72.534c0-6.4-6.4-12.8-12.8-12.8H456.533c-6.4 0-12.8 6.4-12.8 12.8L435.2 320c-19.2 6.4-34.133 17.067-51.2 29.867L317.867 320c-6.4-2.133-14.934 0-17.067 6.4l-57.6 98.133c-4.267 6.4-2.133 14.934 4.267 19.2L307.2 486.4c-2.133 8.533-2.133 19.2-2.133 29.867s0 19.2 2.133 29.866L247.467 588.8c-6.4 4.267-8.534 12.8-4.267 19.2l57.6 98.133c4.267 6.4 10.667 8.534 17.067 6.4L384 682.667c14.933 12.8 32 21.333 51.2 29.866l6.4 72.534c0 6.4 6.4 12.8 12.8 12.8h113.067c6.4 0 12.8-6.4 12.8-12.8l6.4-72.534c19.2-6.4 34.133-17.066 51.2-29.866L704 712.533c6.4 2.134 14.933 0 17.067-6.4l57.6-98.133c4.266-6.4 2.133-14.933-4.267-19.2l-57.6-46.933zm-204.8 76.8c-59.733 0-106.667-46.934-106.667-106.667S452.267 405.333 512 405.333 618.667 452.267 618.667 512 571.733 618.667 512 618.667z" fill="#B3E5FC"/></svg>