<svg class="icon" width="128" height="128" viewBox="0 0 1024 1024" xmlns="http://www.w3.org/2000/svg"><path d="M853.333 725.333h85.334v213.334h-85.334zm-128-106.666h85.334v320h-85.334zm-128 85.333h85.334v234.667h-85.334zm-128-170.667h85.334v405.334h-85.334zm-128 64h85.334v341.334h-85.334zm-128-85.333h85.334v426.667h-85.334zm-128-106.667h85.334v533.334H85.333z" fill="#F44336"/><path d="M725.333 281.6L640 366.933 426.667 153.6 320 260.267 157.867 98.133l-59.734 59.734L320 379.733l106.667-106.666L640 486.4l85.333-85.333L855.467 531.2l59.733-59.733z" fill="#D32F2F"/><path d="M938.667 554.667h-192l192-192z" fill="#D32F2F"/></svg>