<svg class="icon" width="128" height="128" viewBox="0 0 1024 1024" xmlns="http://www.w3.org/2000/svg"><path d="M576 341.333a128 128 0 10256 0 128 128 0 10-256 0zm-384 0a128 128 0 10256 0 128 128 0 10-256 0z" fill="#37474F"/><path d="M996.267 533.333l-326.4 64h-313.6l-326.4-64L121.6 364.8c23.467-40.533 66.133-66.133 113.067-66.133H793.6c46.933 0 89.6 25.6 113.067 66.133l89.6 168.533z" fill="#37474F"/><path d="M597.333 640A213.333 213.333 0 101024 640a213.333 213.333 0 10-426.667 0zM0 640a213.333 213.333 0 10426.667 0A213.333 213.333 0 100 640z" fill="#37474F"/><path d="M405.333 597.333a106.667 106.667 0 10213.334 0 106.667 106.667 0 10-213.334 0z" fill="#37474F"/><path d="M469.333 597.333a42.667 42.667 0 1085.334 0 42.667 42.667 0 10-85.334 0z" fill="#546E7A"/><path d="M661.333 640A149.333 149.333 0 10960 640a149.333 149.333 0 10-298.667 0zM64 640a149.333 149.333 0 10298.667 0A149.333 149.333 0 1064 640z" fill="#A0F"/><path d="M889.6 590.933c-21.333-23.466-49.067-36.266-78.933-36.266s-59.734 12.8-78.934 36.266c-8.533 8.534-6.4 21.334 2.134 29.867 8.533 8.533 21.333 6.4 29.866-2.133 25.6-27.734 70.4-27.734 96 0 4.267 4.266 10.667 6.4 14.934 6.4 4.266 0 10.666-2.134 14.933-6.4 8.533-6.4 8.533-19.2 0-27.734zm-676.267-36.266c-29.866 0-59.733 12.8-78.933 36.266-8.533 8.534-6.4 21.334 2.133 29.867 8.534 8.533 21.334 6.4 29.867-2.133 25.6-27.734 70.4-27.734 96 0 4.267 4.266 10.667 6.4 14.933 6.4 4.267 0 10.667-2.134 14.934-6.4 8.533-8.534 8.533-21.334 2.133-29.867-21.333-21.333-51.2-34.133-81.067-34.133z" fill="#CE93D8"/></svg>