<svg class="icon" width="128" height="128" viewBox="0 0 1024 1024" xmlns="http://www.w3.org/2000/svg"><path d="M512 277.333c-153.6 0-277.333 123.734-277.333 277.334S358.4 832 512 832s277.333-123.733 277.333-277.333S665.6 277.333 512 277.333zm0 469.334c-106.667 0-192-85.334-192-192s85.333-192 192-192 192 85.333 192 192-85.333 192-192 192z" fill="#00A344"/><path d="M181.333 541.867c85.334-46.934 192-23.467 245.334 53.333 2.133 2.133 4.266 2.133 6.4 2.133l25.6-14.933c2.133-2.133 4.266-4.267 2.133-6.4 0-4.267-2.133-8.533-2.133-12.8v-12.8c0-2.133 0-2.133 2.133-4.267 0-2.133 0-2.133 2.133-4.266 0 0 0-2.134 2.134-2.134 0 0 0-2.133 2.133-2.133 0 0 0-2.133 2.133-2.133l2.134-2.134 2.133-2.133 2.133-2.133 2.134-2.134L480 524.8h2.133c4.267-2.133 8.534-4.267 10.667-4.267 2.133 0 4.267-2.133 4.267-6.4V486.4c0-2.133-2.134-4.267-4.267-4.267-96-8.533-170.667-87.466-170.667-183.466 0-87.467 64-162.134 147.2-179.2 2.134 0 4.267-2.134 4.267-6.4V102.4c0-2.133-2.133-4.267-4.267-4.267C349.867 117.333 256 221.867 256 347.733c0 27.734 4.267 55.467 12.8 81.067-25.6 4.267-53.333 14.933-76.8 27.733-110.933 64-155.733 196.267-110.933 309.334C83.2 768 85.333 768 87.467 768l6.4-4.267c2.133-2.133 4.266-4.266 2.133-6.4-25.6-81.066 6.4-172.8 85.333-215.466zM832 456.533c-25.6-14.933-51.2-23.466-76.8-27.733 8.533-25.6 12.8-51.2 12.8-81.067 0-125.866-93.867-230.4-217.6-249.6-2.133 0-4.267 2.134-4.267 4.267v8.533c0 2.134 2.134 4.267 4.267 6.4 85.333 17.067 147.2 91.734 147.2 179.2 0 96-74.667 174.934-170.667 183.467-2.133 0-4.266 2.133-4.266 4.267V512c0 2.133 2.133 4.267 4.266 6.4 4.267 2.133 8.534 2.133 12.8 4.267l2.134 2.133c2.133 0 2.133 2.133 2.133 2.133l6.4 6.4 2.133 2.134 2.134 2.133v4.267s0 2.133 2.133 2.133c0 2.133 0 2.133 2.133 4.267V563.2c0 4.267 0 8.533-2.133 12.8 0 2.133 0 4.267 2.133 6.4l25.6 14.933c2.134 2.134 4.267 0 6.4-2.133 55.467-76.8 162.134-102.4 245.334-53.333 76.8 44.8 110.933 134.4 83.2 215.466 0 2.134 0 4.267 2.133 6.4L928 768c2.133 2.133 4.267 0 6.4-2.133 53.333-115.2 8.533-247.467-102.4-309.334zm-174.933 403.2c-85.334-46.933-117.334-151.466-74.667-236.8 2.133-2.133 0-4.266-2.133-6.4l-25.6-14.933c-2.134-2.133-4.267 0-6.4 0-4.267 2.133-6.4 6.4-10.667 6.4-2.133 0-2.133 2.133-4.267 2.133s-2.133 0-4.266 2.134c-2.134 0-6.4 2.133-8.534 2.133h-25.6c-2.133 0-2.133 0-4.266-2.133 0 0-2.134 0-2.134-2.134H486.4c-4.267-2.133-6.4-4.266-10.667-6.4-2.133-2.133-4.266-2.133-6.4 0l-25.6 14.934c-2.133 2.133-2.133 4.266-2.133 6.4 40.533 85.333 8.533 187.733-74.667 236.8C290.133 906.667 192 889.6 134.4 825.6c-2.133-2.133-4.267-2.133-6.4-2.133l-6.4 4.266c-2.133 2.134-2.133 4.267-2.133 6.4 76.8 96 217.6 123.734 328.533 59.734 25.6-14.934 46.933-32 64-51.2 17.067 19.2 38.4 38.4 64 51.2 110.933 64 249.6 34.133 328.533-59.734 2.134-2.133 0-4.266-2.133-6.4l-6.4-6.4c-2.133-2.133-4.267 0-6.4 2.134-57.6 61.866-155.733 78.933-232.533 36.266z" fill="#00C853"/></svg>