<svg class="icon" width="128" height="128" viewBox="0 0 1024 1024" xmlns="http://www.w3.org/2000/svg"><path d="M682.667 320V149.333H341.333V320L132.267 853.333c-12.8 32 10.666 64 44.8 64h672c34.133 0 55.466-34.133 44.8-64L682.667 320z" fill="#9CCC65"/><path d="M682.667 192H341.333c-23.466 0-42.666-19.2-42.666-42.667s19.2-42.666 42.666-42.666h341.334c23.466 0 42.666 19.2 42.666 42.666S706.133 192 682.667 192z" fill="#8BC34A"/><path d="M597.333 640c0 93.867-85.333 170.667-85.333 170.667s-85.333-76.8-85.333-170.667S512 469.333 512 469.333s85.333 76.8 85.333 170.667z" fill="#2E7D32"/><path d="M663.467 695.467C620.8 780.8 512 810.667 512 810.667S469.333 704 512 620.8s151.467-115.2 151.467-115.2 42.666 104.533 0 189.867z" fill="#388E3C"/><path d="M360.533 695.467C403.2 780.8 512 810.667 512 810.667S554.667 704 512 620.8 360.533 505.6 360.533 505.6s-42.666 104.533 0 189.867z" fill="#43A047"/></svg>