<svg class="icon" width="128" height="128" viewBox="0 0 1024 1024" xmlns="http://www.w3.org/2000/svg"><path d="M768 85.333c0 198.4-128 281.6-273.067 379.734-151.466 100.266-324.266 213.333-324.266 473.6H256c0-215.467 138.667-307.2 285.867-403.2 145.066-96 311.466-206.934 311.466-450.134H768z" fill="#AD1457"/><path d="M810.667 874.667h-576c-12.8 0-21.334-8.534-21.334-21.334S221.867 832 234.667 832h576c12.8 0 21.333 8.533 21.333 21.333s-8.533 21.334-21.333 21.334zM768 789.333H256c-12.8 0-21.333-8.533-21.333-21.333S243.2 746.667 256 746.667h512c12.8 0 21.333 8.533 21.333 21.333S780.8 789.333 768 789.333zM725.333 704H298.667c-12.8 0-21.334-8.533-21.334-21.333s8.534-21.334 21.334-21.334h426.666c12.8 0 21.334 8.534 21.334 21.334S738.133 704 725.333 704zm-106.666-85.333H405.333c-12.8 0-21.333-8.534-21.333-21.334S392.533 576 405.333 576h213.334c12.8 0 21.333 8.533 21.333 21.333s-8.533 21.334-21.333 21.334z" fill="#AD1457"/><path d="M789.333 192h-576c-12.8 0-21.333-8.533-21.333-21.333s8.533-21.334 21.333-21.334h576c12.8 0 21.334 8.534 21.334 21.334S802.133 192 789.333 192zM768 277.333H256c-12.8 0-21.333-8.533-21.333-21.333S243.2 234.667 256 234.667h512c12.8 0 21.333 8.533 21.333 21.333S780.8 277.333 768 277.333zm-42.667 85.334H298.667c-12.8 0-21.334-8.534-21.334-21.334S285.867 320 298.667 320h426.666c12.8 0 21.334 8.533 21.334 21.333s-8.534 21.334-21.334 21.334zM618.667 448H405.333c-12.8 0-21.333-8.533-21.333-21.333s8.533-21.334 21.333-21.334h213.334c12.8 0 21.333 8.534 21.333 21.334S631.467 448 618.667 448z" fill="#E91E63"/><path d="M853.333 938.667H768c0-215.467-138.667-307.2-285.867-403.2-145.066-96-311.466-206.934-311.466-450.134H256c0 198.4 128 281.6 273.067 379.734 151.466 100.266 324.266 213.333 324.266 473.6z" fill="#E91E63"/></svg>