<svg class="icon" width="128" height="128" viewBox="0 0 1024 1024" xmlns="http://www.w3.org/2000/svg"><path d="M373.333 576c-23.466 25.6-57.6 42.667-96 42.667h-64c-70.4 0-128-57.6-128-128s57.6-128 128-128h64c38.4 0 72.534 17.066 96 42.666H473.6c-32-74.666-108.8-128-196.267-128h-64C96 277.333 0 373.333 0 490.667S96 704 213.333 704h64c87.467 0 162.134-53.333 196.267-128H373.333zm437.334-298.667h-64c-87.467 0-162.134 53.334-196.267 128h100.267c23.466-25.6 57.6-42.666 96-42.666h64c70.4 0 128 57.6 128 128s-57.6 128-128 128h-64c-38.4 0-72.534-17.067-96-42.667H550.4c32 74.667 108.8 128 196.267 128h64C928 704 1024 608 1024 490.667s-96-213.334-213.333-213.334z" fill="#1976D2"/><path d="M416 85.333L341.333 128l130.134 172.8 27.733-17.067zm192 0L682.667 128 552.533 300.8 524.8 283.733zm0 853.334L682.667 896 552.533 723.2 524.8 740.267zm-192 0L341.333 896l130.134-172.8 27.733 17.067z" fill="#00BCD4"/></svg>