<svg class="icon" width="128" height="128" viewBox="0 0 1024 1024" xmlns="http://www.w3.org/2000/svg"><path d="M853.333 448h85.334v490.667h-85.334zm-128 149.333h85.334v341.334h-85.334zm-128-106.666h85.334v448h-85.334zm-128 128h85.334v320h-85.334zm-128 64h85.334v256h-85.334zm-128-42.667h85.334v298.667h-85.334zm-128 85.333h85.334v213.334H85.333z" fill="#4CAF50"/><path d="M855.467 194.133L725.333 324.267 640 238.933 426.667 452.267 320 345.6 98.133 567.467l59.734 59.733L320 465.067l106.667 106.666L640 358.4l85.333 85.333L915.2 253.867z" fill="#388E3C"/><path d="M938.667 170.667h-192l192 192z" fill="#388E3C"/></svg>