<svg class="icon" width="128" height="128" viewBox="0 0 1024 1024" xmlns="http://www.w3.org/2000/svg"><path d="M234.667 938.667H192c-12.8 0-21.333-8.534-21.333-21.334v-42.666H256v42.666c0 12.8-8.533 21.334-21.333 21.334zm597.333 0h-42.667c-12.8 0-21.333-8.534-21.333-21.334v-42.666h85.333v42.666c0 12.8-8.533 21.334-21.333 21.334z" fill="#263238"/><path d="M576 149.333H448c-36.267 0-64 27.734-64 64v64h42.667v-64c0-12.8 8.533-21.333 21.333-21.333h128c12.8 0 21.333 8.533 21.333 21.333v64H640v-64c0-36.266-27.733-64-64-64z" fill="#37474F"/><path d="M853.333 917.333H170.667c-46.934 0-85.334-38.4-85.334-85.333V320c0-46.933 38.4-85.333 85.334-85.333h682.666c46.934 0 85.334 38.4 85.334 85.333v512c0 46.933-38.4 85.333-85.334 85.333z" fill="#78909C"/></svg>