<svg class="icon" width="128" height="128" viewBox="0 0 1024 1024" xmlns="http://www.w3.org/2000/svg"><path d="M853.333 149.333H170.667c-46.934 0-85.334 38.4-85.334 85.334v554.666c0 46.934 38.4 85.334 85.334 85.334h106.666v-27.734c-12.8-6.4-21.333-21.333-21.333-36.266C256 787.2 275.2 768 298.667 768s42.666 19.2 42.666 42.667c0 14.933-8.533 29.866-21.333 36.266v27.734h384v-27.734c-12.8-6.4-21.333-21.333-21.333-36.266 0-23.467 19.2-42.667 42.666-42.667S768 787.2 768 810.667c0 14.933-8.533 29.866-21.333 36.266v27.734h106.666c46.934 0 85.334-38.4 85.334-85.334V234.667c0-46.934-38.4-85.334-85.334-85.334z" fill="#673AB7"/><path d="M426.667 384a85.333 85.333 0 10170.666 0 85.333 85.333 0 10-170.666 0zm234.666 213.333S620.8 512 512 512s-149.333 85.333-149.333 85.333V640h298.666v-42.667z" fill="#D1C4E9"/></svg>