<svg class="icon" width="128" height="128" viewBox="0 0 1024 1024" xmlns="http://www.w3.org/2000/svg"><path d="M341.333 320h341.334v384H341.333z" fill="#BF360C"/><path d="M853.333 938.667H170.667c0-234.667 234.666-277.334 234.666-277.334h213.334S853.333 704 853.333 938.667z" fill="#78909C"/><path d="M512 789.333c-46.933 0-106.667-128-106.667-128v-128h213.334v128s-59.734 128-106.667 128z" fill="#FF9800"/><path d="M704 298.667c0-162.134-384-106.667-384 0V448c0 106.667 85.333 192 192 192s192-85.333 192-192V298.667z" fill="#FFB74D"/><path d="M512 85.333c-130.133 0-320 72.534-320 497.067l149.333 100.267V405.333l256-149.333 85.334 106.667v320l149.333-128C832 469.333 817.067 128 597.333 128L576 85.333h-64z" fill="#FF5722"/><path d="M512 810.667c-93.867 0-106.667-149.334-106.667-149.334S458.667 746.667 512 746.667s106.667-85.334 106.667-85.334S605.867 810.667 512 810.667z" fill="#FFB74D"/><path d="M576 448a21.333 21.333 0 1042.667 0A21.333 21.333 0 10576 448zm-170.667 0A21.333 21.333 0 10448 448a21.333 21.333 0 10-42.667 0z" fill="#784719"/></svg>