<svg class="icon" width="128" height="128" viewBox="0 0 1024 1024" xmlns="http://www.w3.org/2000/svg"><path d="M512 64C264.533 64 64 264.533 64 512s200.533 448 448 448c6.4 0 14.933 0 21.333-2.133V66.133C526.933 64 518.4 64 512 64z" fill="#CFD8DC"/><path d="M533.333 66.133V960C620.8 955.733 701.867 928 768 881.067v-736c-66.133-46.934-147.2-76.8-234.667-78.934z" fill="#37474F"/><path d="M437.333 277.333C300.8 283.733 189.867 398.933 192 535.467c0 59.733 21.333 115.2 57.6 160 29.867 36.266 49.067 83.2 49.067 130.133v81.067C362.667 940.8 435.2 960 512 960c6.4 0 14.933 0 21.333-2.133 14.934 0 27.734-2.134 42.667-4.267V753.067c76.8-44.8 128-125.867 128-221.867 0-142.933-119.467-260.267-266.667-253.867z" fill="#FFB74D"/><path d="M618.667 823.467l-85.334-12.8v-192H704L689.067 768c-4.267 34.133-34.134 59.733-70.4 55.467z" fill="#FFB74D"/><path d="M832 618.667l-149.333 42.666-21.334-106.666 21.334-85.334z" fill="#FFB74D"/><path d="M597.333 544a32 32 0 1064 0 32 32 0 10-64 0z" fill="#784719"/><path d="M448 256c-153.6 0-277.333 123.733-277.333 277.333 0 162.134 108.8 192 128 277.334l85.333-64V576l106.667-42.667L512 448c68.267 0 128-83.2 128-130.133C595.2 277.333 520.533 256 448 256z" fill="#FF5722"/><path d="M341.333 576a64 64 0 10128 0 64 64 0 10-128 0z" fill="#FFB74D"/><path d="M960 512c0-151.467-76.8-285.867-192-366.933v733.866C883.2 797.867 960 663.467 960 512z" fill="#CFD8DC"/><path d="M426.667 951.467C454.4 955.733 482.133 960 512 960c6.4 0 14.933 0 21.333-2.133 14.934 0 27.734-2.134 42.667-4.267V814.933L426.667 793.6v157.867z" fill="#FF9800"/></svg>