<svg class="icon" width="128" height="128" viewBox="0 0 1024 1024" xmlns="http://www.w3.org/2000/svg"><path d="M744.533 620.8c-57.6-57.6-151.466-57.6-209.066 0l-85.334 85.333c-36.266 36.267-96 36.267-132.266 0-36.267-36.266-36.267-96 0-132.266l96-96-59.734-59.734-96 96c-70.4 70.4-70.4 183.467 0 251.734 70.4 70.4 183.467 70.4 251.734 0l85.333-85.334c25.6-23.466 64-23.466 89.6 0 23.467 25.6 23.467 64 0 89.6L576 878.933l59.733 59.734 108.8-108.8c57.6-57.6 57.6-151.467 0-209.067z" fill="#37474F"/><path d="M343.467 488.533c-59.734-59.733-59.734-155.733 0-213.333l145.066-145.067c59.734-59.733 155.734-59.733 213.334 0 59.733 59.734 59.733 155.734 0 213.334L556.8 488.533c-59.733 59.734-153.6 59.734-213.333 0z" fill="#0277BD"/><path d="M512 234.667a85.333 85.333 0 10170.667 0 85.333 85.333 0 10-170.667 0z" fill="#B3E5FC"/></svg>