<svg class="icon" width="128" height="128" viewBox="0 0 1024 1024" xmlns="http://www.w3.org/2000/svg"><path d="M853.333 341.333H170.667v512c0 46.934 38.4 85.334 85.333 85.334h512c46.933 0 85.333-38.4 85.333-85.334v-512z" fill="#616161"/><path d="M768 85.333H256c-46.933 0-85.333 38.4-85.333 85.334v192h682.666v-192c0-46.934-38.4-85.334-85.333-85.334z" fill="#424242"/><path d="M768 298.667H256c-12.8 0-21.333-8.534-21.333-21.334V170.667c0-12.8 8.533-21.334 21.333-21.334h512c12.8 0 21.333 8.534 21.333 21.334v106.666c0 12.8-8.533 21.334-21.333 21.334z" fill="#9CCC65"/><path d="M704 213.333h42.667V256H704zm-85.333 0h42.666V256h-42.666z" fill="#33691E"/><path d="M768 490.667h-64c-12.8 0-21.333-8.534-21.333-21.334v-42.666c0-12.8 8.533-21.334 21.333-21.334h64c12.8 0 21.333 8.534 21.333 21.334v42.666c0 12.8-8.533 21.334-21.333 21.334z" fill="#FF5252"/><path d="M320 490.667h-64c-12.8 0-21.333-8.534-21.333-21.334v-42.666c0-12.8 8.533-21.334 21.333-21.334h64c12.8 0 21.333 8.534 21.333 21.334v42.666c0 12.8-8.533 21.334-21.333 21.334zm149.333 0h-64c-12.8 0-21.333-8.534-21.333-21.334v-42.666c0-12.8 8.533-21.334 21.333-21.334h64c12.8 0 21.334 8.534 21.334 21.334v42.666c0 12.8-8.534 21.334-21.334 21.334zm149.334 0h-64c-12.8 0-21.334-8.534-21.334-21.334v-42.666c0-12.8 8.534-21.334 21.334-21.334h64c12.8 0 21.333 8.534 21.333 21.334v42.666c0 12.8-8.533 21.334-21.333 21.334zM320 618.667h-64c-12.8 0-21.333-8.534-21.333-21.334v-42.666c0-12.8 8.533-21.334 21.333-21.334h64c12.8 0 21.333 8.534 21.333 21.334v42.666c0 12.8-8.533 21.334-21.333 21.334zm149.333 0h-64c-12.8 0-21.333-8.534-21.333-21.334v-42.666c0-12.8 8.533-21.334 21.333-21.334h64c12.8 0 21.334 8.534 21.334 21.334v42.666c0 12.8-8.534 21.334-21.334 21.334zm149.334 0h-64c-12.8 0-21.334-8.534-21.334-21.334v-42.666c0-12.8 8.534-21.334 21.334-21.334h64c12.8 0 21.333 8.534 21.333 21.334v42.666c0 12.8-8.533 21.334-21.333 21.334zM320 746.667h-64c-12.8 0-21.333-8.534-21.333-21.334v-42.666c0-12.8 8.533-21.334 21.333-21.334h64c12.8 0 21.333 8.534 21.333 21.334v42.666c0 12.8-8.533 21.334-21.333 21.334zm149.333 0h-64c-12.8 0-21.333-8.534-21.333-21.334v-42.666c0-12.8 8.533-21.334 21.333-21.334h64c12.8 0 21.334 8.534 21.334 21.334v42.666c0 12.8-8.534 21.334-21.334 21.334zm149.334 0h-64c-12.8 0-21.334-8.534-21.334-21.334v-42.666c0-12.8 8.534-21.334 21.334-21.334h64c12.8 0 21.333 8.534 21.333 21.334v42.666c0 12.8-8.533 21.334-21.333 21.334zM320 874.667h-64c-12.8 0-21.333-8.534-21.333-21.334v-42.666c0-12.8 8.533-21.334 21.333-21.334h64c12.8 0 21.333 8.534 21.333 21.334v42.666c0 12.8-8.533 21.334-21.333 21.334zm149.333 0h-64c-12.8 0-21.333-8.534-21.333-21.334v-42.666c0-12.8 8.533-21.334 21.333-21.334h64c12.8 0 21.334 8.534 21.334 21.334v42.666c0 12.8-8.534 21.334-21.334 21.334zm149.334 0h-64c-12.8 0-21.334-8.534-21.334-21.334v-42.666c0-12.8 8.534-21.334 21.334-21.334h64c12.8 0 21.333 8.534 21.333 21.334v42.666c0 12.8-8.533 21.334-21.333 21.334z" fill="#E0E0E0"/><path d="M768 618.667h-64c-12.8 0-21.333-8.534-21.333-21.334v-42.666c0-12.8 8.533-21.334 21.333-21.334h64c12.8 0 21.333 8.534 21.333 21.334v42.666c0 12.8-8.533 21.334-21.333 21.334zm0 128h-64c-12.8 0-21.333-8.534-21.333-21.334v-42.666c0-12.8 8.533-21.334 21.333-21.334h64c12.8 0 21.333 8.534 21.333 21.334v42.666c0 12.8-8.533 21.334-21.333 21.334zm0 128h-64c-12.8 0-21.333-8.534-21.333-21.334v-42.666c0-12.8 8.533-21.334 21.333-21.334h64c12.8 0 21.333 8.534 21.333 21.334v42.666c0 12.8-8.533 21.334-21.333 21.334z" fill="#BDBDBD"/></svg>