<svg class="icon" width="128" height="128" viewBox="0 0 1024 1024" xmlns="http://www.w3.org/2000/svg"><path d="M563.2 723.2s85.333-55.467 102.4-64c17.067-8.533 36.267-12.8 46.933-4.267 17.067 10.667 160 104.534 172.8 113.067 12.8 8.533 17.067 32 2.134 55.467-17.067 23.466-91.734 117.333-123.734 115.2-32 0-179.2 8.533-433.066-243.2C76.8 441.6 85.333 294.4 85.333 262.4s91.734-108.8 115.2-123.733C224 121.6 247.467 128 256 140.8c8.533 12.8 102.4 155.733 113.067 172.8 6.4 10.667 4.266 29.867-4.267 46.933-8.533 17.067-64 102.4-64 102.4s14.933 59.734 106.667 153.6C501.333 708.267 563.2 723.2 563.2 723.2z" fill="#2196F3"/><path d="M746.667 192H533.333v85.333h213.334c23.466 0 42.666 19.2 42.666 42.667v213.333h85.334V320c0-70.4-57.6-128-128-128z" fill="#3F51B5"/><path d="M597.333 341.333L454.4 234.667 597.333 128z" fill="#3F51B5"/></svg>