<svg class="icon" width="128" height="128" viewBox="0 0 1024 1024" xmlns="http://www.w3.org/2000/svg"><path d="M836.267 179.2l-38.4 38.4c-134.4 138.667-115.2 469.333 0 588.8l38.4 38.4a27.04 27.04 0 0038.4 0l76.8-78.933a27.04 27.04 0 000-38.4l-72.534-72.534h-102.4c-27.733-27.733-27.733-258.133 0-285.866h102.4l70.4-72.534a27.04 27.04 0 000-38.4L874.667 179.2a27.04 27.04 0 00-38.4 0zm-597.334 0l-38.4 38.4c-134.4 138.667-115.2 469.333 0 588.8l38.4 38.4a27.04 27.04 0 0038.4 0l76.8-78.933a27.04 27.04 0 000-38.4L281.6 654.933H181.333c-27.733-27.733-27.733-258.133 0-285.866h102.4l70.4-72.534a27.04 27.04 0 000-38.4l-76.8-78.933a27.04 27.04 0 00-38.4 0z" fill="#009688"/><path d="M539.733 396.8l115.2 115.2-115.2 115.2z" fill="#2196F3"/><path d="M341.333 469.333H576v85.334H341.333z" fill="#2196F3"/></svg>