<svg class="icon" width="128" height="128" viewBox="0 0 1024 1024" xmlns="http://www.w3.org/2000/svg"><path d="M426.667 896H213.333C166.4 896 128 857.6 128 810.667V320c0-106.667 85.333-192 192-192s192 85.333 192 192v490.667C512 857.6 473.6 896 426.667 896z" fill="#607D8B"/><path d="M170.667 320a149.333 149.333 0 10298.666 0 149.333 149.333 0 10-298.666 0z" fill="#455A64"/><path d="M209.067 320a110.933 110.933 0 10221.866 0 110.933 110.933 0 10-221.866 0z" fill="#42A5F5"/><path d="M390.4 277.333c-17.067-19.2-42.667-32-70.4-32s-51.2 10.667-70.4 32c-6.4 8.534-6.4 19.2 2.133 25.6 8.534 6.4 19.2 6.4 25.6-2.133 21.334-25.6 61.867-25.6 83.2 0 4.267 4.267 8.534 6.4 14.934 6.4 4.266 0 8.533-2.133 12.8-4.267 8.533-6.4 8.533-19.2 2.133-25.6z" fill="#90CAF9"/><path d="M853.333 661.333h-256c-23.466 0-42.666-19.2-42.666-42.666V405.333c0-23.466 19.2-42.666 42.666-42.666h256c23.467 0 42.667 19.2 42.667 42.666v213.334c0 23.466-19.2 42.666-42.667 42.666z" fill="#607D8B"/><path d="M512 405.333h42.667v213.334H512z" fill="#455A64"/><path d="M597.333 405.333h256v213.334h-256z" fill="#03A9F4"/><path d="M704 473.6l-85.333 123.733h170.666z" fill="#4FC3F7"/><path d="M778.667 458.667a21.333 21.333 0 1042.666 0 21.333 21.333 0 10-42.666 0zM768 516.267l-64 81.066h128z" fill="#B3E5FC"/><path d="M256 746.667a64 64 0 10128 0 64 64 0 10-128 0z" fill="#455A64"/><path d="M277.333 746.667a42.667 42.667 0 1085.334 0 42.667 42.667 0 10-85.334 0z" fill="#F44336"/></svg>