<svg class="icon" width="128" height="128" viewBox="0 0 1024 1024" xmlns="http://www.w3.org/2000/svg"><path d="M576 170.667h213.333V256H576z" fill="#37474F"/><path d="M576 170.667H369.067c-32 0-59.734 17.066-74.667 44.8l-70.4 128L298.667 384l70.4-128H576v153.6h85.333V256c0-46.933-38.4-85.333-85.333-85.333z" fill="#607D8B"/><path d="M640 853.333H128c-46.933 0-85.333-38.4-85.333-85.333V426.667c0-46.934 38.4-85.334 85.333-85.334h512c46.933 0 85.333 38.4 85.333 85.334V768c0 46.933-38.4 85.333-85.333 85.333zm170.667-106.666l106.666 106.666h64V384h-64L810.667 490.667v256z" fill="#607D8B"/><path d="M469.333 746.667H170.667C147.2 746.667 128 727.467 128 704V490.667C128 467.2 147.2 448 170.667 448h298.666C492.8 448 512 467.2 512 490.667V704c0 23.467-19.2 42.667-42.667 42.667z" fill="#546E7A"/><path d="M725.333 490.667h85.334v256h-85.334z" fill="#455A64"/><path d="M874.667 277.333h-85.334C776.533 277.333 768 268.8 768 256v-85.333c0-12.8 8.533-21.334 21.333-21.334h85.334c36.266 0 64 27.734 64 64s-27.734 64-64 64z" fill="#263238"/><path d="M170.667 490.667h298.666V704H170.667z" fill="#03A9F4"/><path d="M288 544l-96 138.667h192z" fill="#4FC3F7"/><path d="M384 544a32 32 0 1064 0 32 32 0 10-64 0zm-10.667 44.8l-74.666 93.867H448z" fill="#B3E5FC"/></svg>