<svg class="icon" width="128" height="128" viewBox="0 0 1024 1024" xmlns="http://www.w3.org/2000/svg"><path d="M722.612 257.779h-419.69l72.434-108.65c8.522-12.783 21.304-19.174 36.217-19.174h204.52c14.912 0 27.694 6.39 36.216 19.173l70.303 108.65z" fill="#512DA8"/><path d="M298.662 234.344H170.838v-38.347c0-14.913 10.652-25.565 25.565-25.565h76.694c14.913 0 25.565 10.652 25.565 25.565v38.347z" fill="#8667C4"/><path d="M852.567 894.77h-681.73c-46.868 0-85.216-38.348-85.216-85.216V298.257c0-46.87 38.348-85.217 85.217-85.217h681.729c46.869 0 85.216 38.348 85.216 85.217v511.297c0 46.868-38.347 85.216-85.216 85.216z" fill="#5E35B1"/><path d="M256.054 553.905a255.648 255.648 0 10511.297 0 255.648 255.648 0 10-511.297 0z" fill="#512DA8"/><path d="M319.966 553.905a191.736 191.736 0 10383.473 0 191.736 191.736 0 10-383.473 0z" fill="#B388FF"/><path d="M829.388 867.138l36.132-36.153 156.648 156.649-36.153 36.132z" fill="#616161"/><path d="M533.007 745.641a213.04 213.04 0 10426.08 0 213.04 213.04 0 10-426.08 0z" fill="#616161"/><path d="M901.673 939.636l36.153-36.132 84.364 84.343L986.015 1024z" fill="#37474F"/><path d="M575.614 745.641a170.432 170.432 0 10340.865 0 170.432 170.432 0 10-340.865 0z" fill="#64B5F6"/><path d="M837.654 668.947c-23.434-27.695-55.39-42.608-89.477-42.608s-68.173 14.913-89.477 42.608c-4.26 6.391-4.26 12.782 2.13 19.174 6.392 4.26 12.783 4.26 19.174-2.13 17.043-21.305 42.608-31.957 70.304-31.957s53.26 12.782 70.303 31.956c2.13 2.13 6.391 4.26 10.652 4.26 2.13 0 6.391 0 8.522-2.13 2.13-4.26 2.13-12.782-2.13-19.173z" fill="#BBDEFB"/><path d="M618.223 489.993c-25.565-29.826-63.913-46.869-102.26-46.869-38.347 0-76.694 17.043-102.26 46.869-10.651 10.652-8.52 27.695 2.131 38.347s27.695 8.522 38.347-2.13c31.956-36.217 91.608-36.217 123.564 0 6.391 6.391 12.782 8.521 21.304 8.521 6.391 0 12.782-2.13 19.174-6.39 8.521-8.522 10.652-27.696 0-38.348z" fill="#C7A7FF"/><path d="M192.142 287.605a42.608 31.956 0 1085.216 0 42.608 31.956 0 10-85.216 0z" fill="#8667C4"/></svg>