<svg class="icon" width="128" height="128" viewBox="0 0 1024 1024" xmlns="http://www.w3.org/2000/svg"><path d="M723.2 258.133H302.933l72.534-108.8c8.533-12.8 21.333-19.2 36.266-19.2h204.8c14.934 0 27.734 6.4 36.267 19.2l70.4 108.8z" fill="#512DA8"/><path d="M298.667 234.667h-128v-38.4c0-14.934 10.666-25.6 25.6-25.6h76.8c14.933 0 25.6 10.666 25.6 25.6v38.4z" fill="#8667C4"/><path d="M853.333 896H170.667c-46.934 0-85.334-38.4-85.334-85.333v-512c0-46.934 38.4-85.334 85.334-85.334h682.666c46.934 0 85.334 38.4 85.334 85.334v512c0 46.933-38.4 85.333-85.334 85.333z" fill="#5E35B1"/><path d="M256 554.667a256 256 0 10512 0 256 256 0 10-512 0z" fill="#512DA8"/><path d="M320 554.667a192 192 0 10384 0 192 192 0 10-384 0z" fill="#B388FF"/><path d="M614.4 490.667c-25.6-29.867-64-46.934-102.4-46.934s-76.8 17.067-102.4 46.934c-10.667 10.666-8.533 27.733 2.133 38.4s27.734 8.533 38.4-2.134c32-36.266 91.734-36.266 123.734 0 6.4 6.4 12.8 8.534 21.333 8.534 6.4 0 12.8-2.134 19.2-6.4 8.533-8.534 10.667-27.734 0-38.4z" fill="#C7A7FF"/><path d="M192 288a42.667 32 0 1085.333 0A42.667 32 0 10192 288z" fill="#8667C4"/><path d="M1024 721.067c0-27.734-23.467-51.2-51.2-51.2H896c-8.533 0-14.933-10.667-8.533-17.067C896 640 898.133 625.067 896 608c-4.267-25.6-23.467-44.8-49.067-51.2C804.267 548.267 768 578.133 768 618.667c0 12.8 4.267 23.466 8.533 34.133 4.267 8.533 0 17.067-10.666 17.067h-76.8c-27.734 0-51.2 23.466-51.2 51.2v68.266c0 8.534 10.666 14.934 17.066 8.534 12.8-8.534 27.734-10.667 44.8-8.534 25.6 4.267 44.8 23.467 51.2 49.067 8.534 40.533-23.466 76.8-61.866 76.8-12.8 0-23.467-4.267-34.134-8.533-8.533-4.267-17.066 0-17.066 10.666V972.8c0 27.733 23.466 51.2 51.2 51.2h281.6c27.733 0 51.2-23.467 51.2-51.2V721.067z" fill="#8BC34A"/></svg>