<svg class="icon" width="128" height="128" viewBox="0 0 1024 1024" xmlns="http://www.w3.org/2000/svg"><path d="M810.667 85.333h42.666V512h-42.666zm-490.667 64h42.667V512H320zM170.667 576h42.666v362.667h-42.666zm426.666-170.667H640v469.334h-42.667z" fill="#546E7A"/><path d="M768 149.333h128c23.467 0 42.667 19.2 42.667 42.667v213.333C938.667 428.8 919.467 448 896 448H768c-23.467 0-42.667-19.2-42.667-42.667V192c0-23.467 19.2-42.667 42.667-42.667zm-490.667 64h128C428.8 213.333 448 232.533 448 256v149.333C448 428.8 428.8 448 405.333 448h-128c-23.466 0-42.666-19.2-42.666-42.667V256c0-23.467 19.2-42.667 42.666-42.667z" fill="#4CAF50"/><path d="M128 640h128c23.467 0 42.667 19.2 42.667 42.667V832c0 23.467-19.2 42.667-42.667 42.667H128c-23.467 0-42.667-19.2-42.667-42.667V682.667C85.333 659.2 104.533 640 128 640zm426.667-170.667h128c23.466 0 42.666 19.2 42.666 42.667v256c0 23.467-19.2 42.667-42.666 42.667h-128C531.2 810.667 512 791.467 512 768V512c0-23.467 19.2-42.667 42.667-42.667z" fill="#F44336"/></svg>