<svg class="icon" width="128" height="128" viewBox="0 0 1024 1024" xmlns="http://www.w3.org/2000/svg"><path d="M0 576h533.333v85.333H0zm0-213.333h533.333V448H0z" fill="#FF9800"/><path d="M981.333 746.667c23.467 0 42.667-19.2 42.667-42.667V320c0-23.467-19.2-42.667-42.667-42.667H576v469.334h405.333zM448 277.333c-23.467 0-42.667 19.2-42.667 42.667v384c0 23.467 19.2 42.667 42.667 42.667h42.667V277.333H448z" fill="#3F51B5"/><path d="M533.333 704C556.8 704 576 723.2 576 746.667V277.333C576 300.8 556.8 320 533.333 320s-42.666-19.2-42.666-42.667v469.334c0-23.467 19.2-42.667 42.666-42.667z" fill="#303F9F"/></svg>