<svg class="icon" width="128" height="128" viewBox="0 0 1024 1024" xmlns="http://www.w3.org/2000/svg"><path d="M256 853.333v-640h426.667c46.933 0 85.333 38.4 85.333 85.334v554.666c0 46.934-38.4 85.334-85.333 85.334H341.333c-46.933 0-85.333-38.4-85.333-85.334z" fill="#546E7A"/><path d="M682.667 277.333H341.333c-12.8 0-21.333 8.534-21.333 21.334v170.666c0 12.8 8.533 21.334 21.333 21.334h341.334c12.8 0 21.333-8.534 21.333-21.334V298.667c0-12.8-8.533-21.334-21.333-21.334z" fill="#4FC3F7"/><path d="M405.333 640h-42.666c-12.8 0-21.334-8.533-21.334-21.333v-21.334c0-12.8 8.534-21.333 21.334-21.333h42.666c12.8 0 21.334 8.533 21.334 21.333v21.334c0 12.8-8.534 21.333-21.334 21.333zm128 0h-42.666c-12.8 0-21.334-8.533-21.334-21.333v-21.334c0-12.8 8.534-21.333 21.334-21.333h42.666c12.8 0 21.334 8.533 21.334 21.333v21.334c0 12.8-8.534 21.333-21.334 21.333zm128 0h-42.666c-12.8 0-21.334-8.533-21.334-21.333v-21.334c0-12.8 8.534-21.333 21.334-21.333h42.666c12.8 0 21.334 8.533 21.334 21.333v21.334c0 12.8-8.534 21.333-21.334 21.333zm-256 106.667h-42.666c-12.8 0-21.334-8.534-21.334-21.334V704c0-12.8 8.534-21.333 21.334-21.333h42.666c12.8 0 21.334 8.533 21.334 21.333v21.333c0 12.8-8.534 21.334-21.334 21.334zm128 0h-42.666c-12.8 0-21.334-8.534-21.334-21.334V704c0-12.8 8.534-21.333 21.334-21.333h42.666c12.8 0 21.334 8.533 21.334 21.333v21.333c0 12.8-8.534 21.334-21.334 21.334zm128 0h-42.666c-12.8 0-21.334-8.534-21.334-21.334V704c0-12.8 8.534-21.333 21.334-21.333h42.666c12.8 0 21.334 8.533 21.334 21.333v21.333c0 12.8-8.534 21.334-21.334 21.334zm-256 106.666h-42.666c-12.8 0-21.334-8.533-21.334-21.333v-21.333c0-12.8 8.534-21.334 21.334-21.334h42.666c12.8 0 21.334 8.534 21.334 21.334V832c0 12.8-8.534 21.333-21.334 21.333zm128 0h-42.666c-12.8 0-21.334-8.533-21.334-21.333v-21.333c0-12.8 8.534-21.334 21.334-21.334h42.666c12.8 0 21.334 8.534 21.334 21.334V832c0 12.8-8.534 21.333-21.334 21.333zm128 0h-42.666c-12.8 0-21.334-8.533-21.334-21.333v-21.333c0-12.8 8.534-21.334 21.334-21.334h42.666c12.8 0 21.334 8.534 21.334 21.334V832c0 12.8-8.534 21.333-21.334 21.333z" fill="#B3E5FC"/><path d="M341.333 213.333H256v-128c0-23.466 19.2-42.666 42.667-42.666s42.666 19.2 42.666 42.666v128z" fill="#37474F"/></svg>