<svg class="icon" width="128" height="128" viewBox="0 0 1024 1024" xmlns="http://www.w3.org/2000/svg"><path d="M128 213.333v597.334C128 857.6 166.4 896 213.333 896h597.334C857.6 896 896 857.6 896 810.667V213.333C896 166.4 857.6 128 810.667 128H213.333C166.4 128 128 166.4 128 213.333z" fill="#4CAF50"/><path d="M140.8 170.667l128 128c-8.533 12.8-12.8 27.733-12.8 42.666 0 46.934 38.4 85.334 85.333 85.334s85.334-38.4 85.334-85.334S388.267 256 341.333 256c-14.933 0-29.866 4.267-42.666 12.8l-128-128c-12.8 6.4-23.467 17.067-29.867 29.867zm200.533 138.666c17.067 0 32 14.934 32 32s-14.933 32-32 32-32-14.933-32-32 14.934-32 32-32zm541.867 544l-128-128c8.533-12.8 12.8-27.733 12.8-42.666 0-46.934-38.4-85.334-85.333-85.334s-85.334 38.4-85.334 85.334S635.733 768 682.667 768c14.933 0 29.866-4.267 42.666-12.8l128 128c12.8-6.4 23.467-17.067 29.867-29.867zM682.667 714.667c-17.067 0-32-14.934-32-32s14.933-32 32-32 32 14.933 32 32-14.934 32-32 32zM341.333 768c46.934 0 85.334-38.4 85.334-85.333 0-14.934-4.267-29.867-12.8-42.667L640 413.867c12.8 8.533 27.733 12.8 42.667 12.8 46.933 0 85.333-38.4 85.333-85.334S729.6 256 682.667 256s-85.334 38.4-85.334 85.333c0 14.934 4.267 29.867 12.8 42.667L384 610.133c-12.8-8.533-27.733-12.8-42.667-12.8-46.933 0-85.333 38.4-85.333 85.334S294.4 768 341.333 768zm341.334-458.667c17.066 0 32 14.934 32 32s-14.934 32-32 32-32-14.933-32-32 14.933-32 32-32zM341.333 650.667c17.067 0 32 14.933 32 32s-14.933 32-32 32-32-14.934-32-32 14.934-32 32-32z" fill="#FFC107"/></svg>