<svg class="icon" width="128" height="128" viewBox="0 0 1024 1024" xmlns="http://www.w3.org/2000/svg"><path d="M925.867 177.067L85.333 320l-6.4-42.667c-8.533-46.933 23.467-89.6 70.4-98.133L823.467 66.133c46.933-8.533 89.6 23.467 98.133 70.4l4.267 40.534zm-72.534 697.6H170.667c-46.934 0-85.334-38.4-85.334-85.334V320h853.334v469.333c0 46.934-38.4 85.334-85.334 85.334z" fill="#3F51B5"/><path d="M401.067 136.533L505.6 249.6l85.333-14.933L484.267 121.6zm-168.534 27.734l104.534 113.066L422.4 262.4 315.733 151.467zM569.6 108.8l104.533 110.933 83.2-12.8L652.8 93.867zM736 81.067L842.667 192l83.2-14.933L821.333 66.133zM128 245.333a32 32 0 1064 0 32 32 0 10-64 0zM853.333 320L768 448h85.333l85.334-128zm-170.666 0l-85.334 128h85.334L768 320zM512 320l-85.333 128H512l85.333-128zm-170.667 0L256 448h85.333l85.334-128zm-170.666 0L85.333 448h85.334L256 320z" fill="#9FA8DA"/></svg>