<svg class="icon" width="128" height="128" viewBox="0 0 1024 1024" xmlns="http://www.w3.org/2000/svg"><path d="M85.333 512a426.667 426.667 0 10853.334 0 426.667 426.667 0 10-853.334 0z" fill="#00ACC1"/><path d="M170.667 512a341.333 341.333 0 10682.666 0 341.333 341.333 0 10-682.666 0z" fill="#EEE"/><path d="M490.667 234.667h42.666V512h-42.666z"/><path d="M667.413 632.619l-34.666 34.688-138.752-138.752 34.688-34.71z"/><path d="M469.333 512a42.667 42.667 0 1085.334 0 42.667 42.667 0 10-85.334 0z"/><path d="M490.667 512a21.333 21.333 0 1042.666 0 21.333 21.333 0 10-42.666 0z" fill="#00ACC1"/></svg>