<svg class="icon" width="128" height="128" viewBox="0 0 1024 1024" xmlns="http://www.w3.org/2000/svg"><path d="M106.667 512c0 403.2 315.733 405.333 362.666 405.333h85.334s-40.534-352-448-405.333z" fill="#2E7D32"/><path d="M469.333 554.667h85.334v362.666h-85.334z" fill="#388E3C"/><path d="M725.333 341.333c0 108.8-110.933 174.934-170.666 174.934S512 450.133 512 341.333s106.667-196.266 106.667-196.266 106.666 87.466 106.666 196.266zm-426.666 0c0 108.8 110.933 174.934 170.666 174.934S512 450.133 512 341.333 405.333 145.067 405.333 145.067s-106.666 87.466-106.666 196.266z" fill="#C62828"/><path d="M512 576c-46.933-34.133-40.533-96 51.2-187.733 93.867-93.867 119.467-238.934 119.467-238.934s106.666 72.534 106.666 192C789.333 467.2 667.733 576 512 576z" fill="#E53935"/><path d="M512 576c46.933-34.133 40.533-96-51.2-187.733-93.867-93.867-119.467-238.934-119.467-238.934s-106.666 72.534-106.666 192C234.667 467.2 356.267 576 512 576z" fill="#E53935"/><path d="M640 341.333C640 471.467 582.4 576 512 576S384 471.467 384 341.333s128-234.666 128-234.666S640 211.2 640 341.333z" fill="#F44336"/><path d="M469.333 917.333h85.334c46.933 0 362.666-2.133 362.666-405.333-407.466 53.333-448 405.333-448 405.333z" fill="#4CAF50"/></svg>