<svg class="icon" width="128" height="128" viewBox="0 0 1024 1024" xmlns="http://www.w3.org/2000/svg"><path d="M128 213.333v597.334C128 857.6 166.4 896 213.333 896h597.334C857.6 896 896 857.6 896 810.667V213.333C896 166.4 857.6 128 810.667 128H213.333C166.4 128 128 166.4 128 213.333z" fill="#FF5722"/><path d="M128 746.667h768v42.666H128zm0-85.334h768V704H128zM130.133 832c4.267 17.067 12.8 32 25.6 42.667H864c12.8-10.667 21.333-25.6 25.6-42.667H130.133zm0-640h761.6c-4.266-17.067-12.8-32-25.6-42.667H157.867C145.067 160 134.4 174.933 130.133 192zM128 490.667h768v42.666H128zM128 576h768v42.667H128zm0-256h768v42.667H128zm0-85.333h768v42.666H128zm0 170.666h768V448H128z" fill="#BF360C"/><path d="M576 128h42.667v106.667H576zm0 149.333h42.667v128H576zm0 341.334h42.667v128H576zM661.333 128H704v21.333h-42.667zm-256 490.667H448v128h-42.667zm256-426.667H704v128h-42.667zm-170.666-64h42.666v21.333h-42.666zm0 405.333h42.666v128h-42.666zm0-341.333h42.666v128h-42.666zm-85.334 256H448v128h-42.667zm85.334-85.333h42.666v128h-42.666zm0 341.333h42.666v128h-42.666zM576 448h42.667v128H576zm256 256h42.667v128H832zm0-341.333h42.667v128H832zm0 170.666h42.667v128H832zm0-403.2v19.2h34.133C857.6 140.8 844.8 134.4 832 130.133zM661.333 362.667H704v128h-42.667zm204.8 512H832v19.2c12.8-4.267 25.6-10.667 34.133-19.2zM746.667 277.333h42.666v128h-42.666zM661.333 704H704v128h-42.667zm85.334-85.333h42.666v128h-42.666zM832 192h42.667v128H832zm-85.333 256h42.666v128h-42.666zm-85.334 85.333H704v128h-42.667zm85.334 256h42.666V896h-42.666zm0-661.333h42.666v106.667h-42.666zm-85.334 746.667H704V896h-42.667zm-170.666 0h42.666V896h-42.666zM576 789.333h42.667V896H576zm-170.667 0H448V896h-42.667zm-256-426.666H192v128h-42.667zm42.667 512h-34.133C168.533 883.2 179.2 889.6 192 893.867v-19.2zm-34.133-725.334H192v-19.2c-12.8 4.267-25.6 10.667-34.133 19.2zM149.333 704H192v128h-42.667zm0-170.667H192v128h-42.667zm0-341.333H192v128h-42.667zm85.334 426.667h42.666v128h-42.666zm85.333-256h42.667v128H320zM320 704h42.667v128H320zm0-512h42.667v128H320zm0-64h42.667v21.333H320zm85.333 0H448v106.667h-42.667zM320 533.333h42.667v128H320zm0 341.334h42.667V896H320zM234.667 448h42.666v128h-42.666zm0-320h42.666v106.667h-42.666zm0 661.333h42.666V896h-42.666zm170.666-512H448v128h-42.667zm-170.666 0h42.666v128h-42.666z" fill="#FF8A65"/></svg>