<svg class="icon" width="128" height="128" viewBox="0 0 1024 1024" xmlns="http://www.w3.org/2000/svg"><path d="M533.333 469.333h277.334l128 128V234.667c0-46.934-38.4-85.334-85.334-85.334h-320c-46.933 0-85.333 38.4-85.333 85.334V384c0 46.933 38.4 85.333 85.333 85.333z" fill="#1565C0"/><path d="M490.667 405.333H213.333l-128 128V170.667c0-46.934 38.4-85.334 85.334-85.334h320c46.933 0 85.333 38.4 85.333 85.334V320c0 46.933-38.4 85.333-85.333 85.333z" fill="#2196F3"/><path d="M149.333 661.333a106.667 106.667 0 10213.334 0 106.667 106.667 0 10-213.334 0zm512 0a106.667 106.667 0 10213.334 0 106.667 106.667 0 10-213.334 0z" fill="#FFA726"/><path d="M426.667 896S379.733 810.667 256 810.667 85.333 896 85.333 896v42.667h341.334V896zm512 0S891.733 810.667 768 810.667 597.333 896 597.333 896v42.667h341.334V896z" fill="#607D8B"/></svg>