<svg class="icon" width="128" height="128" viewBox="0 0 1024 1024" xmlns="http://www.w3.org/2000/svg"><path d="M789.333 384h128v512h-128zM618.667 554.667h128V896h-128zM448 469.333h128V896H448zM277.333 682.667h128V896h-128zm-170.666-85.334h128V896h-128z" fill="#00BCD4"/><path d="M106.667 341.333a64 64 0 10128 0 64 64 0 10-128 0zM277.333 384a64 64 0 10128 0 64 64 0 10-128 0zM448 234.667a64 64 0 10128 0 64 64 0 10-128 0zm170.667 42.666a64 64 0 10128 0 64 64 0 10-128 0zM789.333 192a64 64 0 10128 0 64 64 0 10-128 0z" fill="#3F51B5"/><path d="M834.133 153.6L678.4 232.533l-177.067-44.8-170.666 149.334L181.333 300.8 160 381.867l192 49.066L522.667 281.6l164.266 40.533 185.6-91.733z" fill="#3F51B5"/></svg>