<svg class="icon" width="128" height="128" viewBox="0 0 1024 1024" xmlns="http://www.w3.org/2000/svg"><path d="M853.333 832H170.667c-46.934 0-85.334-38.4-85.334-85.333V277.333c0-46.933 38.4-85.333 85.334-85.333h682.666c46.934 0 85.334 38.4 85.334 85.333v469.334c0 46.933-38.4 85.333-85.334 85.333z" fill="#607D8B"/><path d="M362.667 512a256 256 0 10512 0 256 256 0 10-512 0z" fill="#455A64"/><path d="M426.667 512a192 192 0 10384 0 192 192 0 10-384 0z" fill="#42A5F5"/><path d="M721.067 448c-25.6-29.867-64-46.933-102.4-46.933s-76.8 17.066-102.4 46.933c-10.667 10.667-8.534 27.733 2.133 38.4s27.733 8.533 38.4-2.133c32-36.267 91.733-36.267 123.733 0 6.4 6.4 12.8 8.533 21.334 8.533 6.4 0 12.8-2.133 19.2-6.4 8.533-8.533 10.666-27.733 0-38.4z" fill="#90CAF9"/><path d="M170.667 277.333h128v64h-128z" fill="#ADD8FB"/></svg>