<svg class="icon" width="128" height="128" viewBox="0 0 1024 1024" xmlns="http://www.w3.org/2000/svg"><path d="M149.333 448a106.667 106.667 0 10213.334 0 106.667 106.667 0 10-213.334 0z" fill="#FFA726"/><path d="M42.667 740.267S102.4 605.867 256 605.867s213.333 134.4 213.333 134.4v70.4H42.667v-70.4zm938.666 0S921.6 605.867 768 605.867s-213.333 134.4-213.333 134.4v70.4h426.666v-70.4z" fill="#455A64"/><path d="M384 362.667a128 128 0 10256 0 128 128 0 10-256 0z" fill="#FFB74D"/><path d="M768 727.467s-70.4-160-256-160-256 160-256 160v83.2h512v-83.2z" fill="#607D8B"/><path d="M661.333 448a106.667 106.667 0 10213.334 0 106.667 106.667 0 10-213.334 0zm-512 0a106.667 106.667 0 10213.334 0 106.667 106.667 0 10-213.334 0z" fill="#FFA726"/><path d="M661.333 448a106.667 106.667 0 10213.334 0 106.667 106.667 0 10-213.334 0z" fill="#FFA726"/></svg>