<svg class="icon" width="128" height="128" viewBox="0 0 1024 1024" xmlns="http://www.w3.org/2000/svg"><path d="M810.667 938.667H256V85.333h554.667c46.933 0 85.333 38.4 85.333 85.334v682.666c0 46.934-38.4 85.334-85.333 85.334z" fill="#FF7043"/><path d="M213.333 85.333H256v853.334h-42.667c-46.933 0-85.333-38.4-85.333-85.334V170.667c0-46.934 38.4-85.334 85.333-85.334z" fill="#BF360C"/><path d="M469.333 426.667a85.333 85.333 0 10170.667 0 85.333 85.333 0 10-170.667 0zM704 640s-40.533-85.333-149.333-85.333S405.333 640 405.333 640v42.667H704V640z" fill="#AB300B"/></svg>