<svg class="icon" width="128" height="128" viewBox="0 0 1024 1024" xmlns="http://www.w3.org/2000/svg"><path d="M64 512a448 448 0 10896 0 448 448 0 10-896 0z" fill="#9C27B0"/><path d="M714.667 599.467c-12.8 136.533-119.467 172.8-198.4 172.8-66.134 0-204.8-34.134-204.8-238.934v-32c0-185.6 117.333-238.933 206.933-238.933 181.333 0 196.267 149.333 198.4 174.933H614.4c-6.4-76.8-46.933-91.733-96-91.733-34.133 0-102.4 10.667-102.4 153.6v34.133c-2.133 160 81.067 153.6 100.267 153.6 91.733 0 91.733-61.866 98.133-87.466h100.267z" fill="#E1BEE7"/></svg>