<svg class="icon" width="128" height="128" viewBox="0 0 1024 1024" xmlns="http://www.w3.org/2000/svg"><path d="M64 512a448 448 0 10896 0 448 448 0 10-896 0z" fill="#9C27B0"/><path d="M411.733 599.467c6.4 27.733 4.267 87.466 98.134 87.466 19.2 0 102.4 4.267 100.266-153.6V499.2c0-142.933-68.266-153.6-102.4-153.6-49.066 0-89.6 12.8-96 91.733h-102.4c2.134-25.6 17.067-174.933 198.4-174.933 89.6 0 206.934 53.333 206.934 238.933v32c0 204.8-138.667 238.934-204.8 238.934-78.934 0-185.6-34.134-198.4-172.8h100.266z" fill="#E1BEE7"/></svg>