<svg class="icon" width="128" height="128" viewBox="0 0 1024 1024" xmlns="http://www.w3.org/2000/svg"><path d="M64 384a320 320 0 10640 0 320 320 0 10-640 0z" fill="#3F51B5"/><path d="M433.067 341.333V377.6H352v29.867h81.067v36.266H352c0 12.8 2.133 25.6 6.4 34.134 4.267 8.533 8.533 17.066 14.933 21.333 6.4 6.4 14.934 8.533 23.467 12.8 8.533 2.133 19.2 4.267 29.867 4.267 8.533 0 14.933 0 23.466-2.134 8.534-2.133 14.934-2.133 21.334-6.4l8.533 57.6c-8.533 2.134-19.2 4.267-29.867 4.267-10.666 2.133-21.333 2.133-32 2.133-19.2 0-38.4-2.133-55.466-8.533-17.067-4.267-32-12.8-42.667-23.467-12.8-10.666-21.333-23.466-29.867-40.533-6.4-14.933-10.666-34.133-10.666-55.467h-40.534v-36.266h40.534V377.6h-40.534v-36.267h40.534c2.133-21.333 6.4-38.4 12.8-55.466 8.533-14.934 17.066-29.867 29.866-40.534 12.8-10.666 27.734-19.2 44.8-23.466 17.067-6.4 36.267-8.534 55.467-8.534 8.533 0 19.2 0 27.733 2.134s19.2 2.133 27.734 6.4l-8.534 57.6c-6.4-2.134-12.8-4.267-21.333-6.4-8.533-2.134-14.933-2.134-23.467-2.134-10.666 0-21.333 2.134-29.866 4.267-8.534 2.133-17.067 6.4-21.334 12.8-6.4 6.4-10.666 12.8-14.933 21.333s-6.4 19.2-6.4 32h81.067z" fill="#FFF59D"/><path d="M320 640a320 320 0 10640 0 320 320 0 10-640 0z" fill="#4CAF50"/><path d="M605.867 576c2.133 4.267 4.266 8.533 8.533 12.8 4.267 4.267 8.533 8.533 14.933 10.667 6.4 4.266 14.934 6.4 23.467 10.666 14.933 6.4 29.867 12.8 42.667 19.2 12.8 6.4 23.466 14.934 32 23.467 8.533 8.533 17.066 19.2 21.333 29.867 4.267 10.666 8.533 25.6 8.533 40.533s-2.133 27.733-6.4 38.4c-4.266 10.667-10.666 21.333-19.2 29.867s-19.2 14.933-29.866 19.2c-12.8 4.266-25.6 8.533-38.4 10.666v46.934h-38.4v-46.934c-12.8-2.133-25.6-4.266-38.4-8.533s-23.467-10.667-32-21.333C544 782.933 537.6 770.133 531.2 757.333c-6.4-12.8-8.533-29.866-8.533-49.066h70.4c0 10.666 2.133 21.333 4.266 27.733 2.134 8.533 6.4 12.8 12.8 19.2 4.267 4.267 10.667 8.533 17.067 10.667C633.6 768 640 768 646.4 768c8.533 0 14.933 0 19.2-2.133 6.4-2.134 10.667-4.267 14.933-8.534 4.267-4.266 6.4-8.533 8.534-12.8 2.133-4.266 2.133-10.666 2.133-17.066 0-6.4 0-12.8-2.133-17.067-2.134-4.267-4.267-10.667-8.534-14.933S672 686.933 665.6 684.8c-6.4-4.267-14.933-6.4-23.467-10.667-14.933-6.4-29.866-12.8-42.666-19.2-12.8-6.4-23.467-14.933-32-23.466-8.534-8.534-17.067-19.2-21.334-29.867-4.266-10.667-8.533-25.6-8.533-40.533 0-12.8 2.133-25.6 6.4-36.267 4.267-10.667 10.667-21.333 19.2-29.867 8.533-8.533 19.2-14.933 29.867-21.333 10.666-4.267 25.6-8.533 38.4-10.667v-51.2h38.4v51.2c12.8 2.134 25.6 6.4 38.4 12.8 10.666 6.4 21.333 12.8 27.733 23.467 8.533 8.533 14.933 21.333 19.2 34.133 4.267 12.8 6.4 27.734 6.4 42.667h-70.4c0-19.2-4.267-34.133-12.8-42.667-8.533-8.533-19.2-14.933-32-14.933-6.4 0-12.8 2.133-19.2 4.267-4.267 2.133-8.533 4.266-12.8 8.533-4.267 4.267-6.4 8.533-6.4 12.8-2.133 4.267-2.133 10.667-2.133 17.067-2.134 4.266 0 10.666 0 14.933z" fill="#FFF"/></svg>