<svg class="icon" width="128" height="128" viewBox="0 0 1024 1024" xmlns="http://www.w3.org/2000/svg"><path d="M618.667 917.333V819.2l55.466 10.667c61.867 12.8 119.467-32 123.734-93.867l12.8-138.667 61.866-25.6C893.867 563.2 902.4 537.6 889.6 516.267L810.667 384c-12.8-162.133-104.534-320-341.334-320-243.2 0-362.666 179.2-362.666 362.667 0 78.933 27.733 147.2 70.4 204.8 38.4 53.333 57.6 117.333 57.6 181.333v102.4h384z" fill="#FFB74D"/><path d="M618.667 917.333V819.2l-149.334-29.867v128z" fill="#FF9800"/><path d="M682.667 458.667a32 32 0 1064 0 32 32 0 10-64 0z" fill="#784719"/><path d="M456.533 64C262.4 64 106.667 219.733 106.667 413.867c0 236.8 128 243.2 128 396.8l55.466-19.2c44.8-14.934 83.2-49.067 100.267-93.867l59.733-145.067L576 490.667v-128S725.333 281.6 725.333 142.933C661.333 89.6 548.267 64 456.533 64z" fill="#FF5722"/><path d="M448 44.8c-12.8 0-21.333 8.533-21.333 21.333v296.534c0 12.8 8.533 21.333 21.333 21.333s21.333-8.533 21.333-21.333V66.133c0-12.8-8.533-21.333-21.333-21.333zm339.2 635.733c-168.533 0-219.733-104.533-221.867-108.8-4.266-10.666-17.066-14.933-27.733-10.666-10.667 4.266-14.933 17.066-10.667 27.733 2.134 6.4 64 134.4 260.267 134.4 12.8 0 21.333-8.533 21.333-21.333s-10.666-21.334-21.333-21.334z" fill="#546E7A"/><path d="M746.667 704A42.667 42.667 0 10832 704a42.667 42.667 0 10-85.333 0zm-448-213.333a149.333 149.333 0 10298.666 0 149.333 149.333 0 10-298.666 0z" fill="#37474F"/><path d="M362.667 490.667a85.333 85.333 0 10170.666 0 85.333 85.333 0 10-170.666 0z" fill="#546E7A"/></svg>