<svg class="icon" width="128" height="128" viewBox="0 0 1024 1024" xmlns="http://www.w3.org/2000/svg"><path d="M512 597.333h384V896H512zm-384-384h256V896H128z" fill="#81D4FA"/><path d="M341.333 170.667h-42.666c0 23.466-19.2 42.666-42.667 42.666s-42.667-19.2-42.667-42.666h-42.666c0 23.466-19.2 42.666-42.667 42.666V256c25.6 0 49.067-10.667 64-29.867C206.933 243.2 230.4 256 256 256s49.067-10.667 64-29.867C334.933 243.2 358.4 256 384 256v-42.667c-23.467 0-42.667-19.2-42.667-42.666zm0 128h-42.666c0 23.466-19.2 42.666-42.667 42.666s-42.667-19.2-42.667-42.666h-42.666c0 23.466-19.2 42.666-42.667 42.666V384c25.6 0 49.067-10.667 64-29.867C206.933 371.2 230.4 384 256 384s49.067-10.667 64-29.867C334.933 371.2 358.4 384 384 384v-42.667c-23.467 0-42.667-19.2-42.667-42.666zm0 128h-42.666c0 23.466-19.2 42.666-42.667 42.666s-42.667-19.2-42.667-42.666h-42.666c0 23.466-19.2 42.666-42.667 42.666V512c25.6 0 49.067-10.667 64-29.867C206.933 499.2 230.4 512 256 512s49.067-10.667 64-29.867C334.933 499.2 358.4 512 384 512v-42.667c-23.467 0-42.667-19.2-42.667-42.666zm0 128h-42.666c0 23.466-19.2 42.666-42.667 42.666s-42.667-19.2-42.667-42.666h-42.666c0 23.466-19.2 42.666-42.667 42.666V640c25.6 0 49.067-10.667 64-29.867C206.933 627.2 230.4 640 256 640s49.067-10.667 64-29.867C334.933 627.2 358.4 640 384 640v-42.667c-23.467 0-42.667-19.2-42.667-42.666zm0 128h-42.666c0 23.466-19.2 42.666-42.667 42.666s-42.667-19.2-42.667-42.666h-42.666c0 23.466-19.2 42.666-42.667 42.666V768c25.6 0 49.067-10.667 64-29.867C206.933 755.2 230.4 768 256 768s49.067-10.667 64-29.867C334.933 755.2 358.4 768 384 768v-42.667c-23.467 0-42.667-19.2-42.667-42.666zm0 128h-42.666c0 23.466-19.2 42.666-42.667 42.666s-42.667-19.2-42.667-42.666h-42.666c0 23.466-19.2 42.666-42.667 42.666V896c25.6 0 49.067-10.667 64-29.867C206.933 883.2 230.4 896 256 896s49.067-10.667 64-29.867C334.933 883.2 358.4 896 384 896v-42.667c-23.467 0-42.667-19.2-42.667-42.666zm512-128h-42.666c0 23.466-19.2 42.666-42.667 42.666s-42.667-19.2-42.667-42.666h-42.666c0 23.466-19.2 42.666-42.667 42.666s-42.667-19.2-42.667-42.666h-42.666c0 23.466-19.2 42.666-42.667 42.666V768c25.6 0 49.067-10.667 64-29.867C590.933 755.2 614.4 768 640 768s49.067-10.667 64-29.867C718.933 755.2 742.4 768 768 768s49.067-10.667 64-29.867C846.933 755.2 870.4 768 896 768v-42.667c-23.467 0-42.667-19.2-42.667-42.666zm0-128h-42.666c0 23.466-19.2 42.666-42.667 42.666s-42.667-19.2-42.667-42.666h-42.666c0 23.466-19.2 42.666-42.667 42.666s-42.667-19.2-42.667-42.666h-42.666c0 23.466-19.2 42.666-42.667 42.666V640c25.6 0 49.067-10.667 64-29.867C590.933 627.2 614.4 640 640 640s49.067-10.667 64-29.867C718.933 627.2 742.4 640 768 640s49.067-10.667 64-29.867C846.933 627.2 870.4 640 896 640v-42.667c-23.467 0-42.667-19.2-42.667-42.666zm0 256h-42.666c0 23.466-19.2 42.666-42.667 42.666s-42.667-19.2-42.667-42.666h-42.666c0 23.466-19.2 42.666-42.667 42.666V896c25.6 0 49.067-10.667 64-29.867C718.933 883.2 742.4 896 768 896s49.067-10.667 64-29.867C846.933 883.2 870.4 896 896 896v-42.667c-23.467 0-42.667-19.2-42.667-42.666z" fill="#1976D2"/><path d="M535.467 196.267L672 896H384V128h68.267c40.533 0 76.8 29.867 83.2 68.267z" fill="#455A64"/></svg>