<svg class="icon" width="128" height="128" viewBox="0 0 1024 1024" xmlns="http://www.w3.org/2000/svg"><path d="M810.667 149.333H213.333c-23.466 0-42.666 19.2-42.666 42.667v128c0 23.467 19.2 42.667 42.666 42.667h597.334c23.466 0 42.666-19.2 42.666-42.667V192c0-23.467-19.2-42.667-42.666-42.667zm0 256H213.333c-23.466 0-42.666 19.2-42.666 42.667v128c0 23.467 19.2 42.667 42.666 42.667h597.334c23.466 0 42.666-19.2 42.666-42.667V448c0-23.467-19.2-42.667-42.666-42.667zm0 256H213.333c-23.466 0-42.666 19.2-42.666 42.667v128c0 23.467 19.2 42.667 42.666 42.667h597.334c23.466 0 42.666-19.2 42.666-42.667V704c0-23.467-19.2-42.667-42.666-42.667z" fill="#D1C4E9"/><path d="M746.667 597.333h128V1024h-128z" fill="#F44336"/><path d="M597.333 746.667H1024v128H597.333z" fill="#F44336"/></svg>