<svg class="icon" width="128" height="128" viewBox="0 0 1024 1024" xmlns="http://www.w3.org/2000/svg"><path d="M810.667 149.333H213.333c-23.466 0-42.666 19.2-42.666 42.667v128c0 23.467 19.2 42.667 42.666 42.667h597.334c23.466 0 42.666-19.2 42.666-42.667V192c0-23.467-19.2-42.667-42.666-42.667zm0 256H213.333c-23.466 0-42.666 19.2-42.666 42.667v128c0 23.467 19.2 42.667 42.666 42.667h597.334c23.466 0 42.666-19.2 42.666-42.667V448c0-23.467-19.2-42.667-42.666-42.667zm0 256H213.333c-23.466 0-42.666 19.2-42.666 42.667v128c0 23.467 19.2 42.667 42.666 42.667h597.334c23.466 0 42.666-19.2 42.666-42.667V704c0-23.467-19.2-42.667-42.666-42.667z" fill="#D1C4E9"/><path d="M964.267 812.8c2.133-8.533 2.133-17.067 2.133-23.467s0-17.066-2.133-23.466l49.066-36.267c4.267-4.267 6.4-10.667 4.267-14.933l-49.067-83.2c-2.133-4.267-8.533-6.4-14.933-4.267l-55.467 25.6c-12.8-10.667-27.733-19.2-42.666-25.6l-6.4-61.867c0-6.4-6.4-10.666-10.667-10.666h-96c-6.4 0-10.667 4.266-10.667 10.666l-6.4 61.867c-14.933 6.4-29.866 14.933-42.666 25.6L627.2 627.2c-6.4-2.133-12.8 0-14.933 4.267l-49.067 83.2c-2.133 4.266-2.133 12.8 4.267 14.933l49.066 36.267c-2.133 8.533-2.133 17.066-2.133 23.466s0 17.067 2.133 23.467l-49.066 36.267c-4.267 4.266-6.4 10.666-4.267 14.933l49.067 83.2c2.133 4.267 8.533 6.4 14.933 4.267l55.467-25.6c12.8 10.666 27.733 19.2 42.666 25.6l6.4 61.866c0 6.4 6.4 10.667 10.667 10.667h96c6.4 0 10.667-4.267 10.667-10.667l6.4-61.866c14.933-6.4 29.866-14.934 42.666-25.6l55.467 25.6c6.4 2.133 12.8 0 14.933-4.267L1017.6 864c2.133-4.267 2.133-12.8-4.267-14.933L964.267 812.8zm-174.934 87.467c-61.866 0-110.933-49.067-110.933-110.934 0-61.866 49.067-110.933 110.933-110.933 61.867 0 110.934 49.067 110.934 110.933 0 61.867-49.067 110.934-110.934 110.934z" fill="#607D8B"/><path d="M789.333 661.333c-70.4 0-128 57.6-128 128s57.6 128 128 128 128-57.6 128-128-57.6-128-128-128zm0 192c-36.266 0-64-27.733-64-64s27.734-64 64-64 64 27.734 64 64-27.733 64-64 64z" fill="#455A64"/></svg>