<svg class="icon" width="128" height="128" viewBox="0 0 1024 1024" xmlns="http://www.w3.org/2000/svg"><path d="M832 341.333v149.334H704V341.333h-42.667v149.334h-128V341.333h-42.666v149.334H341.333v42.666h149.334v128H341.333V704h149.334v128H341.333v42.667h533.334V341.333H832zm0 192v128H704v-128h128zm-298.667 0h128v128h-128v-128zm0 170.667h128v128h-128V704zM704 832V704h128v128H704z" fill="#90CAF9"/><path d="M853.333 170.667H170.667v682.666h170.666v-512h512z" fill="#00BCD4"/><path d="M149.333 149.333v725.334h213.334v-512h512V149.333H149.333zM192 490.667v-128h128v128H192zm128 42.666v128H192v-128h128zM362.667 192h128v128h-128V192zm170.666 0h128v128h-128V192zM320 192v128H192V192h128zM192 832V704h128v128H192zm640-512H704V192h128v128z" fill="#0097A7"/></svg>