<svg class="icon" width="128" height="128" viewBox="0 0 1024 1024" xmlns="http://www.w3.org/2000/svg"><path d="M810.667 149.333H213.333c-23.466 0-42.666 19.2-42.666 42.667v128c0 23.467 19.2 42.667 42.666 42.667h597.334c23.466 0 42.666-19.2 42.666-42.667V192c0-23.467-19.2-42.667-42.666-42.667zm0 256H213.333c-23.466 0-42.666 19.2-42.666 42.667v128c0 23.467 19.2 42.667 42.666 42.667H748.8c27.733-27.734 104.533-19.2 104.533-42.667V448c0-23.467-19.2-42.667-42.666-42.667zm-76.8 256H213.333c-23.466 0-42.666 19.2-42.666 42.667v128c0 23.467 19.2 42.667 42.666 42.667h597.334c23.466 0 42.666-19.2 42.666-42.667v-51.2c0-66.133-53.333-119.467-119.466-119.467z" fill="#D1C4E9"/><path d="M917.333 981.333L874.667 1024H832l-42.667-42.667V755.2h128v98.133L896 874.667 917.333 896v21.333L896 938.667 917.333 960z" fill="#FFA000"/><path d="M1013.333 608c-6.4-19.2-21.333-34.133-42.666-38.4-27.734-6.4-70.4-14.933-117.334-14.933s-89.6 8.533-117.333 12.8c-21.333 4.266-36.267 19.2-42.667 38.4-4.266 21.333-10.666 46.933-10.666 76.8s6.4 55.466 10.666 74.666c6.4 19.2 21.334 34.134 42.667 38.4 27.733 6.4 68.267 12.8 117.333 12.8s89.6-8.533 117.334-12.8c21.333-4.266 36.266-19.2 42.666-38.4 6.4-19.2 10.667-44.8 10.667-74.666s-6.4-55.467-10.667-74.667zM915.2 661.333H793.6c-12.8 0-23.467-10.666-23.467-23.466V608c0-6.4 38.4-12.8 85.334-12.8S940.8 601.6 940.8 608v29.867c-2.133 12.8-12.8 23.466-25.6 23.466z" fill="#FFA000"/><path d="M832 791.467h21.333V1024H832z" fill="#D68600"/></svg>