<svg class="icon" width="128" height="128" viewBox="0 0 1024 1024" xmlns="http://www.w3.org/2000/svg"><path d="M810.667 149.333H213.333c-23.466 0-42.666 19.2-42.666 42.667v128c0 23.467 19.2 42.667 42.666 42.667h597.334c23.466 0 42.666-19.2 42.666-42.667V192c0-23.467-19.2-42.667-42.666-42.667zm0 256H213.333c-23.466 0-42.666 19.2-42.666 42.667v128c0 23.467 19.2 42.667 42.666 42.667H748.8c27.733-27.734 104.533-19.2 104.533-42.667V448c0-23.467-19.2-42.667-42.666-42.667zm-76.8 256H213.333c-23.466 0-42.666 19.2-42.666 42.667v128c0 23.467 19.2 42.667 42.666 42.667h597.334c23.466 0 42.666-19.2 42.666-42.667v-51.2c0-66.133-53.333-119.467-119.466-119.467z" fill="#D1C4E9"/><path d="M981.333 533.333H682.667C659.2 533.333 640 552.533 640 576v251.733c0 27.734 12.8 51.2 34.133 68.267L832 1013.333 989.867 896C1011.2 878.933 1024 855.467 1024 827.733V576c0-23.467-19.2-42.667-42.667-42.667z" fill="#009688"/></svg>