<svg class="icon" width="128" height="128" viewBox="0 0 1024 1024" xmlns="http://www.w3.org/2000/svg"><path d="M810.667 149.333H213.333c-23.466 0-42.666 19.2-42.666 42.667v128c0 23.467 19.2 42.667 42.666 42.667h597.334c23.466 0 42.666-19.2 42.666-42.667V192c0-23.467-19.2-42.667-42.666-42.667zm0 256H213.333c-23.466 0-42.666 19.2-42.666 42.667v128c0 23.467 19.2 42.667 42.666 42.667h597.334c23.466 0 42.666-19.2 42.666-42.667V448c0-23.467-19.2-42.667-42.666-42.667zm0 256H213.333c-23.466 0-42.666 19.2-42.666 42.667v128c0 23.467 19.2 42.667 42.666 42.667h597.334c23.466 0 42.666-19.2 42.666-42.667V704c0-23.467-19.2-42.667-42.666-42.667z" fill="#D1C4E9"/><path d="M661.333 640l149.334 119.467V520.533z" fill="#2196F3"/><path d="M810.667 597.333c-6.4 0-14.934 0-21.334 2.134V684.8c6.4-2.133 14.934-2.133 21.334-2.133 70.4 0 128 57.6 128 128s-57.6 128-128 128-128-57.6-128-128c0-6.4 0-12.8 2.133-19.2l-72.533-57.6c-8.534 23.466-14.934 49.066-14.934 76.8 0 117.333 96 213.333 213.334 213.333S1024 928 1024 810.667s-96-213.334-213.333-213.334z" fill="#2196F3"/></svg>