<svg class="icon" width="128" height="128" viewBox="0 0 1024 1024" xmlns="http://www.w3.org/2000/svg"><path d="M213.333 256c-59.733 0-106.666-46.933-106.666-106.667S153.6 42.667 213.333 42.667 320 89.6 320 149.333 273.067 256 213.333 256z" fill="#FFB74D"/><path d="M42.667 469.333V640l64 42.667L128 981.333h170.667L320 682.667 384 640V469.333c0-93.866-76.8-170.666-170.667-170.666s-170.666 76.8-170.666 170.666z" fill="#607D8B"/><path d="M477.867 861.867c-12.8 53.333-21.334 76.8-51.2 76.8-12.8 0-25.6-10.667-40.534-23.467-21.333-17.067-46.933-40.533-87.466-40.533v42.666c23.466 0 40.533 14.934 59.733 29.867 19.2 14.933 40.533 34.133 68.267 34.133 66.133 0 81.066-61.866 93.866-110.933 12.8-55.467 21.334-81.067 55.467-81.067v-42.666c-70.4 0-87.467 66.133-98.133 115.2z" fill="#263238"/><path d="M307.2 853.333h-93.867v85.334H300.8z" fill="#263238"/><path d="M554.667 768a213.333 213.333 0 10426.666 0 213.333 213.333 0 10-426.666 0z" fill="#4CAF50"/><path d="M746.667 725.333c2.133 4.267 2.133 6.4 6.4 8.534 2.133 2.133 6.4 4.266 10.666 8.533 4.267 2.133 10.667 4.267 17.067 6.4 10.667 4.267 19.2 8.533 27.733 12.8 8.534 4.267 14.934 8.533 21.334 14.933s10.666 12.8 14.933 19.2c4.267 8.534 4.267 17.067 4.267 27.734 0 8.533-2.134 17.066-4.267 25.6-2.133 8.533-6.4 14.933-12.8 19.2-6.4 6.4-12.8 10.666-19.2 12.8-8.533 4.266-17.067 6.4-25.6 6.4v32h-25.6v-32c-8.533 0-17.067-2.134-25.6-6.4-8.533-4.267-14.933-8.534-21.333-12.8-6.4-6.4-10.667-12.8-14.934-23.467-4.266-8.533-6.4-19.2-6.4-32h46.934c0 8.533 0 14.933 2.133 19.2 2.133 4.267 4.267 8.533 8.533 12.8 4.267 2.133 6.4 4.267 10.667 6.4 4.267 2.133 8.533 2.133 12.8 2.133 4.267 0 8.533 0 12.8-2.133 4.267-2.133 6.4-4.267 8.533-6.4 2.134-2.133 4.267-6.4 6.4-8.533 2.134-4.267 2.134-6.4 2.134-10.667s0-8.533-2.134-12.8c-2.133-4.267-2.133-6.4-6.4-8.533-2.133-2.134-6.4-6.4-10.666-8.534-4.267-2.133-8.534-4.266-14.934-6.4-10.666-4.266-19.2-8.533-27.733-12.8-8.533-4.266-14.933-8.533-21.333-14.933-6.4-6.4-10.667-12.8-14.934-19.2-4.266-8.533-4.266-17.067-4.266-27.733 0-8.534 2.133-17.067 4.266-25.6 2.134-6.4 6.4-14.934 12.8-19.2 6.4-6.4 12.8-10.667 19.2-12.8 8.534-4.267 17.067-6.4 25.6-6.4v-34.134h25.6v34.134c8.534 2.133 17.067 4.266 25.6 8.533 8.534 4.267 12.8 8.533 19.2 14.933 4.267 6.4 8.534 12.8 12.8 21.334 2.134 8.533 4.267 19.2 4.267 29.866h-46.933c0-12.8-2.134-21.333-8.534-27.733-4.266-6.4-12.8-8.533-21.333-8.533-4.267 0-8.533 0-12.8 2.133-4.267 2.133-6.4 4.267-8.533 6.4-4.267 0-6.4 2.133-6.4 6.4s-2.134 6.4-2.134 10.667 0 8.533 2.134 10.666z" fill="#FFF"/></svg>