<svg class="icon" width="128" height="128" viewBox="0 0 1024 1024" xmlns="http://www.w3.org/2000/svg"><path d="M725.333 554.667a85.333 85.333 0 10170.667 0 85.333 85.333 0 10-170.667 0zm-597.333 0a85.333 85.333 0 10170.667 0 85.333 85.333 0 10-170.667 0z" fill="#FFCC80"/><path d="M832 405.333c0-270.933-640-177.066-640 0v213.334c0 177.066 142.933 320 320 320s320-142.934 320-320V405.333z" fill="#FFCC80"/><path d="M512 85.333c-187.733 0-341.333 153.6-341.333 341.334v74.666l44.8 12.8v-108.8l416-134.4 174.933 134.4v108.8l44.8-12.8v-74.666c2.133-160-113.067-341.334-339.2-341.334z" fill="#FFCC80"/><path d="M465.067 631.467c0-140.8 108.8-132.267 108.8-217.6 0-21.334-6.4-64-61.867-64-59.733 0-64 49.066-64 59.733h-81.067c0-21.333 8.534-128 145.067-128 138.667 0 142.933 108.8 142.933 128 0 104.533-115.2 119.467-115.2 219.733h-74.666zM458.667 736c0-6.4 2.133-44.8 44.8-44.8S550.4 729.6 550.4 736c0 12.8-6.4 42.667-46.933 42.667-38.4 0-44.8-29.867-44.8-42.667z" fill="#0277BD"/></svg>