<svg class="icon" width="128" height="128" viewBox="0 0 1024 1024" xmlns="http://www.w3.org/2000/svg"><path d="M917.333 640V384c0-46.933-38.4-85.333-85.333-85.333H192c-46.933 0-85.333 38.4-85.333 85.333v256c0 46.933 38.4 85.333 85.333 85.333h640c46.933 0 85.333-38.4 85.333-85.333zM192 384h640v256H192V384z" fill="#90CAF9"/><path d="M597.333 810.667a213.333 213.333 0 10426.667 0 213.333 213.333 0 10-426.667 0z" fill="#F44336"/><path d="M923.947 878.528l-45.227 45.27-181.013-180.993 45.248-45.269z" fill="#FFF"/><path d="M742.805 923.947l-45.269-45.227 180.992-181.013 45.27 45.248z" fill="#FFF"/></svg>