<svg class="icon" width="128" height="128" viewBox="0 0 1024 1024" xmlns="http://www.w3.org/2000/svg"><path d="M896 896H128V192L512 42.667 896 192z" fill="#C5CAE9"/><path d="M128 896h768v42.667H128z" fill="#9FA8DA"/><path d="M426.667 746.667h170.666v192H426.667z" fill="#BF360C"/><path d="M661.333 576h128v106.667h-128zM448 576h128v106.667H448zm-213.333 0h128v106.667h-128zm426.666 170.667h128v106.666h-128zm-426.666 0h128v106.666h-128zm426.666-341.334h128V512h-128zm-213.333 0h128V512H448zm-213.333 0h128V512h-128zm426.666-170.666h128v106.666h-128zm-213.333 0h128v106.666H448zm-213.333 0h128v106.666h-128z" fill="#1565C0"/></svg>