<svg class="icon" width="128" height="128" viewBox="0 0 1024 1024" xmlns="http://www.w3.org/2000/svg"><path d="M789.333 896H106.667V682.667h682.666C849.067 682.667 896 729.6 896 789.333S849.067 896 789.333 896z" fill="#B0BEC5"/><path d="M213.333 725.333c-36.266 0-64 27.734-64 64s27.734 64 64 64 64-27.733 64-64-27.733-64-64-64zm0 85.334c-12.8 0-21.333-8.534-21.333-21.334S200.533 768 213.333 768s21.334 8.533 21.334 21.333-8.534 21.334-21.334 21.334zm192-85.334c-36.266 0-64 27.734-64 64s27.734 64 64 64 64-27.733 64-64-27.733-64-64-64zm0 85.334c-12.8 0-21.333-8.534-21.333-21.334S392.533 768 405.333 768s21.334 8.533 21.334 21.333-8.534 21.334-21.334 21.334zm384-85.334c-36.266 0-64 27.734-64 64s27.734 64 64 64 64-27.733 64-64-27.733-64-64-64zm0 85.334c-12.8 0-21.333-8.534-21.333-21.334S776.533 768 789.333 768s21.334 8.533 21.334 21.333-8.534 21.334-21.334 21.334zm-192-85.334c-36.266 0-64 27.734-64 64s27.734 64 64 64 64-27.733 64-64-27.733-64-64-64zm0 85.334c-12.8 0-21.333-8.534-21.333-21.334S584.533 768 597.333 768s21.334 8.533 21.334 21.333-8.534 21.334-21.334 21.334z" fill="#37474F"/><path d="M746.667 661.333h-512c-23.467 0-42.667-19.2-42.667-42.666V149.333c0-23.466 19.2-42.666 42.667-42.666h512c23.466 0 42.666 19.2 42.666 42.666v469.334c0 23.466-19.2 42.666-42.666 42.666z" fill="#FF9800"/><path d="M565.333 277.333H416c-17.067 0-32-14.933-32-32s14.933-32 32-32h149.333c17.067 0 32 14.934 32 32s-14.933 32-32 32z" fill="#8A5100"/><path d="M789.333 661.333H106.667V704h682.666c46.934 0 85.334 38.4 85.334 85.333s-38.4 85.334-85.334 85.334H106.667v42.666h682.666c70.4 0 128-57.6 128-128s-57.6-128-128-128z" fill="#607D8B"/></svg>