<svg class="icon" width="128" height="128" viewBox="0 0 1024 1024" xmlns="http://www.w3.org/2000/svg"><path d="M192 85.333h640v853.334H192z" fill="#FBE9E7"/><path d="M640 789.333h59.733L593.067 682.667 533.333 742.4 640 849.067zm-256 0h-59.733l106.666-106.666 59.734 59.733L384 849.067z" fill="#F4511E"/><path d="M320 277.333h384v85.334H320zm0 149.334h384v42.666H320zm192 128c-59.733 0-106.667 46.933-106.667 106.666S452.267 768 512 768s106.667-46.933 106.667-106.667S571.733 554.667 512 554.667zm0 170.666c-36.267 0-64-27.733-64-64s27.733-64 64-64 64 27.734 64 64-27.733 64-64 64z" fill="#FF8A65"/><path d="M170.667 64v896h682.666V64H170.667zm640 789.333c-36.267 0-64 27.734-64 64H277.333c0-36.266-27.733-64-64-64V170.667c36.267 0 64-27.734 64-64h469.334c0 36.266 27.733 64 64 64v682.666z" fill="#FF8A65"/></svg>