<svg class="icon" width="128" height="128" viewBox="0 0 1024 1024" xmlns="http://www.w3.org/2000/svg"><path d="M277.333 469.333H170.667V288c0-29.867 23.466-53.333 53.333-53.333s53.333 23.466 53.333 53.333v181.333zm149.334 0H320V160c0-29.867 23.467-53.333 53.333-53.333s53.334 23.466 53.334 53.333v309.333zm149.333 0H469.333v-352C469.333 87.467 492.8 64 522.667 64S576 87.467 576 117.333v352zm149.333 0H618.667v-288C618.667 151.467 642.133 128 672 128s53.333 23.467 53.333 53.333v288zm-40.533 448L578.133 810.667l213.334-213.334c29.866-29.866 76.8-29.866 104.533 0 29.867 29.867 29.867 76.8 0 104.534L684.8 917.333z" fill="#FFCC80"/><path d="M618.667 448c0 12.8-8.534 21.333-21.334 21.333S576 460.8 576 448H469.333c0 12.8-8.533 21.333-21.333 21.333S426.667 460.8 426.667 448H320c0 12.8-8.533 21.333-21.333 21.333S277.333 460.8 277.333 448H170.667v341.333c0 93.867 76.8 170.667 170.666 170.667h238.934c78.933 0 145.066-64 145.066-145.067V448H618.667z" fill="#FFCC80"/><path d="M328.81 618.048l52.78-52.779 226.24 226.24-52.78 52.779z" fill="#F44336"/><path d="M554.517 565.419l52.8 52.778-226.24 226.24-52.8-52.778z" fill="#F44336"/></svg>