<svg class="icon" width="128" height="128" viewBox="0 0 1024 1024" xmlns="http://www.w3.org/2000/svg"><path d="M853.333 874.667H170.667c-46.934 0-85.334-38.4-85.334-85.334V234.667c0-46.934 38.4-85.334 85.334-85.334h682.666c46.934 0 85.334 38.4 85.334 85.334v554.666c0 46.934-38.4 85.334-85.334 85.334z" fill="#80DEEA"/><path d="M768 362.667H661.333L618.667 320l42.666-42.667H768L810.667 320zm0 384H661.333L618.667 704l42.666-42.667H768L810.667 704zM789.333 640V384L832 341.333 874.667 384v256L832 682.667zm-234.666 0V384l42.666-42.667L640 384v256l-42.667 42.667zm-192-277.333H256L213.333 320 256 277.333h106.667L405.333 320zm0 384H256L213.333 704 256 661.333h106.667L405.333 704zM384 640V384l42.667-42.667L469.333 384v256l-42.666 42.667zm-234.667 0V384L192 341.333 234.667 384v256L192 682.667z" fill="#2962FF"/></svg>