<svg class="icon" width="128" height="128" viewBox="0 0 1024 1024" xmlns="http://www.w3.org/2000/svg"><path d="M714.667 426.667C665.6 377.6 640 296.533 640 192v-64H384v64c0 104.533-25.6 185.6-74.667 234.667-51.2 4.266-117.333 42.666-117.333 115.2 0 96 108.8 98.133 128 98.133 25.6 0 130.133 85.333 170.667 85.333h42.666C573.867 725.333 678.4 640 704 640c19.2 0 128-2.133 128-98.133 0-72.534-66.133-110.934-117.333-115.2z" fill="#FFA726"/><path d="M714.667 426.667C665.6 377.6 640 296.533 640 192v-64H384v64c0 104.533-25.6 185.6-74.667 234.667-51.2 4.266-117.333 42.666-117.333 115.2 0 96 108.8 98.133 128 98.133 25.6 0 130.133 85.333 170.667 85.333h42.666C573.867 725.333 678.4 640 704 640c19.2 0 128-2.133 128-98.133 0-72.534-66.133-110.934-117.333-115.2z" fill="#FFA726"/><path d="M554.667 192v-64h-85.334v64c0 104.533-64 405.333-64 405.333S439.467 640 512 640s106.667-42.667 106.667-42.667-64-300.8-64-405.333z" fill="#FFB74D"/><path d="M490.667 725.333c-70.4 0-136.534-66.133-170.667-85.333h38.4c66.133 0 96 85.333 132.267 85.333zm42.666 0c70.4 0 136.534-66.133 170.667-85.333h-38.4c-66.133 0-96 85.333-132.267 85.333z" fill="#CC861E"/><path d="M76.01 136.448l60.31-60.33 809.941 809.94-60.33 60.331z" fill="#37474F"/><path d="M384 746.667L469.333 832H298.667z" fill="#FF5722"/><path d="M362.667 810.667h42.666V896h-42.666zm277.333-64L725.333 832H554.667z" fill="#FF5722"/><path d="M618.667 810.667h42.666V896h-42.666z" fill="#FF5722"/></svg>