<svg class="icon" width="128" height="128" viewBox="0 0 1024 1024" xmlns="http://www.w3.org/2000/svg"><path d="M661.333 618.667L512 768 362.667 618.667z" fill="#7CB342"/><path d="M469.333 149.333h85.334v533.334h-85.334z" fill="#7CB342"/><path d="M896 384c-70.4 0-128 57.6-128 128v256c0 23.467-19.2 42.667-42.667 42.667H298.667C275.2 810.667 256 791.467 256 768V512c0-70.4-57.6-128-128-128H85.333v85.333H128c23.467 0 42.667 19.2 42.667 42.667v256c0 70.4 57.6 128 128 128h426.666c70.4 0 128-57.6 128-128V512c0-23.467 19.2-42.667 42.667-42.667h42.667V384H896z" fill="#7CB342"/><path d="M76.01 136.448l60.31-60.33 809.941 809.94-60.33 60.331z" fill="#37474F"/></svg>