<svg class="icon" width="128" height="128" viewBox="0 0 1024 1024" xmlns="http://www.w3.org/2000/svg"><path d="M512 640c-70.4 0-128-57.6-128-128s57.6-128 128-128V106.667C288 106.667 106.667 288 106.667 512S288 917.333 512 917.333c93.867 0 181.333-32 251.733-87.466l-170.666-217.6C569.6 629.333 541.867 640 512 640z" fill="#00BCD4"/><path d="M640 512h277.333C917.333 288 736 106.667 512 106.667V384c70.4 0 128 57.6 128 128z" fill="#448AFF"/><path d="M917.333 512H640c0 40.533-19.2 76.8-49.067 100.267l170.667 217.6C857.6 755.2 917.333 640 917.333 512z" fill="#3F51B5"/></svg>