<svg class="icon" width="128" height="128" viewBox="0 0 1024 1024" xmlns="http://www.w3.org/2000/svg"><path d="M661.333 874.667H170.667c-46.934 0-85.334-38.4-85.334-85.334V234.667c0-46.934 38.4-85.334 85.334-85.334h682.666c46.934 0 85.334 38.4 85.334 85.334v362.666c0 153.6-123.734 277.334-277.334 277.334z" fill="#8CBCD6"/><path d="M682.667 341.333a64 64 0 10128 0 64 64 0 10-128 0z" fill="#B3DDF5"/><path d="M426.667 341.333L192 682.667h469.333z" fill="#9AC9E3"/><path d="M661.333 469.333L490.667 682.667H832z" fill="#B3DDF5"/><path d="M1017.6 620.8l-59.733-59.733c-8.534-8.534-23.467-8.534-34.134 0L896 588.8l93.867 93.867 27.733-27.734c8.533-8.533 8.533-23.466 0-34.133z" fill="#E57373"/><path d="M585.963 899.563L848.427 637.12l93.525 93.525-262.485 262.422z" fill="#FF9800"/><path d="M989.867 683.477l-46.763 46.763-93.504-93.525 46.763-46.742z" fill="#B0BEC5"/><path d="M586.667 900.267l-32 123.733L678.4 992z" fill="#FFC107"/><path d="M569.6 960l-14.933 64 64-14.933z" fill="#37474F"/></svg>