<svg class="icon" width="128" height="128" viewBox="0 0 1024 1024" xmlns="http://www.w3.org/2000/svg"><path d="M938.667 384v-85.333H725.333V85.333H640v213.334h-85.333V85.333h-85.334v213.334H384V85.333h-85.333v213.334H85.333V384h213.334v85.333H85.333v85.334h213.334V640H85.333v85.333h213.334v213.334H384V725.333h85.333v213.334h85.334V725.333H640v213.334h85.333V725.333h213.334V640H725.333v-85.333h213.334v-85.334H725.333V384h213.334z" fill="#FF9800"/><path d="M170.667 256v512c0 46.933 38.4 85.333 85.333 85.333h512c46.933 0 85.333-38.4 85.333-85.333V256c0-46.933-38.4-85.333-85.333-85.333H256c-46.933 0-85.333 38.4-85.333 85.333z" fill="#4CAF50"/><path d="M661.333 661.333H362.667c-23.467 0-42.667-19.2-42.667-42.666V405.333c0-23.466 19.2-42.666 42.667-42.666h298.666c23.467 0 42.667 19.2 42.667 42.666v213.334c0 23.466-19.2 42.666-42.667 42.666z" fill="#37474F"/></svg>