<svg class="icon" width="128" height="128" viewBox="0 0 1024 1024" xmlns="http://www.w3.org/2000/svg"><path d="M490.667 512a192 192 0 10384 0 192 192 0 10-384 0z" fill="#B2EBF2"/><path d="M682.667 256c-140.8 0-256 115.2-256 256s115.2 256 256 256 256-115.2 256-256-115.2-256-256-256zm0 426.667C588.8 682.667 512 605.867 512 512s76.8-170.667 170.667-170.667S853.333 418.133 853.333 512s-76.8 170.667-170.666 170.667z" fill="#4DD0E1"/><path d="M541.867 469.333L422.4 108.8 290.133 590.933l-46.933-121.6H85.333v85.334h98.134L307.2 859.733 430.933 403.2l51.2 151.467H640v-85.334z" fill="#3F51B5"/><path d="M597.333 512A85.333 85.333 0 10768 512a85.333 85.333 0 10-170.667 0z" fill="#3F51B5"/></svg>