<svg class="icon" width="128" height="128" viewBox="0 0 1024 1024" xmlns="http://www.w3.org/2000/svg"><path d="M928 358.4l-49.067-49.067c-172.8-168.533-586.666-145.066-736 0L93.867 358.4c-12.8 12.8-12.8 34.133 0 49.067l98.133 96c12.8 12.8 36.267 12.8 49.067 0l108.8-104.534-8.534-113.066c34.134-34.134 307.2-34.134 341.334 0l-6.4 117.333L780.8 503.467c12.8 12.8 36.267 12.8 49.067 0l98.133-96c14.933-14.934 14.933-36.267 0-49.067z" fill="#F44336"/><path d="M512 864L341.333 661.333h341.334z" fill="#B71C1C"/><path d="M448 512h128v160H448z" fill="#B71C1C"/></svg>