<svg class="icon" width="128" height="128" viewBox="0 0 1024 1024" xmlns="http://www.w3.org/2000/svg"><path d="M362.667 618.667h298.666v42.666H362.667zM277.333 704h469.334v42.667H277.333zM192 789.333h640V832H192zm-85.333 85.334h810.666v42.666H106.667z" fill="#039BE5"/><path d="M746.667 277.333c-8.534 0-17.067 0-25.6 2.134-19.2-98.134-104.534-172.8-209.067-172.8-87.467 0-162.133 53.333-196.267 128h-17.066C204.8 234.667 128 311.467 128 405.333S204.8 576 298.667 576h448C829.867 576 896 509.867 896 426.667s-66.133-149.334-149.333-149.334z" fill="#81D4FA"/><path d="M597.333 448c0-46.933-38.4-85.333-85.333-85.333s-85.333 38.4-85.333 85.333v128h170.666V448z" fill="#039BE5"/></svg>