<svg class="icon" width="128" height="128" viewBox="0 0 1024 1024" xmlns="http://www.w3.org/2000/svg"><path d="M64 362.667a298.667 298.667 0 10597.333 0 298.667 298.667 0 10-597.333 0z" fill="#00ACC1"/><path d="M128 362.667a234.667 234.667 0 10469.333 0 234.667 234.667 0 10-469.333 0z" fill="#EEE"/><path d="M341.333 170.667H384v192h-42.667z"/><path d="M483.307 447.019l-36.203 36.202-102.57-102.549 36.202-36.203z"/><path d="M320 362.667a42.667 42.667 0 1085.333 0 42.667 42.667 0 10-85.333 0z"/><path d="M341.333 362.667a21.333 21.333 0 1042.667 0 21.333 21.333 0 10-42.667 0z" fill="#00ACC1"/><path d="M253.867 896l307.2-514.133c17.066-27.734 57.6-27.734 72.533 0L940.8 896c17.067 27.733-4.267 64-36.267 64h-614.4c-32 0-53.333-36.267-36.266-64z" fill="#FFC107"/><path d="M563.2 851.2c0-4.267 0-8.533 2.133-12.8s4.267-6.4 6.4-10.667 6.4-4.266 10.667-6.4 8.533-2.133 12.8-2.133 10.667 0 14.933 2.133 8.534 4.267 10.667 6.4 4.267 6.4 6.4 10.667 2.133 8.533 2.133 12.8 0 8.533-2.133 12.8-4.267 6.4-6.4 10.667-6.4 4.266-10.667 6.4S601.6 883.2 595.2 883.2s-10.667 0-12.8-2.133-8.533-4.267-10.667-6.4-4.266-6.4-6.4-10.667-2.133-8.533-2.133-12.8zm59.733-66.133h-49.066L565.333 576h64l-6.4 209.067z" fill="#263238"/></svg>