<svg class="icon" width="128" height="128" viewBox="0 0 1024 1024" xmlns="http://www.w3.org/2000/svg"><path d="M853.333 874.667H170.667c-46.934 0-85.334-38.4-85.334-85.334V343.467c0-27.734 12.8-53.334 36.267-70.4L512 0l390.4 273.067c23.467 14.933 36.267 42.666 36.267 70.4v445.866c0 46.934-38.4 85.334-85.334 85.334z" fill="#78909C"/><path d="M256 234.667h512V704H256z" fill="#FFF"/><path d="M512 290.133l-128 166.4h256z" fill="#9C27B0"/><path d="M853.333 874.667H170.667c-46.934 0-85.334-38.4-85.334-85.334V362.667L512 640l426.667-277.333v426.666c0 46.934-38.4 85.334-85.334 85.334z" fill="#CFD8DC"/><path d="M512 597.333l42.667-27.733V426.667h-85.334V569.6z" fill="#9C27B0"/></svg>