<svg class="icon" width="128" height="128" viewBox="0 0 1024 1024" xmlns="http://www.w3.org/2000/svg"><path d="M810.667 512v256c0 23.467-19.2 42.667-42.667 42.667H256c-23.467 0-42.667-19.2-42.667-42.667V512c0-70.4-57.6-128-128-128v85.333C108.8 469.333 128 488.533 128 512v256c0 70.4 57.6 128 128 128h512c70.4 0 128-57.6 128-128V512c0-23.467 19.2-42.667 42.667-42.667V384c-70.4 0-128 57.6-128 128z" fill="#2196F3"/><path d="M823.467 119.467l-204.8 204.8v273.066H704V358.4l179.2-179.2zM140.8 179.2L320 358.4v238.933h85.333V324.267l-204.8-204.8z" fill="#3F51B5"/><path d="M789.333 576l-128 128-128-128zm-298.666 0l-128 128-128-128z" fill="#3F51B5"/></svg>