<svg class="icon" width="128" height="128" viewBox="0 0 1024 1024" xmlns="http://www.w3.org/2000/svg"><path d="M256 938.667h85.333v42.666H256zm426.667 0H768v42.666h-85.333z" fill="#263238"/><path d="M170.667 874.667V149.333C170.667 102.4 209.067 64 256 64h512c46.933 0 85.333 38.4 85.333 85.333v725.334C853.333 921.6 814.933 960 768 960H256c-46.933 0-85.333-38.4-85.333-85.333z" fill="#607D8B"/><path d="M256 362.667v-192c0-12.8 8.533-21.334 21.333-21.334h469.334c12.8 0 21.333 8.534 21.333 21.334v192H256zm0 42.666h512v213.334H256zm0 448v-192h512v192c0 12.8-8.533 21.334-21.333 21.334H277.333c-12.8 0-21.333-8.534-21.333-21.334z" fill="#B0BEC5"/><path d="M426.667 234.667h170.666v42.666H426.667zm0 256h170.666v42.666H426.667zm0 256h170.666v42.666H426.667z" fill="#546E7A"/></svg>