<svg class="icon" width="128" height="128" viewBox="0 0 1024 1024" xmlns="http://www.w3.org/2000/svg"><path d="M917.333 832V512H832v320c0 106.667 85.333 192 192 192v-85.333c-59.733 0-106.667-46.934-106.667-106.667z" fill="#3F51B5"/><path d="M106.667 512a405.333 405.333 0 10810.666 0 405.333 405.333 0 10-810.666 0z" fill="#90A4AE"/><path d="M469.333 512a42.667 42.667 0 1085.334 0 42.667 42.667 0 10-85.334 0z" fill="#37474F"/><path d="M405.333 298.667a106.667 106.667 0 10213.334 0 106.667 106.667 0 10-213.334 0zm0 426.666a106.667 106.667 0 10213.334 0 106.667 106.667 0 10-213.334 0zM618.667 512A106.667 106.667 0 10832 512a106.667 106.667 0 10-213.333 0zM192 512a106.667 106.667 0 10213.333 0A106.667 106.667 0 10192 512z" fill="#253278"/></svg>