<svg class="icon" width="128" height="128" viewBox="0 0 1024 1024" xmlns="http://www.w3.org/2000/svg"><path fill="#333" d="M960 192H64v640h896V192zM469.333 789.333V704h85.334v85.333h-85.334zm170.667 0V704h85.333v85.333H640zm170.667 0V704H896v85.333h-85.333zm-512 0V704H384v85.333h-85.333zm-170.667 0V704h85.333v85.333H128zM469.333 320v-85.333h85.334V320h-85.334zM640 320v-85.333h85.333V320H640zm170.667 0v-85.333H896V320h-85.333zm-512 0v-85.333H384V320h-85.333zM128 320v-85.333h85.333V320H128z"/></svg>