<svg class="icon" width="128" height="128" viewBox="0 0 1024 1024" xmlns="http://www.w3.org/2000/svg"><path d="M704 896H106.667V85.333H512l192 192z" fill="#90CAF9"/><path d="M672 298.667H490.667V117.333z" fill="#E1F5FE"/><path d="M736.107 801.707l42.24-42.24 180.97 181.013-42.24 42.24z" fill="#616161"/><path d="M362.667 618.667a234.667 234.667 0 10469.333 0 234.667 234.667 0 10-469.333 0z" fill="#616161"/><path d="M405.333 618.667a192 192 0 10384 0 192 192 0 10-384 0z" fill="#90CAF9"/><path d="M786.112 850.773l42.24-42.24 131.2 131.222-42.24 42.24z" fill="#37474F"/><path d="M640 661.333H433.067c8.533 34.134 27.733 64 53.333 85.334H640v-85.334zM433.067 576H640v-85.333H484.267c-25.6 21.333-42.667 51.2-51.2 85.333zM428.8 426.667H234.667v42.666H390.4c10.667-14.933 23.467-29.866 38.4-42.666zM364.8 512H234.667v42.667h115.2C354.133 539.733 358.4 524.8 364.8 512zm-23.467 106.667c0-6.4 0-14.934 2.134-21.334h-108.8V640h108.8c-2.134-6.4-2.134-14.933-2.134-21.333zm8.534 64h-115.2v42.666H364.8c-6.4-12.8-10.667-27.733-14.933-42.666z" fill="#1976D2"/></svg>