<svg class="icon" width="128" height="128" viewBox="0 0 1024 1024" xmlns="http://www.w3.org/2000/svg"><path d="M866.133 855.467H825.6l-66.133-8.534c-51.2-6.4-104.534-4.266-155.734 8.534l-76.8 19.2c-10.666 2.133-23.466 2.133-34.133 0l-74.667-21.334c-51.2-12.8-102.4-14.933-155.733-8.533l-66.133 8.533h-38.4c-40.534 0-72.534-32-72.534-72.533 0-8.533 2.134-19.2 4.267-27.733l4.267-12.8C115.2 686.933 117.333 627.2 102.4 571.733l-12.8-42.666c-4.267-14.934-4.267-27.734 0-42.667l6.4-17.067c19.2-57.6 17.067-121.6-4.267-179.2l-2.133-6.4c-2.133-4.266-4.267-12.8-4.267-21.333v-21.333c0-40.534 32-72.534 72.534-72.534H198.4l66.133 8.534c51.2 6.4 104.534 4.266 155.734-8.534l76.8-19.2c10.666-2.133 23.466-2.133 34.133 0l74.667 21.334c51.2 12.8 102.4 14.933 155.733 8.533l66.133-8.533h40.534c40.533 0 72.533 32 72.533 72.533v21.333c0 8.534-2.133 19.2-4.267 27.734l-2.133 6.4c-23.467 57.6-25.6 119.466-4.267 179.2l6.4 17.066c4.267 12.8 4.267 27.734 0 42.667l-12.8 42.667c-14.933 55.466-12.8 115.2 8.534 168.533l4.266 12.8c4.267 8.533 4.267 17.067 4.267 27.733-2.133 34.134-34.133 66.134-74.667 66.134z" fill="#3949AB"/><path d="M810.667 768H213.333c-12.8 0-21.333-8.533-21.333-21.333V277.333c0-12.8 8.533-21.333 21.333-21.333h597.334c12.8 0 21.333 8.533 21.333 21.333v469.334c0 12.8-8.533 21.333-21.333 21.333z" fill="#BBDEFB"/></svg>