<svg class="icon" width="128" height="128" viewBox="0 0 1024 1024" xmlns="http://www.w3.org/2000/svg"><path d="M512 454.4L270.933 213.333 554.667 36.267l262.4 177.066z" fill="#FF8A65"/><path d="M512 454.4L270.933 213.333l91.734-113.066 454.4 113.066z" fill="#FFAB91"/><path d="M652.8 938.667H371.2c-42.667 0-78.933-29.867-85.333-72.534L192 234.667h640l-96 631.466c-6.4 42.667-42.667 72.534-83.2 72.534z" fill="#B39DDB"/><path d="M810.667 277.333H213.333c-23.466 0-42.666-19.2-42.666-42.666S189.867 192 213.333 192h597.334c23.466 0 42.666 19.2 42.666 42.667s-19.2 42.666-42.666 42.666z" fill="#7E57C2"/></svg>