<svg class="icon" width="128" height="128" viewBox="0 0 1024 1024" xmlns="http://www.w3.org/2000/svg"><path d="M853.333 192v-42.667h-192V256H320v234.667H170.667v42.666H320V768h341.333v106.667h192V832H704V661.333h149.333v-42.666h-192v106.666H362.667V298.667h298.666v106.666h192v-42.666H704V192z" fill="#CFD8DC"/><path d="M85.333 426.667H256v170.666H85.333z" fill="#00BCD4"/><path d="M768 298.667h170.667v170.666H768zm0-213.334h170.667V256H768zM426.667 192h170.666v170.667H426.667zm0 469.333h170.666V832H426.667zM768 768h170.667v170.667H768zm0-213.333h170.667v170.666H768z" fill="#3F51B5"/></svg>