<svg class="icon" width="128" height="128" viewBox="0 0 1024 1024" xmlns="http://www.w3.org/2000/svg"><path d="M512 85.333c-234.667 0-426.667 192-426.667 426.667s192 426.667 426.667 426.667 426.667-192 426.667-426.667S746.667 85.333 512 85.333z" fill="#7CB342"/><path d="M960 512c0 249.6-202.667 448-448 448S64 761.6 64 512 262.4 64 512 64s448 198.4 448 448zM507.733 718.933c0-8.533-4.266-12.8-12.8-17.066-27.733-8.534-53.333-8.534-76.8-32-4.266-8.534-4.266-17.067-8.533-27.734-8.533-8.533-32-12.8-44.8-17.066h-89.6c-12.8-4.267-23.467-23.467-32-36.267 0-4.267 0-12.8-8.533-12.8-8.534-4.267-17.067 4.267-27.734 0-4.266-4.267-4.266-8.533-4.266-12.8 0-12.8 8.533-27.733 17.066-36.267 12.8-8.533 27.734 4.267 40.534 4.267 4.266 0 4.266 0 8.533 4.267 12.8 4.266 17.067 21.333 17.067 36.266v8.534c0 4.266 4.266 4.266 8.533 4.266 4.267-23.466 4.267-44.8 8.533-68.266 0-27.734 27.734-53.334 49.067-61.867 8.533-4.267 12.8 4.267 23.467 0 27.733-8.533 93.866-36.267 81.066-72.533-8.533-32-36.266-61.867-72.533-57.6-8.533 4.266-12.8 8.533-21.333 12.8-12.8 8.533-40.534 36.266-53.334 36.266-23.466-4.266-23.466-36.266-17.066-49.066 4.266-17.067 44.8-76.8 72.533-66.134l17.067 17.067c8.533 4.267 23.466 4.267 36.266 4.267 4.267 0 8.534 0 12.8-4.267 4.267-4.267 4.267-4.267 4.267-8.533 0-12.8-12.8-27.734-21.333-36.267-8.534-8.533-23.467-17.067-36.267-23.467-44.8-12.8-117.333 4.267-151.467 36.267s-61.866 85.333-81.066 130.133C136.533 401.067 128 435.2 123.733 467.2c-4.266 21.333-8.533 40.533 4.267 61.867 12.8 27.733 40.533 53.333 68.267 72.533 17.066 12.8 53.333 12.8 72.533 36.267 12.8 17.066 8.533 40.533 8.533 61.866 0 27.734 17.067 49.067 27.734 72.534 4.266 12.8 8.533 32 12.8 44.8 0 4.266 4.266 32 4.266 36.266 27.734 12.8 49.067 27.734 81.067 36.267 4.267 0 21.333-27.733 21.333-32 12.8-12.8 23.467-32 36.267-40.533 8.533-4.267 17.067-8.534 27.733-17.067 8.534-8.533 12.8-27.733 17.067-40.533 2.133-10.667 6.4-27.734 2.133-40.534zm8.534-413.866c4.266 0 8.533-4.267 17.066-8.534 12.8-8.533 27.734-23.466 40.534-32 12.8-8.533 27.733-23.466 36.266-32C622.933 224 633.6 204.8 637.867 192c4.266-8.533 17.066-27.733 12.8-40.533-4.267-8.534-27.734-12.8-36.267-17.067-36.267-8.533-66.133-12.8-102.4-12.8-12.8 0-32 4.267-36.267 17.067-4.266 23.466 12.8 17.066 32 23.466 0 0 4.267 36.267 4.267 40.534 4.267 21.333-8.533 36.266-8.533 57.6 0 12.8 0 36.266 8.533 44.8h4.267zm375.466 313.6c4.267-8.534 4.267-23.467 8.534-32 4.266-21.334 4.266-44.8 4.266-66.134 0-44.8-4.266-89.6-17.066-130.133-8.534-12.8-12.8-27.733-17.067-40.533-8.533-23.467-21.333-44.8-40.533-61.867-17.067-23.467-40.534-85.333-81.067-66.133-12.8 4.266-21.333 21.333-32 32-8.533 12.8-17.067 27.733-27.733 40.533-4.267 4.267-8.534 12.8-4.267 17.067 0 4.266 4.267 4.266 8.533 4.266 8.534 4.267 12.8 4.267 21.334 8.534 4.266 0 8.533 4.266 4.266 8.533 0 0 0 4.267-4.266 4.267-21.334 23.466-44.8 40.533-66.134 61.866C644.267 403.2 640 411.733 640 416c0 4.267 4.267 4.267 4.267 8.533s-4.267 4.267-8.534 8.534c-8.533 4.266-17.066 8.533-23.466 12.8-4.267 8.533 0 23.466-4.267 32-4.267 23.466-17.067 40.533-27.733 61.866-8.534 12.8-12.8 27.734-21.334 40.534 0 17.066-4.266 32 4.267 44.8 21.333 32 61.867 12.8 93.867 27.733 8.533 4.267 17.066 4.267 23.466 12.8 12.8 12.8 12.8 36.267 17.067 49.067 4.267 17.066 8.533 36.266 17.067 53.333 4.266 21.333 12.8 44.8 17.066 61.867 40.534-32 76.8-66.134 102.4-110.934 32-27.733 44.8-64 57.6-100.266z" fill="#0277BD"/></svg>