<svg class="icon" width="128" height="128" viewBox="0 0 1024 1024" xmlns="http://www.w3.org/2000/svg"><path d="M192 426.667h640V704H192z" fill="#37474F"/><path d="M192 704a320 128 0 10640 0 320 128 0 10-640 0z" fill="#37474F"/><path d="M492.8 174.933l-480 211.2c-17.067 8.534-17.067 32 0 40.534l480 211.2c12.8 4.266 25.6 4.266 38.4 0l480-211.2c17.067-8.534 17.067-32 0-40.534l-480-211.2c-12.8-6.4-25.6-6.4-38.4 0z" fill="#78909C"/><path d="M921.6 435.2l-426.667-72.533c-10.666-2.134-23.466 6.4-25.6 17.066-2.133 10.667 6.4 23.467 17.067 25.6L896 473.6v315.733c0 12.8 8.533 21.334 21.333 21.334s21.334-8.534 21.334-21.334v-332.8c0-10.666-8.534-19.2-17.067-21.333z" fill="#37474F"/><path d="M874.667 789.333a42.667 42.667 0 1085.333 0 42.667 42.667 0 10-85.333 0z" fill="#37474F"/><path d="M981.333 853.333c0 36.267-64 128-64 128s-64-91.733-64-128 27.734-64 64-64 64 27.734 64 64z" fill="#37474F"/></svg>