<svg class="icon" width="128" height="128" viewBox="0 0 1024 1024" xmlns="http://www.w3.org/2000/svg"><path fill="#333" d="M149.333 149.333v725.334h725.334V149.333H149.333zM832 320H704V192h128v128zm-298.667 0V192h128v128h-128zm128 42.667v128h-128v-128h128zM490.667 320h-128V192h128v128zm0 42.667v128h-128v-128h128zM320 490.667H192v-128h128v128zm0 42.666v128H192v-128h128zm42.667 0h128v128h-128v-128zm128 170.667v128h-128V704h128zm42.666 0h128v128h-128V704zm0-42.667v-128h128v128h-128zm170.667-128h128v128H704v-128zm0-42.666v-128h128v128H704zM320 192v128H192V192h128zM192 704h128v128H192V704zm512 128V704h128v128H704z"/></svg>