<svg class="icon" width="128" height="128" viewBox="0 0 1024 1024" xmlns="http://www.w3.org/2000/svg"><path d="M512 106.667c-211.2 0-384 172.8-384 384v320h85.333v-320C213.333 326.4 347.733 192 512 192s298.667 134.4 298.667 298.667v320H896v-320c0-211.2-172.8-384-384-384z" fill="#0097A7"/><path d="M810.667 917.333h-85.334v-256h85.334c46.933 0 85.333 38.4 85.333 85.334V832c0 46.933-38.4 85.333-85.333 85.333zm-597.334 0h85.334v-256h-85.334c-46.933 0-85.333 38.4-85.333 85.334V832c0 46.933 38.4 85.333 85.333 85.333z" fill="#37474F"/></svg>