<svg class="icon" width="128" height="128" viewBox="0 0 1024 1024" xmlns="http://www.w3.org/2000/svg"><path d="M192 832V128h-42.667v746.667H896V832z" fill="#CFD8DC"/><path d="M256 234.667a42.667 42.667 0 1085.333 0 42.667 42.667 0 10-85.333 0zm384 0a42.667 42.667 0 1085.333 0 42.667 42.667 0 10-85.333 0zm149.333 0a42.667 42.667 0 1085.334 0 42.667 42.667 0 10-85.334 0zm-384 0a85.333 85.333 0 10170.667 0 85.333 85.333 0 10-170.667 0zM256 704a42.667 42.667 0 1085.333 0A42.667 42.667 0 10256 704zm341.333 0a42.667 42.667 0 1085.334 0 42.667 42.667 0 10-85.334 0zm-192 0a64 64 0 10128 0 64 64 0 10-128 0zm320 0A85.333 85.333 0 10896 704a85.333 85.333 0 10-170.667 0zM256 469.333a42.667 42.667 0 1085.333 0 42.667 42.667 0 10-85.333 0zm533.333 0a42.667 42.667 0 1085.334 0 42.667 42.667 0 10-85.334 0zm-170.666 0a64 64 0 10128 0 64 64 0 10-128 0z" fill="#00BCD4"/></svg>