<svg class="icon" width="128" height="128" viewBox="0 0 1024 1024" xmlns="http://www.w3.org/2000/svg"><path d="M452.267 955.733l-384-384c-34.134-34.133-34.134-87.466 0-121.6l384-384C486.4 32 539.733 32 573.867 66.133l384 384c34.133 34.134 34.133 87.467 0 121.6l-384 384c-34.134 34.134-89.6 34.134-121.6 0z" fill="#F44336"/><path d="M460.8 697.6c0-6.4 2.133-12.8 4.267-19.2 2.133-6.4 6.4-10.667 10.666-14.933C480 659.2 486.4 654.933 492.8 652.8s12.8-4.267 21.333-4.267 14.934 2.134 21.334 4.267c6.4 2.133 12.8 6.4 17.066 10.667 4.267 4.266 8.534 8.533 10.667 14.933 2.133 6.4 4.267 12.8 4.267 19.2s-2.134 12.8-4.267 19.2-6.4 10.667-10.667 14.933c-4.266 4.267-10.666 8.534-17.066 10.667-6.4 2.133-12.8 4.267-21.334 4.267S499.2 744.533 492.8 742.4s-10.667-6.4-17.067-10.667c-4.266-4.266-8.533-8.533-10.666-14.933s-4.267-10.667-4.267-19.2zm89.6-98.133h-76.8l-10.667-322.134h98.134L550.4 599.467z" fill="#FFF"/></svg>