<svg class="icon" width="128" height="128" viewBox="0 0 1024 1024" xmlns="http://www.w3.org/2000/svg"><path d="M853.333 298.667H170.667L251.733 902.4c2.134 21.333 21.334 36.267 42.667 36.267h437.333c21.334 0 38.4-14.934 42.667-36.267l78.933-603.733z" fill="#4CAF50"/><path d="M896 298.667H128v-64c0-46.934 38.4-85.334 85.333-85.334h597.334c46.933 0 85.333 38.4 85.333 85.334v64z" fill="#81C784"/><path d="M793.6 213.333H230.4l36.267-100.266C273.067 96 288 85.333 307.2 85.333h409.6c17.067 0 34.133 10.667 40.533 27.734L793.6 213.333z" fill="#81C784"/><path d="M597.333 608c25.6-23.467 42.667-57.6 42.667-96 0-70.4-57.6-128-128-128s-128 57.6-128 128c0 38.4 17.067 72.533 42.667 96-25.6 23.467-42.667 57.6-42.667 96 0 70.4 57.6 128 128 128s128-57.6 128-128c0-38.4-17.067-72.533-42.667-96zM512 768c-36.267 0-64-27.733-64-64s27.733-64 64-64 64 27.733 64 64-27.733 64-64 64zm0-192c-36.267 0-64-27.733-64-64s27.733-64 64-64 64 27.733 64 64-27.733 64-64 64z" fill="#E8F5E9"/></svg>