<svg class="icon" width="128" height="128" viewBox="0 0 1024 1024" xmlns="http://www.w3.org/2000/svg"><path d="M938.667 768H640V341.333c0-23.466 19.2-42.666 42.667-42.666h170.666c12.8 0 25.6 6.4 34.134 17.066l128 164.267c6.4 8.533 8.533 17.067 8.533 25.6v177.067C1024 729.6 985.6 768 938.667 768z" fill="#FFC107"/><path d="M170.667 768H640V277.333C640 230.4 601.6 192 554.667 192H85.333v490.667c0 46.933 38.4 85.333 85.334 85.333z" fill="#9575CD"/><path d="M0 192h213.333v42.667H0zm0 106.667h213.333v42.666H0zm0 106.666h213.333V448H0zM0 512h213.333v42.667H0z" fill="#9575CD"/><path d="M85.333 234.667h341.334v42.666H85.333zm0 106.666h256V384h-256zm0 106.667H256v42.667H85.333zm0 106.667h85.334v42.666H85.333z" fill="#7E57C2"/><path d="M725.333 768a106.667 106.667 0 10213.334 0 106.667 106.667 0 10-213.334 0zm-490.666 0A106.667 106.667 0 10448 768a106.667 106.667 0 10-213.333 0z" fill="#37474F"/><path d="M778.667 768a53.333 53.333 0 10106.666 0 53.333 53.333 0 10-106.666 0zM288 768a53.333 53.333 0 10106.667 0A53.333 53.333 0 10288 768z" fill="#78909C"/><path d="M938.667 554.667h-76.8c-6.4 0-10.667-2.134-14.934-6.4L817.067 518.4c-4.267-4.267-8.534-6.4-14.934-6.4h-76.8c-12.8 0-21.333-8.533-21.333-21.333v-128c0-12.8 8.533-21.334 21.333-21.334h117.334c6.4 0 12.8 2.134 17.066 8.534l96 115.2c2.134 4.266 4.267 8.533 4.267 12.8v55.466c0 12.8-8.533 21.334-21.333 21.334z" fill="#455A64"/></svg>