<svg class="icon" width="128" height="128" viewBox="0 0 1024 1024" xmlns="http://www.w3.org/2000/svg"><path d="M810.667 896H213.333C166.4 896 128 857.6 128 810.667V213.333C128 166.4 166.4 128 213.333 128h597.334C857.6 128 896 166.4 896 213.333v597.334C896 857.6 857.6 896 810.667 896z" fill="#607D8B"/><path d="M256 512a256 256 0 10512 0 256 256 0 10-512 0z" fill="#455A64"/><path d="M320 512a192 192 0 10384 0 192 192 0 10-384 0z" fill="#42A5F5"/><path d="M614.4 448c-25.6-29.867-64-46.933-102.4-46.933S435.2 418.133 409.6 448c-10.667 10.667-8.533 27.733 2.133 38.4s27.734 8.533 38.4-2.133c32-36.267 91.734-36.267 123.734 0 6.4 6.4 12.8 8.533 21.333 8.533 6.4 0 12.8-2.133 19.2-6.4 8.533-8.533 10.667-27.733 0-38.4z" fill="#90CAF9"/></svg>