<svg class="icon" width="128" height="128" viewBox="0 0 1024 1024" xmlns="http://www.w3.org/2000/svg"><path d="M170.667 874.667V149.333C170.667 102.4 209.067 64 256 64h512c46.933 0 85.333 38.4 85.333 85.333v725.334C853.333 921.6 814.933 960 768 960H256c-46.933 0-85.333-38.4-85.333-85.333z" fill="#E38939"/><path d="M768 128H256c-12.8 0-21.333 8.533-21.333 21.333v661.334c0 12.8 8.533 21.333 21.333 21.333h512c12.8 0 21.333-8.533 21.333-21.333V149.333c0-12.8-8.533-21.333-21.333-21.333z" fill="#FFF3E0"/><path d="M480 896a32 32 0 1064 0 32 32 0 10-64 0z" fill="#A6642A"/></svg>