<svg class="icon" width="128" height="128" viewBox="0 0 1024 1024" xmlns="http://www.w3.org/2000/svg"><path d="M256 853.333V170.667c0-46.934 38.4-85.334 85.333-85.334h341.334c46.933 0 85.333 38.4 85.333 85.334v682.666c0 46.934-38.4 85.334-85.333 85.334H341.333c-46.933 0-85.333-38.4-85.333-85.334z" fill="#E38939"/><path d="M682.667 149.333H341.333c-12.8 0-21.333 8.534-21.333 21.334v618.666c0 12.8 8.533 21.334 21.333 21.334h341.334c12.8 0 21.333-8.534 21.333-21.334V170.667c0-12.8-8.533-21.334-21.333-21.334z" fill="#FFF3E0"/><path d="M480 874.667a32 32 0 1064 0 32 32 0 10-64 0z" fill="#A6642A"/></svg>