<svg class="icon" width="128" height="128" viewBox="0 0 1024 1024" xmlns="http://www.w3.org/2000/svg"><path d="M640 874.667L554.667 960h-85.334L384 874.667V448h256v170.667l-42.667 42.666L640 704v42.667l-42.667 42.666L640 832z" fill="#FFA000"/><path d="M810.667 166.4C800 128 768 100.267 731.733 89.6 680.533 78.933 601.6 64 512 64S343.467 78.933 292.267 89.6C256 100.267 224 128 213.333 166.4 202.667 202.667 192 253.867 192 309.333 192 364.8 202.667 416 213.333 452.267c10.667 38.4 40.534 66.133 78.934 74.666 51.2 12.8 130.133 27.734 219.733 27.734s168.533-14.934 219.733-25.6c38.4-8.534 68.267-38.4 78.934-74.667S832 366.933 832 311.467c0-57.6-10.667-108.8-21.333-145.067zm-192 110.933H405.333c-23.466 0-42.666-19.2-42.666-42.666V192c0-12.8 66.133-21.333 149.333-21.333S661.333 179.2 661.333 192v42.667c0 23.466-19.2 42.666-42.666 42.666z" fill="#FFA000"/><path d="M490.667 554.667h42.666V960h-42.666z" fill="#D68600"/></svg>