<svg class="icon" width="128" height="128" viewBox="0 0 1024 1024" xmlns="http://www.w3.org/2000/svg"><path d="M170.667 874.667V149.333C170.667 102.4 209.067 64 256 64h512c46.933 0 85.333 38.4 85.333 85.333v725.334C853.333 921.6 814.933 960 768 960H256c-46.933 0-85.333-38.4-85.333-85.333z" fill="#37474F"/><path d="M746.667 128H277.333c-12.8 0-21.333 8.533-21.333 21.333V768c0 12.8 8.533 21.333 21.333 21.333h469.334c12.8 0 21.333-8.533 21.333-21.333V149.333c0-12.8-8.533-21.333-21.333-21.333z" fill="#EEE"/><path d="M426.667 853.333h170.666V896H426.667z" fill="#546E7A"/><path d="M341.333 234.667h341.334v64H341.333zm0 149.333h341.334v42.667H341.333zm0 85.333h256V512h-256zm0 85.334h341.334v42.666H341.333zm0 85.333h256v42.667h-256z" fill="#A1A1A1"/></svg>