<svg class="icon" width="128" height="128" viewBox="0 0 1024 1024" xmlns="http://www.w3.org/2000/svg"><path d="M106.667 810.667v-512h810.666v512C917.333 857.6 878.933 896 832 896H192c-46.933 0-85.333-38.4-85.333-85.333z" fill="#FFCDD2"/><path d="M917.333 213.333v128H106.667v-128C106.667 166.4 145.067 128 192 128h640c46.933 0 85.333 38.4 85.333 85.333z" fill="#F44336"/><path d="M640 213.333a64 64 0 10128 0 64 64 0 10-128 0zm-384 0a64 64 0 10128 0 64 64 0 10-128 0z" fill="#B71C1C"/><path d="M704 64c-23.467 0-42.667 19.2-42.667 42.667v106.666C661.333 236.8 680.533 256 704 256s42.667-19.2 42.667-42.667V106.667C746.667 83.2 727.467 64 704 64zm-384 0c-23.467 0-42.667 19.2-42.667 42.667v106.666C277.333 236.8 296.533 256 320 256s42.667-19.2 42.667-42.667V106.667C362.667 83.2 343.467 64 320 64z" fill="#BDBDBD"/><path d="M473.6 753.067c0-4.267 0-10.667 2.133-14.934 2.134-4.266 4.267-8.533 8.534-10.666s6.4-6.4 10.666-6.4c4.267-2.134 10.667-2.134 14.934-2.134s10.666 0 14.933 2.134l12.8 6.4c4.267 2.133 6.4 6.4 8.533 10.666 2.134 4.267 2.134 8.534 2.134 14.934 0 4.266 0 10.666-2.134 14.933-2.133 4.267-4.266 8.533-8.533 10.667-4.267 2.133-6.4 6.4-12.8 6.4s-6.4 4.266-12.8 4.266-10.667 0-14.933-2.133c-4.267-2.133-8.534-4.267-10.667-6.4-4.267-2.133-6.4-6.4-8.533-10.667-2.134-6.4-4.267-10.666-4.267-17.066zm66.133-91.734h-55.466l-8.534-234.666h70.4l-6.4 234.666z" fill="#F44336"/></svg>