<svg class="icon" width="128" height="128" viewBox="0 0 1024 1024" xmlns="http://www.w3.org/2000/svg"><path d="M21.333 810.667h981.334v42.666H21.333zm512-426.667h85.334v341.333h-85.334zm128 0h85.334v341.333h-85.334zm128 0h85.334v341.333h-85.334zm-384 0h85.334v341.333h-85.334zm-128 0h85.334v341.333h-85.334zm-128 0h85.334v341.333h-85.334zm768-42.667H106.667v-64L512 85.333l405.333 192zm-810.666 384h810.666V768H106.667z" fill="#FF9800"/><path d="M533.333 341.333h85.334V384h-85.334zm128 0h85.334V384h-85.334zm128 0h85.334V384h-85.334zm-384 0h85.334V384h-85.334zm-128 0h85.334V384h-85.334zm-128 0h85.334V384h-85.334zM64 768h896v42.667H64zm405.333-533.333a42.667 42.667 0 1085.334 0 42.667 42.667 0 10-85.334 0z" fill="#EF6C00"/></svg>