<svg class="icon" width="128" height="128" viewBox="0 0 1024 1024" xmlns="http://www.w3.org/2000/svg"><path d="M128 213.333v597.334C128 857.6 166.4 896 213.333 896h597.334C857.6 896 896 857.6 896 810.667V213.333C896 166.4 857.6 128 810.667 128H213.333C166.4 128 128 166.4 128 213.333z" fill="#3F51B5"/><path d="M595.2 616.533H471.467l-179.2 153.6 128-153.6v-51.2l-64 17.067 64-40.533v-32c0-17.067 2.133-36.267 12.8-51.2l-160-177.067 185.6 153.6c14.933-14.933 32-23.467 53.333-25.6l12.8-155.733L548.267 409.6c6.4 0 12.8 2.133 17.066 2.133l25.6-25.6-6.4 36.267c6.4 2.133 8.534 6.4 14.934 12.8l93.866-59.733-76.8 83.2c6.4 8.533 12.8 21.333 14.934 36.266l46.933 2.134-46.933 17.066v32L686.933 576l-55.466-6.4v46.933L763.733 768 595.2 616.533z" fill="#CCF2F6"/></svg>