<svg class="icon" width="128" height="128" viewBox="0 0 1024 1024" xmlns="http://www.w3.org/2000/svg"><path d="M810.667 277.333h-64c-117.334 0-213.334 96-213.334 213.334S629.333 704 746.667 704h64C928 704 1024 608 1024 490.667s-96-213.334-213.333-213.334zm0 341.334h-64c-70.4 0-128-57.6-128-128s57.6-128 128-128h64c70.4 0 128 57.6 128 128s-57.6 128-128 128zM277.333 277.333h-64C96 277.333 0 373.333 0 490.667S96 704 213.333 704h64c117.334 0 213.334-96 213.334-213.333s-96-213.334-213.334-213.334zm0 341.334h-64c-70.4 0-128-57.6-128-128s57.6-128 128-128h64c70.4 0 128 57.6 128 128s-57.6 128-128 128z" fill="#1976D2"/><path d="M704 448H320c-23.467 0-42.667 19.2-42.667 42.667s19.2 42.666 42.667 42.666h384c23.467 0 42.667-19.2 42.667-42.666S727.467 448 704 448z" fill="#42A5F5"/></svg>