<svg class="icon" width="128" height="128" viewBox="0 0 1024 1024" xmlns="http://www.w3.org/2000/svg"><path d="M213.333 874.667V149.333c0-46.933 38.4-85.333 85.334-85.333h426.666c46.934 0 85.334 38.4 85.334 85.333v725.334c0 46.933-38.4 85.333-85.334 85.333H298.667c-46.934 0-85.334-38.4-85.334-85.333z" fill="#37474F"/><path d="M725.333 128H298.667c-12.8 0-21.334 8.533-21.334 21.333v725.334c0 12.8 8.534 21.333 21.334 21.333h426.666c12.8 0 21.334-8.533 21.334-21.333V149.333c0-12.8-8.534-21.333-21.334-21.333z" fill="#BBDEFB"/><path d="M618.667 640H405.333c-12.8 0-21.333-8.533-21.333-21.333v-128c0-12.8 8.533-21.334 21.333-21.334h213.334c12.8 0 21.333 8.534 21.333 21.334v128c0 12.8-8.533 21.333-21.333 21.333z" fill="#3F51B5"/><path d="M512 341.333c-46.933 0-85.333 38.4-85.333 85.334v64h42.666v-64C469.333 403.2 488.533 384 512 384s42.667 19.2 42.667 42.667v64h42.666v-64c0-46.934-38.4-85.334-85.333-85.334z" fill="#3F51B5"/></svg>