<svg class="icon" width="128" height="128" viewBox="0 0 1024 1024" xmlns="http://www.w3.org/2000/svg"><path d="M512 85.333c-117.333 0-213.333 96-213.333 213.334V384H384v-85.333c0-70.4 57.6-128 128-128s128 57.6 128 128V384h85.333v-85.333c0-117.334-96-213.334-213.333-213.334z" fill="#424242"/><path d="M768 938.667H256c-46.933 0-85.333-38.4-85.333-85.334v-384C170.667 422.4 209.067 384 256 384h512c46.933 0 85.333 38.4 85.333 85.333v384c0 46.934-38.4 85.334-85.333 85.334z" fill="#FB8C00"/><path d="M448 661.333a64 64 0 10128 0 64 64 0 10-128 0z" fill="#C76E00"/></svg>