<svg class="icon" width="128" height="128" viewBox="0 0 1024 1024" xmlns="http://www.w3.org/2000/svg"><path d="M149.333 213.333h725.334c46.933 0 85.333 38.4 85.333 85.334v426.666c0 46.934-38.4 85.334-85.333 85.334H149.333c-46.933 0-85.333-38.4-85.333-85.334V298.667c0-46.934 38.4-85.334 85.333-85.334z" fill="#37474F"/><path d="M896 725.333V298.667c0-12.8-8.533-21.334-21.333-21.334H149.333c-12.8 0-21.333 8.534-21.333 21.334v426.666c0 12.8 8.533 21.334 21.333 21.334h725.334c12.8 0 21.333-8.534 21.333-21.334z" fill="#BBDEFB"/><path d="M618.667 661.333H405.333C392.533 661.333 384 652.8 384 640V512c0-12.8 8.533-21.333 21.333-21.333h213.334c12.8 0 21.333 8.533 21.333 21.333v128c0 12.8-8.533 21.333-21.333 21.333z" fill="#3F51B5"/><path d="M512 362.667c-46.933 0-85.333 38.4-85.333 85.333v64h42.666v-64c0-23.467 19.2-42.667 42.667-42.667s42.667 19.2 42.667 42.667v64h42.666v-64c0-46.933-38.4-85.333-85.333-85.333z" fill="#3F51B5"/></svg>