<svg class="icon" width="128" height="128" viewBox="0 0 1024 1024" xmlns="http://www.w3.org/2000/svg"><path d="M725.333 554.667a85.333 85.333 0 10170.667 0 85.333 85.333 0 10-170.667 0zm-597.333 0a85.333 85.333 0 10170.667 0 85.333 85.333 0 10-170.667 0z" fill="#FFCC80"/><path d="M832 405.333c0-270.933-640-177.066-640 0v213.334c0 177.066 142.933 320 320 320s320-142.934 320-320V405.333z" fill="#FFCC80"/><path d="M512 85.333c-187.733 0-341.333 153.6-341.333 341.334v74.666l44.8 12.8v-108.8l416-134.4 174.933 134.4v108.8l44.8-12.8v-74.666c2.133-160-113.067-341.334-339.2-341.334z" fill="#FFCC80"/><path d="M512 501.333V266.667L652.8 384z" fill="#FF5722"/><path d="M616.533 520.533c0 4.267 2.134 8.534 2.134 12.8C618.667 593.067 571.733 640 512 640s-106.667-46.933-106.667-106.667S452.267 426.667 512 426.667c14.933 0 29.867 4.266 42.667 8.533v-89.6c-12.8-2.133-27.734-4.267-42.667-4.267-106.667 0-192 85.334-192 192s85.333 192 192 192 192-85.333 192-192c0-25.6-4.267-51.2-14.933-72.533l-72.534 59.733z" fill="#FF5722"/></svg>