<svg class="icon" width="128" height="128" viewBox="0 0 1024 1024" xmlns="http://www.w3.org/2000/svg"><path d="M512 789.333l-106.667-128v-128h213.334v128z" fill="#FF9800"/><path d="M661.333 405.333a42.667 42.667 0 1085.334 0 42.667 42.667 0 10-85.334 0zm-384 0a42.667 42.667 0 1085.334 0 42.667 42.667 0 10-85.334 0z" fill="#FFA726"/><path d="M704 277.333c0-162.133-384-106.666-384 0v149.334c0 106.666 85.333 192 192 192s192-85.334 192-192V277.333z" fill="#FFB74D"/><path d="M512 85.333c-130.133 0-213.333 104.534-213.333 234.667v49.067l42.666 36.266V298.667l256-85.334 85.334 85.334v106.666l42.666-36.266V320c0-85.333-21.333-170.667-128-192L576 85.333h-64z" fill="#FF5722"/><path d="M576 405.333a21.333 21.333 0 1042.667 0 21.333 21.333 0 10-42.667 0zm-170.667 0a21.333 21.333 0 1042.667 0 21.333 21.333 0 10-42.667 0z" fill="#784719"/><path d="M618.667 661.333L512 682.667l-106.667-21.334S170.667 704 170.667 938.667h682.666c0-234.667-234.666-277.334-234.666-277.334z" fill="#CFD8DC"/><path d="M490.667 746.667l-21.334 192h85.334l-21.334-192 21.334-21.334L512 682.667l-42.667 42.666z" fill="#3F51B5"/></svg>