<svg class="icon" width="128" height="128" viewBox="0 0 1024 1024" xmlns="http://www.w3.org/2000/svg"><path d="M452.267 955.733l-384-384c-34.134-34.133-34.134-87.466 0-121.6l384-384C486.4 32 539.733 32 573.867 66.133l384 384c34.133 34.134 34.133 87.467 0 121.6l-384 384c-34.134 34.134-89.6 34.134-121.6 0z" fill="#FFC107"/><path d="M469.333 512a42.667 42.667 0 1085.334 0 42.667 42.667 0 10-85.334 0zM640 512a42.667 42.667 0 1085.333 0A42.667 42.667 0 10640 512zm-341.333 0A42.667 42.667 0 10384 512a42.667 42.667 0 10-85.333 0z" fill="#37474F"/></svg>