<svg class="icon" width="128" height="128" viewBox="0 0 1024 1024" xmlns="http://www.w3.org/2000/svg"><path d="M840.533 490.667l-17.066-85.334-268.8 55.467V170.667h-85.334v262.4l-296.533-192-46.933 72.533 324.266 209.067-249.6 326.4 68.267 51.2 241.067-315.734 179.2 270.934 72.533-46.934-179.2-266.666z" fill="#CFD8DC"/><path d="M362.667 512a149.333 149.333 0 10298.666 0 149.333 149.333 0 10-298.666 0z" fill="#3F51B5"/><path d="M405.333 170.667a106.667 106.667 0 10213.334 0 106.667 106.667 0 10-213.334 0zm320 277.333a106.667 106.667 0 10213.334 0 106.667 106.667 0 10-213.334 0zM42.667 277.333a106.667 106.667 0 10213.333 0 106.667 106.667 0 10-213.333 0zM128 874.667a106.667 106.667 0 10213.333 0 106.667 106.667 0 10-213.333 0zM618.667 832A106.667 106.667 0 10832 832a106.667 106.667 0 10-213.333 0z" fill="#00BCD4"/></svg>