<svg class="icon" width="128" height="128" viewBox="0 0 1024 1024" xmlns="http://www.w3.org/2000/svg"><path d="M646.4 275.2L512 409.6 334.933 232.533 275.2 292.267l236.8 236.8 194.133-194.134z" fill="#F44336"/><path d="M768 405.333l-192-192h192z" fill="#F44336"/><path d="M949.333 657.067l-51.2-51.2C716.8 428.8 281.6 454.4 125.867 605.867l-51.2 51.2c-14.934 14.933-14.934 36.266 0 51.2l102.4 100.266c14.933 14.934 36.266 14.934 51.2 0l113.066-108.8-8.533-119.466c36.267-36.267 322.133-36.267 358.4 0L684.8 704l108.8 104.533c14.933 14.934 36.267 14.934 51.2 0l102.4-100.266c17.067-14.934 17.067-38.4 2.133-51.2z" fill="#009688"/></svg>