<svg class="icon" width="128" height="128" viewBox="0 0 1024 1024" xmlns="http://www.w3.org/2000/svg"><path d="M853.333 874.667H170.667c-46.934 0-85.334-38.4-85.334-85.334V343.467c0-27.734 12.8-53.334 36.267-70.4L512 0l390.4 273.067c23.467 14.933 36.267 42.666 36.267 70.4v445.866c0 46.934-38.4 85.334-85.334 85.334z" fill="#78909C"/><path d="M298.667 21.333h426.666v661.334H298.667z" fill="#AED581"/><path d="M277.333 0v704h469.334V0H277.333zM704 661.333H320V42.667h384v618.666z" fill="#558B2F"/><path d="M725.333 64c0 36.267-6.4 64-42.666 64s-64-27.733-64-64 27.733-42.667 64-42.667 42.666 6.4 42.666 42.667zm-384-42.667c36.267 0 64 6.4 64 42.667s-27.733 64-64 64-42.666-27.733-42.666-64 6.4-42.667 42.666-42.667zm128 149.334a42.667 42.667 0 1085.334 0 42.667 42.667 0 10-85.334 0zm-85.333 256a128 128 0 10256 0 128 128 0 10-256 0z" fill="#558B2F"/><path d="M853.333 874.667H170.667c-46.934 0-85.334-38.4-85.334-85.334V362.667L512 640l426.667-277.333v426.666c0 46.934-38.4 85.334-85.334 85.334z" fill="#CFD8DC"/></svg>