<svg class="icon" width="128" height="128" viewBox="0 0 1024 1024" xmlns="http://www.w3.org/2000/svg"><path d="M853.333 746.667v106.666H170.667V746.667H85.333v106.666c0 46.934 38.4 85.334 85.334 85.334h682.666c46.934 0 85.334-38.4 85.334-85.334V746.667h-85.334z" fill="#90A4AE"/><path d="M512 499.2L362.667 320h298.666z" fill="#1565C0"/><path d="M469.333 85.333h85.334V384h-85.334zM672 573.867l-14.933 23.466 74.666 40.534 12.8-25.6C778.667 548.267 800 512 819.2 501.333c19.2-10.666 55.467-10.666 119.467-10.666v-85.334c-164.267 0-179.2 8.534-266.667 168.534z" fill="#1565C0"/><path d="M819.2 661.333l-192 85.334-29.867-213.334zM352 573.867l12.8 25.6L290.133 640l-12.8-25.6c-34.133-64-55.466-100.267-74.666-110.933-17.067-12.8-53.334-12.8-117.334-12.8v-85.334c164.267 0 179.2 8.534 266.667 168.534z" fill="#1565C0"/><path d="M426.667 533.333L396.8 746.667l-192-85.334z" fill="#1565C0"/></svg>