<svg class="icon" width="128" height="128" viewBox="0 0 1024 1024" xmlns="http://www.w3.org/2000/svg"><path d="M85.333 661.333V170.667c0-46.934 38.4-85.334 85.334-85.334h256c46.933 0 85.333 38.4 85.333 85.334v490.666c0 46.934-38.4 85.334-85.333 85.334h-256c-46.934 0-85.334-38.4-85.334-85.334z" fill="#455A64"/><path d="M426.667 149.333h-256c-12.8 0-21.334 8.534-21.334 21.334v448c0 12.8 8.534 21.333 21.334 21.333h256c12.8 0 21.333-8.533 21.333-21.333v-448c0-12.8-8.533-21.334-21.333-21.334z" fill="#BBDEFB"/><path d="M266.667 693.333a32 32 0 1064 0 32 32 0 10-64 0z" fill="#37474F"/><path d="M298.667 768V277.333C298.667 230.4 337.067 192 384 192h256c46.933 0 85.333 38.4 85.333 85.333V768c0 46.933-38.4 85.333-85.333 85.333H384c-46.933 0-85.333-38.4-85.333-85.333z" fill="#546E7A"/><path d="M640 256H384c-12.8 0-21.333 8.533-21.333 21.333v448c0 12.8 8.533 21.334 21.333 21.334h256c12.8 0 21.333-8.534 21.333-21.334v-448c0-12.8-8.533-21.333-21.333-21.333z" fill="#BBDEFB"/><path d="M480 800a32 32 0 1064 0 32 32 0 10-64 0z" fill="#37474F"/><path d="M512 853.333V384c0-46.933 38.4-85.333 85.333-85.333h256c46.934 0 85.334 38.4 85.334 85.333v469.333c0 46.934-38.4 85.334-85.334 85.334h-256c-46.933 0-85.333-38.4-85.333-85.334z" fill="#E38939"/><path d="M853.333 362.667h-256C584.533 362.667 576 371.2 576 384v426.667c0 12.8 8.533 21.333 21.333 21.333h256c12.8 0 21.334-8.533 21.334-21.333V384c0-12.8-8.534-21.333-21.334-21.333z" fill="#FFF3E0"/><path d="M693.333 885.333a32 32 0 1064 0 32 32 0 10-64 0z" fill="#A6642A"/></svg>