<svg class="icon" width="128" height="128" viewBox="0 0 1024 1024" xmlns="http://www.w3.org/2000/svg"><path d="M896 874.667H256c-46.933 0-85.333-38.4-85.333-85.334V362.667c0-46.934 38.4-85.334 85.333-85.334h640c46.933 0 85.333 38.4 85.333 85.334v426.666c0 46.934-38.4 85.334-85.333 85.334z" fill="#455A64"/><path d="M768 768H128c-46.933 0-85.333-38.4-85.333-85.333V256c0-46.933 38.4-85.333 85.333-85.333h640c46.933 0 85.333 38.4 85.333 85.333v426.667C853.333 729.6 814.933 768 768 768z" fill="#78909C"/><path d="M341.333 469.333a213.333 213.333 0 10426.667 0 213.333 213.333 0 10-426.667 0z" fill="#455A64"/><path d="M405.333 469.333a149.333 149.333 0 10298.667 0 149.333 149.333 0 10-298.667 0z" fill="#42A5F5"/><path d="M633.6 420.267C612.267 396.8 584.533 384 554.667 384s-59.734 12.8-78.934 36.267c-8.533 8.533-6.4 21.333 2.134 29.866 8.533 8.534 21.333 6.4 29.866-2.133 25.6-27.733 70.4-27.733 96 0 4.267 4.267 10.667 6.4 14.934 6.4 4.266 0 10.666-2.133 14.933-6.4 8.533-6.4 8.533-19.2 0-27.733z" fill="#90CAF9"/><path d="M128 256h128v64H128z" fill="#ADD8FB"/></svg>