<svg class="icon" width="128" height="128" viewBox="0 0 1024 1024" xmlns="http://www.w3.org/2000/svg"><path d="M85.333 597.333V170.667c0-46.934 38.4-85.334 85.334-85.334H768c46.933 0 85.333 38.4 85.333 85.334v426.666c0 46.934-38.4 85.334-85.333 85.334H170.667c-46.934 0-85.334-38.4-85.334-85.334z" fill="#546E7A"/><path d="M768 149.333H170.667c-12.8 0-21.334 8.534-21.334 21.334v426.666c0 12.8 8.534 21.334 21.334 21.334H768c12.8 0 21.333-8.534 21.333-21.334V170.667c0-12.8-8.533-21.334-21.333-21.334z" fill="#BBDEFB"/><path d="M810.667 704H128c-46.933 0-85.333-38.4-85.333-85.333H896C896 665.6 857.6 704 810.667 704z" fill="#37474F"/><path d="M512 853.333v-512C512 294.4 550.4 256 597.333 256h256c46.934 0 85.334 38.4 85.334 85.333v512c0 46.934-38.4 85.334-85.334 85.334h-256c-46.933 0-85.333-38.4-85.333-85.334z" fill="#E38939"/><path d="M853.333 320h-256c-12.8 0-21.333 8.533-21.333 21.333v469.334c0 12.8 8.533 21.333 21.333 21.333h256c12.8 0 21.334-8.533 21.334-21.333V341.333c0-12.8-8.534-21.333-21.334-21.333z" fill="#FFF3E0"/><path d="M693.333 885.333a32 32 0 1064 0 32 32 0 10-64 0z" fill="#A6642A"/></svg>