<svg class="icon" width="128" height="128" viewBox="0 0 1024 1024" xmlns="http://www.w3.org/2000/svg"><path d="M725.333 554.667a85.333 85.333 0 10170.667 0 85.333 85.333 0 10-170.667 0zm-597.333 0a85.333 85.333 0 10170.667 0 85.333 85.333 0 10-170.667 0z" fill="#FFCC80"/><path d="M832 405.333c0-270.933-640-177.066-640 0v213.334c0 177.066 142.933 320 320 320s320-142.934 320-320V405.333z" fill="#FFCC80"/><path d="M512 85.333c-187.733 0-341.333 153.6-341.333 341.334v74.666l44.8 12.8v-108.8l416-134.4 174.933 134.4v108.8l44.8-12.8v-74.666c2.133-160-113.067-341.334-339.2-341.334z" fill="#FFCC80"/><path d="M469.333 533.333a42.667 42.667 0 1085.334 0 42.667 42.667 0 10-85.334 0zm170.667 0a42.667 42.667 0 1085.333 0 42.667 42.667 0 10-85.333 0zm-341.333 0a42.667 42.667 0 1085.333 0 42.667 42.667 0 10-85.333 0z" fill="#37474F"/></svg>