<svg class="icon" width="128" height="128" viewBox="0 0 1024 1024" xmlns="http://www.w3.org/2000/svg"><path d="M682.667 320v597.333H213.333C166.4 917.333 128 878.933 128 832V320h554.667z" fill="#FF5722"/><path d="M298.667 106.667V832c0 46.933-38.4 85.333-85.334 85.333H832c46.933 0 85.333-38.4 85.333-85.333V106.667H298.667z" fill="#FFCCBC"/><path d="M426.667 213.333h384v85.334h-384zm0 149.334h170.666v42.666H426.667zm213.333 0h170.667v42.666H640zM426.667 448h170.666v42.667H426.667zM640 448h170.667v42.667H640zm-213.333 85.333h170.666V576H426.667zm213.333 0h170.667V576H640zm-213.333 85.334h170.666v42.666H426.667zm213.333 0h170.667v42.666H640zM426.667 704h170.666v42.667H426.667zM640 704h170.667v42.667H640zm-213.333 85.333h170.666V832H426.667zm213.333 0h170.667V832H640z" fill="#FF5722"/></svg>