<svg class="icon" width="128" height="128" viewBox="0 0 1024 1024" xmlns="http://www.w3.org/2000/svg"><path d="M915.2 134.4c14.933 23.467 23.467 49.067 23.467 78.933 0 83.2-66.134 149.334-149.334 149.334-14.933 0-27.733-2.134-40.533-6.4 25.6 42.666 72.533 70.4 125.867 70.4 83.2 0 149.333-66.134 149.333-149.334 0-68.266-44.8-125.866-108.8-142.933z" fill="#40C4FF"/><path d="M618.667 405.333a42.667 42.667 0 1085.333 0 42.667 42.667 0 10-85.333 0zm-384 0a42.667 42.667 0 1085.333 0 42.667 42.667 0 10-85.333 0zm234.666 384l-106.666-128v-128H576v128z" fill="#B39DDB"/><path d="M661.333 277.333c0-162.133-384-106.666-384 0v149.334c0 106.666 85.334 192 192 192s192-85.334 192-192V277.333z" fill="#D1C4E9"/><path d="M533.333 405.333a21.333 21.333 0 1042.667 0 21.333 21.333 0 10-42.667 0zm-170.666 0a21.333 21.333 0 1042.666 0 21.333 21.333 0 10-42.666 0z" fill="#673AB7"/><path d="M469.333 85.333C339.2 85.333 256 189.867 256 320v49.067l42.667 36.266V298.667l256-85.334L640 298.667v106.666l42.667-36.266V320c0-85.333-21.334-170.667-128-192l-21.334-42.667h-64zm106.667 576s-42.667 21.334-106.667 21.334-106.666-21.334-106.666-21.334S128 704 128 938.667h682.667C810.667 704 576 661.333 576 661.333z" fill="#673AB7"/></svg>