<svg class="icon" width="128" height="128" viewBox="0 0 1024 1024" xmlns="http://www.w3.org/2000/svg"><path d="M789.333 469.333c0-164.266-140.8-294.4-309.333-275.2-128 14.934-230.4 117.334-243.2 245.334-10.667 98.133 29.867 185.6 98.133 241.066C364.8 706.133 384 742.4 384 782.933v6.4h256V787.2c0-38.4 17.067-76.8 46.933-102.4 61.867-51.2 102.4-128 102.4-215.467z" fill="#FBC02D"/><path d="M652.8 430.933l-64-42.666c-6.4-4.267-17.067-4.267-23.467 0L512 422.4l-51.2-34.133c-6.4-4.267-17.067-4.267-23.467 0l-64 42.666c-4.266 4.267-8.533 8.534-8.533 14.934s0 12.8 4.267 17.066L450.133 563.2v226.133H492.8V554.667c0-4.267-2.133-8.534-4.267-12.8l-70.4-87.467 32-21.333 51.2 34.133c6.4 4.267 17.067 4.267 23.467 0l51.2-34.133 32 21.333-70.4 87.467c-2.133 4.266-4.267 8.533-4.267 12.8v234.666H576V563.2l81.067-100.267c4.266-4.266 6.4-10.666 4.266-17.066s-4.266-12.8-8.533-14.934z" fill="#FFF59D"/><path d="M448 938.667a64 64 0 10128 0 64 64 0 10-128 0z" fill="#5C6BC0"/><path d="M554.667 960h-85.334C422.4 960 384 921.6 384 874.667V768h256v106.667C640 921.6 601.6 960 554.667 960z" fill="#9FA8DA"/><path d="M640 874.667L392.533 908.8c6.4 14.933 19.2 29.867 34.134 38.4L627.2 919.467c8.533-12.8 12.8-27.734 12.8-44.8zM384 825.6v42.667L640 832v-42.667z" fill="#5C6BC0"/><path d="M76.01 136.448l60.31-60.33 809.941 809.94-60.33 60.331z" fill="#37474F"/></svg>