<svg class="icon" width="128" height="128" viewBox="0 0 1024 1024" xmlns="http://www.w3.org/2000/svg"><path d="M170.667 832V192c0-70.4 57.6-128 128-128h426.666c70.4 0 128 57.6 128 128v640c0 70.4-57.6 128-128 128H298.667c-70.4 0-128-57.6-128-128z" fill="#90A4AE"/><path d="M725.333 149.333H298.667C275.2 149.333 256 168.533 256 192v554.667c0 23.466 19.2 42.666 42.667 42.666h426.666c23.467 0 42.667-19.2 42.667-42.666V192c0-23.467-19.2-42.667-42.667-42.667z" fill="#ECEFF1"/><path d="M341.333 256h341.334v64H341.333zm0 149.333h341.334V448H341.333zm0 85.334h256v42.666h-256zm0 85.333h341.334v42.667H341.333zm0 85.333h256V704h-256z" fill="#B0BEC5"/></svg>