<svg class="icon" width="128" height="128" viewBox="0 0 1024 1024" xmlns="http://www.w3.org/2000/svg"><path d="M810.667 704V106.667h-85.334V704h-128L768 917.333 938.667 704z" fill="#546E7A"/><path d="M349.867 426.667h-64v-243.2L211.2 206.933v-51.2L341.333 108.8h6.4v317.867zm64 490.666h-217.6v-42.666l102.4-108.8c8.533-8.534 14.933-17.067 19.2-23.467 4.266-6.4 10.666-12.8 12.8-19.2 4.266-6.4 6.4-10.667 6.4-17.067 2.133-4.266 2.133-10.666 2.133-14.933 0-14.933-4.267-25.6-10.667-34.133-6.4-8.534-17.066-12.8-29.866-12.8-6.4 0-14.934 2.133-19.2 4.266-6.4 2.134-10.667 6.4-14.934 10.667-4.266 4.267-6.4 10.667-8.533 17.067s-2.133 12.8-2.133 21.333h-64c0-14.933 2.133-27.733 8.533-40.533 4.267-12.8 12.8-23.467 21.333-34.134 10.667-8.533 21.334-17.066 34.134-23.466 12.8-6.4 29.866-8.534 46.933-8.534s32 2.134 44.8 6.4c12.8 4.267 23.467 10.667 32 17.067s14.933 17.067 19.2 27.733 6.4 23.467 6.4 38.4c0 10.667-2.133 21.334-4.267 29.867S390.4 736 384 746.667s-12.8 19.2-21.333 29.866c-8.534 10.667-19.2 21.334-29.867 32l-55.467 57.6h136.534v51.2z" fill="#2196F3"/></svg>