<svg class="icon" width="128" height="128" viewBox="0 0 1024 1024" xmlns="http://www.w3.org/2000/svg"><path d="M810.667 704V106.667h-85.334V704h-128L768 917.333 938.667 704z" fill="#546E7A"/><path d="M409.6 426.667H192V384l102.4-108.8c8.533-8.533 14.933-17.067 19.2-23.467 4.267-6.4 10.667-12.8 12.8-19.2 4.267-6.4 6.4-10.666 6.4-17.066 2.133-4.267 2.133-10.667 2.133-14.934 0-14.933-4.266-25.6-10.666-34.133-6.4-8.533-17.067-12.8-29.867-12.8-6.4 0-14.933 2.133-19.2 4.267-6.4 2.133-10.667 6.4-14.933 10.666-4.267 4.267-6.4 10.667-8.534 17.067s-2.133 12.8-2.133 21.333h-64c0-14.933 2.133-27.733 8.533-40.533 4.267-12.8 12.8-23.467 21.334-34.133C226.133 123.733 236.8 115.2 249.6 108.8c12.8-6.4 29.867-8.533 46.933-8.533 17.067 0 32 2.133 44.8 6.4 12.8 4.266 23.467 10.666 32 17.066s14.934 17.067 19.2 27.734c4.267 10.666 6.4 23.466 6.4 38.4 0 10.666-2.133 21.333-4.266 29.866s-8.534 19.2-14.934 29.867-12.8 19.2-21.333 29.867c-8.533 10.666-19.2 21.333-29.867 32L273.067 371.2H409.6v55.467zm-64 490.666h-64v-243.2L206.933 697.6v-51.2L339.2 599.467h6.4v317.866z" fill="#2196F3"/></svg>