<svg class="icon" width="128" height="128" viewBox="0 0 1024 1024" xmlns="http://www.w3.org/2000/svg"><path d="M298.667 277.333h-128v-38.4c0-14.933 10.666-25.6 25.6-25.6h76.8c14.933 0 25.6 10.667 25.6 25.6v38.4z" fill="#546E7A"/><path d="M853.333 853.333H170.667c-46.934 0-85.334-38.4-85.334-85.333V469.333h853.334V768c0 46.933-38.4 85.333-85.334 85.333z" fill="#5E35B1"/><path d="M270.933 469.333C262.4 497.067 256 524.8 256 554.667c0 140.8 115.2 256 256 256s256-115.2 256-256c0-29.867-6.4-57.6-14.933-85.334H270.933z" fill="#42257A"/><path d="M170.667 256h682.666c46.934 0 85.334 38.4 85.334 85.333v128H85.333v-128c0-46.933 38.4-85.333 85.334-85.333z" fill="#78909C"/><path d="M723.2 279.467H302.933l72.534-108.8c8.533-12.8 21.333-19.2 36.266-19.2h204.8c14.934 0 27.734 6.4 36.267 19.2l70.4 108.8z" fill="#78909C"/><path d="M753.067 469.333C718.933 369.067 622.933 298.667 512 298.667s-206.933 70.4-241.067 170.666h482.134z" fill="#455A64"/><path d="M320 554.667a192 192 0 10384 0 192 192 0 10-384 0z" fill="#B388FF"/><path d="M618.667 490.667c-25.6-29.867-64-46.934-102.4-46.934-38.4 0-76.8 17.067-102.4 46.934-10.667 10.666-8.534 27.733 2.133 38.4s27.733 8.533 38.4-2.134c32-36.266 91.733-36.266 123.733 0 6.4 6.4 12.8 8.534 21.334 8.534 6.4 0 12.8-2.134 19.2-6.4 8.533-8.534 10.666-27.734 0-38.4z" fill="#C7A7FF"/><path d="M768 320h106.667v85.333H768z" fill="#DBE2E5"/></svg>