<svg class="icon" width="128" height="128" viewBox="0 0 1024 1024" xmlns="http://www.w3.org/2000/svg"><path d="M277.333 640h469.334v256H277.333z" fill="#BF360C"/><path d="M128 554.667a85.333 85.333 0 10170.667 0 85.333 85.333 0 10-170.667 0zm597.333 0a85.333 85.333 0 10170.667 0 85.333 85.333 0 10-170.667 0z" fill="#FFA726"/><path d="M832 405.333c0-270.933-640-177.066-640 0v213.334c0 177.066 142.933 320 320 320s320-142.934 320-320V405.333z" fill="#FFB74D"/><path d="M597.333 554.667a42.667 42.667 0 1085.334 0 42.667 42.667 0 10-85.334 0zm-256 0a42.667 42.667 0 1085.334 0 42.667 42.667 0 10-85.334 0z" fill="#784719"/><path d="M512 42.667c-181.333 0-448 123.733-448 716.8L277.333 896V512l358.4-209.067L746.667 448v448L960 721.067C960 601.6 940.8 102.4 631.467 102.4L601.6 42.667H512z" fill="#FF5722"/><path d="M960 512c-12.8 0-21.333 8.533-21.333 21.333V384c0-187.733-153.6-341.333-341.334-341.333h-192C392.533 42.667 384 51.2 384 64s8.533 21.333 21.333 21.333h192C761.6 85.333 896 219.733 896 384v213.333c0 12.8 8.533 21.334 21.333 21.334s21.334-8.534 21.334-21.334V640c0 83.2-66.134 149.333-149.334 149.333H512c-12.8 0-21.333 8.534-21.333 21.334S499.2 832 512 832h277.333c106.667 0 192-85.333 192-192V533.333c0-12.8-8.533-21.333-21.333-21.333z" fill="#757575"/><path d="M960 469.333h-21.333C915.2 469.333 896 488.533 896 512v85.333C896 620.8 915.2 640 938.667 640H960c23.467 0 42.667-19.2 42.667-42.667V512c0-23.467-19.2-42.667-42.667-42.667zM469.333 810.667a42.667 42.667 0 1085.334 0 42.667 42.667 0 10-85.334 0z" fill="#37474F"/></svg>