<svg class="icon" width="128" height="128" viewBox="0 0 1024 1024" xmlns="http://www.w3.org/2000/svg"><path d="M810.667 256H469.333L384 170.667H170.667c-46.934 0-85.334 38.4-85.334 85.333v512c0 46.933 38.4 85.333 85.334 85.333H832c36.267 0 64-27.733 64-64v-448C896 294.4 857.6 256 810.667 256z" fill="#FFA000"/><path d="M900.267 384H326.4c-40.533 0-76.8 29.867-83.2 70.4l-72.533 398.933h676.266c40.534 0 76.8-29.866 83.2-70.4l53.334-298.666C994.133 433.067 953.6 384 900.267 384z" fill="#FFCA28"/></svg>