<svg class="icon" width="128" height="128" viewBox="0 0 1024 1024" xmlns="http://www.w3.org/2000/svg"><path d="M896 896H128V213.333C128 166.4 166.4 128 213.333 128h597.334C857.6 128 896 166.4 896 213.333V896z" fill="#90CAF9"/><path d="M128 896h768v42.667H128z" fill="#64B5F6"/><path d="M661.333 576h128v106.667h-128zM448 576h128v106.667H448zm-213.333 0h128v106.667h-128zm426.666 170.667h128v106.666h-128zm-426.666 0h128v106.666h-128zm426.666-341.334h128V512h-128zm-213.333 0h128V512H448zm-213.333 0h128V512h-128zm426.666-170.666h128v106.666h-128zm-213.333 0h128v106.666H448zm-213.333 0h128v106.666h-128zm213.333 512h128v192H448z" fill="#1565C0"/></svg>