<svg class="icon" width="128" height="128" viewBox="0 0 1024 1024" xmlns="http://www.w3.org/2000/svg"><path d="M256 853.333V426.667h682.667v426.666c0 46.934-38.4 85.334-85.334 85.334h-512c-46.933 0-85.333-38.4-85.333-85.334z" fill="#CFD8DC"/><path d="M938.667 341.333v128H256v-128C256 294.4 294.4 256 341.333 256h512c46.934 0 85.334 38.4 85.334 85.333z" fill="#78909C"/><path d="M725.333 341.333a64 64 0 10128 0 64 64 0 10-128 0zm-362.666 0a64 64 0 10128 0 64 64 0 10-128 0z" fill="#37474F"/><path d="M789.333 213.333c-23.466 0-42.666 19.2-42.666 42.667v85.333c0 23.467 19.2 42.667 42.666 42.667S832 364.8 832 341.333V256c0-23.467-19.2-42.667-42.667-42.667zm-362.666 0C403.2 213.333 384 232.533 384 256v85.333C384 364.8 403.2 384 426.667 384s42.666-19.2 42.666-42.667V256c0-23.467-19.2-42.667-42.666-42.667z" fill="#B0BEC5"/><path d="M682.667 725.333H768v85.334h-85.333zm-128 0H640v85.334h-85.333zm-128 0H512v85.334h-85.333zm256-128H768v85.334h-85.333zm-128 0H640v85.334h-85.333zm-128 0H512v85.334h-85.333z" fill="#90A4AE"/><path d="M85.333 320a256 256 0 10512 0 256 256 0 10-512 0z" fill="#F44336"/><path d="M149.333 320a192 192 0 10384 0 192 192 0 10-384 0z" fill="#EEE"/><path d="M320 170.667h42.667V320H320z"/><path d="M437.717 386.133l-28.65 28.672-81.451-81.45 28.672-28.651z"/><path d="M309.333 320a32 32 0 1064 0 32 32 0 10-64 0z"/></svg>