<svg class="icon" width="128" height="128" viewBox="0 0 1024 1024" xmlns="http://www.w3.org/2000/svg"><path d="M541.867 119.467c-17.067-17.067-42.667-17.067-59.734 0l-256 256c-17.066 17.066-17.066 42.666 0 59.733 8.534 8.533 19.2 12.8 29.867 12.8s21.333-4.267 29.867-12.8l256-256c17.066-17.067 17.066-42.667 0-59.733z" fill="#2E7D32"/><path d="M797.867 375.467l-256-256c-17.067-17.067-42.667-17.067-59.734 0-17.066 17.066-17.066 42.666 0 59.733l256 256c8.534 8.533 19.2 12.8 29.867 12.8s21.333-4.267 29.867-12.8c17.066-17.067 17.066-42.667 0-59.733z" fill="#1B5E20"/><path d="M797.867 874.667H226.133c-21.333 0-38.4-14.934-42.666-34.134L106.667 448h810.666L838.4 840.533c-4.267 19.2-21.333 34.134-40.533 34.134z" fill="#388E3C"/><path d="M917.333 490.667H106.667C83.2 490.667 64 471.467 64 448v-42.667c0-23.466 19.2-42.666 42.667-42.666h810.666c23.467 0 42.667 19.2 42.667 42.666V448c0 23.467-19.2 42.667-42.667 42.667z" fill="#4CAF50"/><path d="M657.067 529.067L488.533 697.6 409.6 616.533l-46.933 46.934 125.866 125.866L704 573.867z" fill="#DCEDC8"/></svg>