<svg class="icon" width="128" height="128" viewBox="0 0 1024 1024" xmlns="http://www.w3.org/2000/svg"><path d="M85.333 192v682.667s179.2-64 426.667-64 426.667 64 426.667 64V192S795.733 256 512 256 85.333 192 85.333 192z" fill="#F57C00"/><path d="M512 725.333h8.533L320 405.333 147.2 772.267c72.533-19.2 204.8-46.934 364.8-46.934z" fill="#942A09"/><path d="M512 725.333c70.4 0 134.4 4.267 192 12.8L533.333 486.4l-166.4 245.333c44.8-4.266 93.867-6.4 145.067-6.4z" fill="#BF360C"/><path d="M868.267 768l-121.6-202.667L640 731.733C736 740.267 814.933 755.2 868.267 768z" fill="#E65100"/><path d="M725.333 416a53.333 42.667 90 1085.334 0 53.333 42.667 90 10-85.334 0z" fill="#FFF9C4"/></svg>