<svg class="icon" width="128" height="128" viewBox="0 0 1024 1024" xmlns="http://www.w3.org/2000/svg"><path d="M213.333 192C166.4 192 128 230.4 128 277.333V832c0 46.933 38.4 85.333 85.333 85.333h341.334C601.6 917.333 640 878.933 640 832V277.333C640 230.4 601.6 192 554.667 192" fill="#673AB7"/><path d="M298.667 277.333h42.666V832h-42.666zM512 192v-42.667c0-25.6-17.067-42.666-42.667-42.666H298.667c-25.6 0-42.667 17.066-42.667 42.666V192h256z" fill="#311B92"/><path d="M640 277.333H341.333V832H640V277.333zm-192 512h-64V704h64v85.333zm0-384h-64V320h64v85.333zm128 384h-64V704h64v85.333zm-64-384V320h64v85.333h-64z" fill="#D84315"/><path d="M640 277.333V320h64v85.333h-64V704h64v85.333h-64V832h256V277.333H640zm192 512h-64V704h64v85.333zm0-384h-64V320h64v85.333z" fill="#FF5722"/></svg>