<svg class="icon" width="128" height="128" viewBox="0 0 1024 1024" xmlns="http://www.w3.org/2000/svg"><path d="M874.667 256H149.333L128 341.333l106.667 64-42.667-64h640l-42.667 64 106.667-64z" fill="#B0BEC5"/><path d="M192 341.333h640l-85.333 256H277.333z" fill="#78909C"/><path d="M426.667 597.333a85.333 85.333 0 10170.666 0 85.333 85.333 0 10-170.666 0zm256 0a85.333 85.333 0 10170.666 0 85.333 85.333 0 10-170.666 0zm-512 0a85.333 85.333 0 10170.666 0 85.333 85.333 0 10-170.666 0zm106.666 192a106.667 106.667 0 10213.334 0 106.667 106.667 0 10-213.334 0zm256 0a106.667 106.667 0 10213.334 0 106.667 106.667 0 10-213.334 0z" fill="#FFB74D"/></svg>