<svg class="icon" width="128" height="128" viewBox="0 0 1024 1024" xmlns="http://www.w3.org/2000/svg"><path d="M469.333 810.667c-102.4 0-106.666-149.334-106.666-149.334v-128H576v128s-4.267 149.334-106.667 149.334z" fill="#FF9800"/><path d="M618.667 405.333a42.667 42.667 0 1085.333 0 42.667 42.667 0 10-85.333 0zm-384 0a42.667 42.667 0 1085.333 0 42.667 42.667 0 10-85.333 0z" fill="#FFA726"/><path d="M661.333 277.333c0-162.133-384-106.666-384 0v149.334c0 106.666 85.334 192 192 192s192-85.334 192-192V277.333z" fill="#FFB74D"/><path d="M469.333 85.333C339.2 85.333 256 189.867 256 320v49.067l42.667 36.266V298.667l256-85.334L640 298.667v106.666l42.667-36.266V320c0-85.333-21.334-170.667-128-192l-21.334-42.667h-64z" fill="#424242"/><path d="M533.333 405.333a21.333 21.333 0 1042.667 0 21.333 21.333 0 10-42.667 0zm-170.666 0a21.333 21.333 0 1042.666 0 21.333 21.333 0 10-42.666 0z" fill="#784719"/><path d="M576 661.333S537.6 704 469.333 704s-106.666-42.667-106.666-42.667S128 704 128 938.667h682.667C810.667 704 576 661.333 576 661.333z" fill="#009688"/><path d="M874.603 86.72l149.333 149.333-149.333 149.312-149.334-149.333z" fill="#FF9800"/><path d="M768 128h213.333v213.333H768z" fill="#FF9800"/><path d="M810.667 234.667a64 64 0 10128 0 64 64 0 10-128 0z" fill="#FFEB3B"/></svg>