<svg class="icon" width="128" height="128" viewBox="0 0 1024 1024" xmlns="http://www.w3.org/2000/svg"><path d="M192 234.667h640v64H192z" fill="#424242"/><path d="M85.333 533.333h853.334V384c0-46.933-38.4-85.333-85.334-85.333H170.667c-46.934 0-85.334 38.4-85.334 85.333v149.333z" fill="#616161"/><path d="M170.667 768h682.666c46.934 0 85.334-38.4 85.334-85.333V512H85.333v170.667c0 46.933 38.4 85.333 85.334 85.333z" fill="#424242"/><path d="M832 384a21.333 21.333 0 1042.667 0A21.333 21.333 0 10832 384z" fill="#00E676"/><path d="M234.667 85.333h554.666v213.334H234.667z" fill="#90CAF9"/><path d="M800 661.333H224c-17.067 0-32-14.933-32-32s14.933-32 32-32h576c17.067 0 32 14.934 32 32s-14.933 32-32 32z" fill="#242424"/><path d="M234.667 661.333h554.666V896H234.667z" fill="#90CAF9"/><path d="M234.667 618.667h554.666v42.666H234.667z" fill="#42A5F5"/><path d="M341.333 704H704v42.667H341.333zm0 85.333h277.334V832H341.333z" fill="#1976D2"/></svg>