<svg class="icon" width="128" height="128" viewBox="0 0 1024 1024" xmlns="http://www.w3.org/2000/svg"><path fill="#333" d="M661.333 170.667L915.2 204.8 706.133 413.867zM362.667 853.333L108.8 819.2l209.067-209.067zm-192-490.666L204.8 108.8l209.067 209.067z"/><path fill="#333" d="M198.4 452.267l-89.6 17.066c-2.133 14.934-2.133 27.734-2.133 42.667 0 98.133 34.133 192 98.133 264.533l64-55.466C219.733 663.467 192 588.8 192 512c0-19.2 2.133-40.533 6.4-59.733zm313.6-345.6c-115.2 0-217.6 49.066-292.267 125.866l59.734 59.734C339.2 230.4 420.267 192 512 192c19.2 0 40.533 2.133 59.733 6.4l14.934-83.2c-23.467-6.4-49.067-8.533-74.667-8.533zm313.6 465.066l89.6-17.066c2.133-14.934 2.133-27.734 2.133-42.667 0-93.867-32-185.6-91.733-258.133L759.467 307.2C806.4 364.8 832 437.333 832 509.867c0 21.333-2.133 42.666-6.4 61.866zm-81.067 160C684.8 793.6 603.733 832 512 832c-19.2 0-40.533-2.133-59.733-6.4l-14.934 83.2c25.6 4.267 51.2 6.4 74.667 6.4 115.2 0 217.6-49.067 292.267-125.867l-59.734-57.6z"/><path fill="#333" d="M853.333 661.333L819.2 915.2 610.133 706.133z"/></svg>