<svg class="icon" width="128" height="128" viewBox="0 0 1024 1024" xmlns="http://www.w3.org/2000/svg"><path fill="#333" d="M832 320c0-46.933-38.4-85.333-85.333-85.333h-128c-14.934 0-23.467-17.067-14.934-29.867 12.8-21.333 19.2-46.933 12.8-74.667C608 87.467 576 53.333 535.467 44.8c-70.4-14.933-130.134 38.4-130.134 104.533 0 21.334 6.4 38.4 14.934 55.467 8.533 12.8 0 29.867-17.067 29.867h-128c-46.933 0-85.333 38.4-85.333 85.333v149.333c0 14.934 17.066 23.467 29.866 14.934 21.334-12.8 46.934-19.2 74.667-12.8C337.067 480 371.2 512 379.733 552.533c14.934 68.267-38.4 130.134-104.533 130.134-21.333 0-38.4-6.4-55.467-14.934-10.666-8.533-27.733 0-27.733 14.934v128C192 857.6 230.4 896 277.333 896h469.334C793.6 896 832 857.6 832 810.667V320z"/></svg>