<svg class="icon" width="128" height="128" viewBox="0 0 1024 1024" xmlns="http://www.w3.org/2000/svg"><path d="M768 938.667H170.667v-768h426.666L768 341.333z" fill="#42A5F5"/><path d="M853.333 853.333H256v-768h426.667L853.333 256z" fill="#90CAF9"/><path d="M821.333 277.333h-160v-160z" fill="#E1F5FE"/><path d="M522.667 603.733c0-100.266 76.8-93.866 76.8-153.6 0-14.933-4.267-44.8-42.667-44.8-42.667 0-44.8 34.134-44.8 42.667h-57.6c0-14.933 6.4-89.6 102.4-89.6 98.133 0 100.267 76.8 100.267 91.733 0 74.667-81.067 85.334-81.067 155.734h-53.333zM518.4 678.4c0-4.267 0-32 32-32 29.867 0 32 27.733 32 32 0 8.533-4.267 29.867-32 29.867s-32-21.334-32-29.867z" fill="#1976D2"/></svg>