<svg class="icon" width="128" height="128" viewBox="0 0 1024 1024" xmlns="http://www.w3.org/2000/svg"><path d="M819.2 277.333l-305.067-140.8-416 121.6 187.734 281.6-46.934 322.134H723.2L864 578.133l-44.8-300.8zM684.8 800H313.6L352 524.8 200.533 296.533 509.867 204.8l249.6 115.2 38.4 249.6L684.8 800z" fill="#CFD8DC"/><path d="M426.667 170.667a85.333 85.333 0 10170.666 0 85.333 85.333 0 10-170.666 0zm277.333 128a85.333 85.333 0 10170.667 0 85.333 85.333 0 10-170.667 0zM746.667 576a85.333 85.333 0 10170.666 0 85.333 85.333 0 10-170.666 0zM64 277.333a85.333 85.333 0 10170.667 0 85.333 85.333 0 10-170.667 0zM192 832a85.333 85.333 0 10170.667 0A85.333 85.333 0 10192 832zm42.667-298.667a85.333 85.333 0 10170.666 0 85.333 85.333 0 10-170.666 0zm384 298.667a85.333 85.333 0 10170.666 0 85.333 85.333 0 10-170.666 0z" fill="#00BCD4"/></svg>