<svg class="icon" width="128" height="128" viewBox="0 0 1024 1024" xmlns="http://www.w3.org/2000/svg"><path d="M853.333 853.333c-147.2 0-341.333 85.334-341.333 85.334V469.333S704 384 896 384l-42.667 469.333z" fill="#5C6BC0"/><path d="M170.667 853.333c147.2 0 341.333 85.334 341.333 85.334V469.333S320 384 128 384l42.667 469.333z" fill="#7986CB"/><path d="M341.333 256a170.667 170.667 0 10341.334 0 170.667 170.667 0 10-341.334 0zm533.334 426.667H896c12.8 0 21.333-8.534 21.333-21.334V576c0-12.8-8.533-21.333-21.333-21.333h-21.333c-36.267 0-64 27.733-64 64s27.733 64 64 64zm-725.334-128H128c-12.8 0-21.333 8.533-21.333 21.333v85.333c0 12.8 8.533 21.334 21.333 21.334h21.333c36.267 0 64-27.734 64-64s-27.733-64-64-64z" fill="#FFB74D"/></svg>