<svg class="icon" width="128" height="128" viewBox="0 0 1024 1024" xmlns="http://www.w3.org/2000/svg"><path d="M714.667 576C667.733 512 603.733 469.333 512 469.333S356.267 512 309.333 576h405.334z" fill="#2196F3"/><path d="M727.467 917.333H296.533c-23.466 0-40.533-17.066-42.666-40.533L236.8 599.467c0-23.467 19.2-44.8 42.667-44.8h465.066c25.6 0 44.8 21.333 42.667 44.8L770.133 876.8c-2.133 23.467-19.2 40.533-42.666 40.533z" fill="#546E7A"/><path d="M704 618.667a21.333 21.333 0 1042.667 0 21.333 21.333 0 10-42.667 0z" fill="#B0BEC5"/><path d="M341.333 256a170.667 170.667 0 10341.334 0 170.667 170.667 0 10-341.334 0zm2.134 648.533L320 928c-12.8 12.8-34.133 12.8-46.933 0l-70.4-70.4c-12.8-12.8-12.8-34.133 0-46.933l23.466-23.467c27.734-27.733 66.134-27.733 93.867 0l23.467 23.467c25.6 27.733 25.6 68.266 0 93.866zm337.066-93.866L704 787.2c27.733-27.733 66.133-27.733 93.867 0l23.466 23.467c12.8 12.8 12.8 34.133 0 46.933l-70.4 70.4c-12.8 12.8-34.133 12.8-46.933 0l-23.467-23.467c-25.6-25.6-25.6-66.133 0-93.866z" fill="#FFB74D"/></svg>