<svg class="icon" width="128" height="128" viewBox="0 0 1024 1024" xmlns="http://www.w3.org/2000/svg"><path fill="#333" d="M277.333 277.333c0-70.4 57.6-128 128-128h213.334c70.4 0 128 57.6 128 128H832C832 160 736 64 618.667 64H405.333C288 64 192 160 192 277.333v238.934h85.333V277.333z"/><path fill="#333" d="M98.133 469.333l136.534 179.2 136.533-179.2zm648.534 277.334c0 70.4-57.6 128-128 128H405.333c-70.4 0-128-57.6-128-128H192C192 864 288 960 405.333 960h213.334C736 960 832 864 832 746.667v-256h-85.333v256z"/><path fill="#333" d="M652.8 554.667l136.533-179.2 136.534 179.2z"/></svg>