<svg class="icon" width="128" height="128" viewBox="0 0 1024 1024" xmlns="http://www.w3.org/2000/svg"><path d="M64 512a448 448 0 10896 0 448 448 0 10-896 0z" fill="#9C27B0"/><path d="M533.333 571.733h-96v192H352V266.667h174.933c27.734 0 53.334 4.266 76.8 10.666 21.334 6.4 40.534 17.067 55.467 27.734 14.933 12.8 27.733 27.733 34.133 46.933s12.8 40.533 12.8 64c0 34.133-8.533 61.867-23.466 83.2-17.067 21.333-38.4 40.533-66.134 51.2l110.934 206.933v4.267h-91.734l-102.4-189.867zm-96-68.266h89.6c14.934 0 29.867-2.134 40.534-6.4C578.133 492.8 588.8 486.4 597.333 480c8.534-6.4 12.8-14.933 17.067-25.6 4.267-10.667 6.4-21.333 6.4-34.133 0-12.8-2.133-23.467-6.4-34.134-4.267-10.666-8.533-19.2-17.067-25.6-8.533-6.4-17.066-12.8-29.866-17.066-10.667-4.267-25.6-6.4-42.667-6.4h-87.467v166.4z" fill="#E1BEE7"/></svg>