<svg class="icon" width="128" height="128" viewBox="0 0 1024 1024" xmlns="http://www.w3.org/2000/svg"><path d="M853.333 874.667H170.667c-46.934 0-85.334-38.4-85.334-85.334V234.667c0-46.934 38.4-85.334 85.334-85.334h682.666c46.934 0 85.334 38.4 85.334 85.334v554.666c0 46.934-38.4 85.334-85.334 85.334z" fill="#8CBCD6"/><path d="M682.667 341.333a64 64 0 10128 0 64 64 0 10-128 0z" fill="#B3DDF5"/><path d="M426.667 341.333L192 682.667h469.333z" fill="#9AC9E3"/><path d="M661.333 469.333L490.667 682.667H832z" fill="#B3DDF5"/><path d="M597.333 810.667a213.333 213.333 0 10426.667 0 213.333 213.333 0 10-426.667 0z" fill="#F44336"/><path d="M923.947 878.528l-45.227 45.27-181.013-180.993 45.248-45.269z" fill="#FFF"/><path d="M742.805 923.947l-45.269-45.227 180.992-181.013 45.27 45.248z" fill="#FFF"/></svg>