<svg class="icon" width="128" height="128" viewBox="0 0 1024 1024" xmlns="http://www.w3.org/2000/svg"><path d="M258.133 896h108.8L352 388.267l-119.467 42.666z" fill="#455A64"/><path d="M672 213.333a106.667 106.667 0 10213.333 0 106.667 106.667 0 10-213.333 0z" fill="#FFB74D"/><path d="M234.667 896H128l38.4-499.2 136.533 49.067z" fill="#607D8B"/><path d="M676.267 339.2c-12.8-42.667-27.734-85.333-53.334-123.733C595.2 181.333 554.667 149.333 492.8 172.8c-66.133 27.733-196.267 76.8-238.933 96C204.8 292.267 166.4 326.4 166.4 394.667c0 72.533 91.733 113.066 91.733 113.066l313.6-130.133 36.267 96 113.067 2.133c0 2.134-32-93.866-44.8-136.533z" fill="#607D8B"/><path d="M808.533 896H640c-21.333 0-38.4-14.933-42.667-36.267l-55.466-364.8h362.666l-55.466 364.8c0 21.334-19.2 36.267-40.534 36.267z" fill="#B39DDB"/><path d="M896 512H554.667c-12.8 0-21.334-8.533-21.334-21.333s8.534-21.334 21.334-21.334H896c12.8 0 21.333 8.534 21.333 21.334S908.8 512 896 512z" fill="#7E57C2"/></svg>