<svg class="icon" width="128" height="128" viewBox="0 0 1024 1024" xmlns="http://www.w3.org/2000/svg"><path d="M874.667 810.667H149.333c-46.933 0-85.333-38.4-85.333-85.334V298.667c0-46.934 38.4-85.334 85.333-85.334h725.334c46.933 0 85.333 38.4 85.333 85.334v426.666c0 46.934-38.4 85.334-85.333 85.334z" fill="#37474F"/><path d="M128 298.667v426.666c0 12.8 8.533 21.334 21.333 21.334h725.334c12.8 0 21.333-8.534 21.333-21.334V298.667c0-12.8-8.533-21.334-21.333-21.334H149.333c-12.8 0-21.333 8.534-21.333 21.334z" fill="#F3E5F5"/><path d="M554.667 320L428.8 469.333h251.733z" fill="#9C27B0"/><path d="M512 448v128c0 23.467-19.2 42.667-42.667 42.667s-42.666-19.2-42.666-42.667v-42.667h-85.334V576c0 70.4 57.6 128 128 128s128-57.6 128-128V448H512z" fill="#9C27B0"/></svg>