<svg class="icon" width="128" height="128" viewBox="0 0 1024 1024" xmlns="http://www.w3.org/2000/svg"><path d="M213.333 874.667V149.333c0-46.933 38.4-85.333 85.334-85.333h426.666c46.934 0 85.334 38.4 85.334 85.333v725.334c0 46.933-38.4 85.333-85.334 85.333H298.667c-46.934 0-85.334-38.4-85.334-85.333z" fill="#37474F"/><path d="M725.333 128H298.667c-12.8 0-21.334 8.533-21.334 21.333v725.334c0 12.8 8.534 21.333 21.334 21.333h426.666c12.8 0 21.334-8.533 21.334-21.333V149.333c0-12.8-8.534-21.333-21.334-21.333z" fill="#F3E5F5"/><path d="M469.333 725.333L595.2 576H343.467z" fill="#9C27B0"/><path d="M554.667 341.333c-70.4 0-128 57.6-128 128v128H512v-128c0-23.466 19.2-42.666 42.667-42.666s42.666 19.2 42.666 42.666V512h85.334v-42.667c0-70.4-57.6-128-128-128z" fill="#9C27B0"/></svg>