<svg class="icon" width="128" height="128" viewBox="0 0 1024 1024" xmlns="http://www.w3.org/2000/svg"><path d="M284.245 960.064L64.043 739.84 739.755 64.15l220.202 220.223z" fill="#FFA000"/><path d="M486.464 516.01l-99.541-99.54 30.165-30.166 99.541 99.541zm42.88-127.786l-55.808-55.808 30.165-30.165 55.808 55.808zm127.808-42.88l-99.541-99.541 30.165-30.166 99.541 99.542zm-13.845-184.427l30.186-30.165 55.787 55.808-30.165 30.165zm-455.36 568.64l-55.808-55.808 30.165-30.165 55.808 55.808zm127.808-42.88l-99.542-99.541 30.166-30.165 99.541 99.541zm42.901-127.786l-55.808-55.808 30.165-30.166 55.808 55.808z" fill="#9E6400"/></svg>