<svg class="icon" width="128" height="128" viewBox="0 0 1024 1024" xmlns="http://www.w3.org/2000/svg"><path d="M170.667 832h128v64h-128zm554.666 0h128v64h-128z" fill="#455A64"/><path d="M853.333 874.667H170.667c-46.934 0-85.334-38.4-85.334-85.334V234.667c0-46.934 38.4-85.334 85.334-85.334h682.666c46.934 0 85.334 38.4 85.334 85.334v554.666c0 46.934-38.4 85.334-85.334 85.334z" fill="#78909C"/><path d="M853.333 810.667H170.667c-12.8 0-21.334-8.534-21.334-21.334V234.667c0-12.8 8.534-21.334 21.334-21.334h682.666c12.8 0 21.334 8.534 21.334 21.334v554.666c0 12.8-8.534 21.334-21.334 21.334z" fill="#90A4AE"/><path d="M618.667 298.667c-117.334 0-213.334 96-213.334 213.333s96 213.333 213.334 213.333S832 629.333 832 512s-96-213.333-213.333-213.333zm0 362.666c-83.2 0-149.334-66.133-149.334-149.333s66.134-149.333 149.334-149.333S768 428.8 768 512s-66.133 149.333-149.333 149.333z" fill="#37474F"/><path d="M753.067 407.467l8.533-8.534c8.533-8.533 8.533-21.333 0-29.866s-21.333-8.534-29.867 0L723.2 377.6c10.667 8.533 21.333 19.2 29.867 29.867zm-268.8 0c8.533-10.667 19.2-21.334 29.866-29.867l-8.533-8.533c-8.533-8.534-21.333-8.534-29.867 0s-8.533 21.333 0 29.866l8.534 8.534zM448 512c0-6.4 0-14.933 2.133-21.333h-12.8C424.533 490.667 416 499.2 416 512s8.533 21.333 21.333 21.333h12.8C448 526.933 448 518.4 448 512zm170.667-170.667c6.4 0 14.933 0 21.333 2.134v-12.8c0-12.8-8.533-21.334-21.333-21.334s-21.334 8.534-21.334 21.334v12.8c6.4-2.134 14.934-2.134 21.334-2.134zm134.4 275.2c-8.534 10.667-19.2 21.334-29.867 29.867l8.533 8.533c4.267 4.267 10.667 6.4 14.934 6.4s10.666-2.133 14.933-6.4c8.533-8.533 8.533-21.333 0-29.866l-8.533-8.534zm-268.8 0l-8.534 8.534c-8.533 8.533-8.533 21.333 0 29.866 4.267 4.267 10.667 6.4 14.934 6.4s10.666-2.133 14.933-6.4l8.533-8.533c-10.666-8.533-21.333-19.2-29.866-29.867zM800 490.667h-12.8c0 6.4 2.133 14.933 2.133 21.333s0 14.933-2.133 21.333H800c12.8 0 21.333-8.533 21.333-21.333S812.8 490.667 800 490.667zm-181.333 192c-6.4 0-14.934 0-21.334-2.134v12.8c0 12.8 8.534 21.334 21.334 21.334S640 706.133 640 693.333v-12.8c-6.4 2.134-14.933 2.134-21.333 2.134z" fill="#B0BEC5"/><path d="M256 426.667c-23.467 0-42.667 19.2-42.667 42.666V640c0 23.467 19.2 42.667 42.667 42.667s42.667-19.2 42.667-42.667V469.333c0-23.466-19.2-42.666-42.667-42.666z" fill="#455A64"/><path d="M256 384c-23.467 0-42.667 19.2-42.667 42.667v170.666C213.333 620.8 232.533 640 256 640s42.667-19.2 42.667-42.667V426.667C298.667 403.2 279.467 384 256 384z" fill="#CFD8DC"/></svg>