<svg class="icon" width="128" height="128" viewBox="0 0 1024 1024" xmlns="http://www.w3.org/2000/svg"><path d="M810.667 277.333c-70.4 0-128-19.2-128-42.666v42.666c0 23.467 57.6 42.667 128 42.667s128-19.2 128-42.667v-42.666c0 23.466-57.6 42.666-128 42.666z" fill="#FFA000"/><path d="M810.667 213.333c-70.4 0-128-19.2-128-42.666v42.666c0 23.467 57.6 42.667 128 42.667s128-19.2 128-42.667v-42.666c0 23.466-57.6 42.666-128 42.666zm0 128c-70.4 0-128-19.2-128-42.666v42.666c0 23.467 57.6 42.667 128 42.667s128-19.2 128-42.667v-42.666c0 23.466-57.6 42.666-128 42.666z" fill="#FFA000"/><path d="M810.667 405.333c-70.4 0-128-19.2-128-42.666v42.666c0 23.467 57.6 42.667 128 42.667s128-19.2 128-42.667v-42.666c0 23.466-57.6 42.666-128 42.666z" fill="#FFA000"/><path d="M810.667 469.333c-70.4 0-128-19.2-128-42.666v42.666c0 23.467 57.6 42.667 128 42.667s128-19.2 128-42.667v-42.666c0 23.466-57.6 42.666-128 42.666z" fill="#FFA000"/><path d="M810.667 533.333c-70.4 0-128-19.2-128-42.666v42.666c0 23.467 57.6 42.667 128 42.667s128-19.2 128-42.667v-42.666c0 23.466-57.6 42.666-128 42.666z" fill="#FFA000"/><path d="M810.667 597.333c-70.4 0-128-19.2-128-42.666v42.666c0 23.467 57.6 42.667 128 42.667s128-19.2 128-42.667v-42.666c0 23.466-57.6 42.666-128 42.666z" fill="#FFA000"/><path d="M810.667 661.333c-70.4 0-128-19.2-128-42.666v42.666c0 23.467 57.6 42.667 128 42.667s128-19.2 128-42.667v-42.666c0 23.466-57.6 42.666-128 42.666z" fill="#FFA000"/><path d="M810.667 725.333c-70.4 0-128-19.2-128-42.666v42.666c0 23.467 57.6 42.667 128 42.667s128-19.2 128-42.667v-42.666c0 23.466-57.6 42.666-128 42.666z" fill="#FFA000"/><path d="M810.667 789.333c-70.4 0-128-19.2-128-42.666v42.666c0 23.467 57.6 42.667 128 42.667s128-19.2 128-42.667v-42.666c0 23.466-57.6 42.666-128 42.666z" fill="#FFA000"/><path d="M810.667 853.333c-70.4 0-128-19.2-128-42.666v42.666c0 23.467 57.6 42.667 128 42.667s128-19.2 128-42.667v-42.666c0 23.466-57.6 42.666-128 42.666z" fill="#FFA000"/><path d="M682.667 170.667a128 42.667 0 10256 0 128 42.667 0 10-256 0zm128 85.333c-59.734 0-108.8-12.8-123.734-32-2.133 4.267-4.266 6.4-4.266 10.667 0 23.466 57.6 42.666 128 42.666s128-19.2 128-42.666c0-4.267-2.134-6.4-4.267-10.667-14.933 19.2-64 32-123.733 32zm0 64c-59.734 0-108.8-12.8-123.734-32-2.133 4.267-4.266 6.4-4.266 10.667 0 23.466 57.6 42.666 128 42.666s128-19.2 128-42.666c0-4.267-2.134-6.4-4.267-10.667-14.933 19.2-64 32-123.733 32zm0 64c-59.734 0-108.8-12.8-123.734-32-2.133 4.267-4.266 6.4-4.266 10.667 0 23.466 57.6 42.666 128 42.666s128-19.2 128-42.666c0-4.267-2.134-6.4-4.267-10.667-14.933 19.2-64 32-123.733 32zm0 64c-59.734 0-108.8-12.8-123.734-32-2.133 4.267-4.266 6.4-4.266 10.667 0 23.466 57.6 42.666 128 42.666s128-19.2 128-42.666c0-4.267-2.134-6.4-4.267-10.667-14.933 19.2-64 32-123.733 32zm0 64c-59.734 0-108.8-12.8-123.734-32-2.133 4.267-4.266 6.4-4.266 10.667 0 23.466 57.6 42.666 128 42.666s128-19.2 128-42.666c0-4.267-2.134-6.4-4.267-10.667-14.933 19.2-64 32-123.733 32zm0 64c-59.734 0-108.8-12.8-123.734-32-2.133 4.267-4.266 6.4-4.266 10.667 0 23.466 57.6 42.666 128 42.666s128-19.2 128-42.666c0-4.267-2.134-6.4-4.267-10.667-14.933 19.2-64 32-123.733 32zm0 64c-59.734 0-108.8-12.8-123.734-32-2.133 4.267-4.266 6.4-4.266 10.667 0 23.466 57.6 42.666 128 42.666s128-19.2 128-42.666c0-4.267-2.134-6.4-4.267-10.667-14.933 19.2-64 32-123.733 32zm0 64c-59.734 0-108.8-12.8-123.734-32-2.133 4.267-4.266 6.4-4.266 10.667 0 23.466 57.6 42.666 128 42.666s128-19.2 128-42.666c0-4.267-2.134-6.4-4.267-10.667-14.933 19.2-64 32-123.733 32zm0 64c-59.734 0-108.8-12.8-123.734-32-2.133 4.267-4.266 6.4-4.266 10.667 0 23.466 57.6 42.666 128 42.666s128-19.2 128-42.666c0-4.267-2.134-6.4-4.267-10.667-14.933 19.2-64 32-123.733 32zm0 64c-59.734 0-108.8-12.8-123.734-32-2.133 4.267-4.266 6.4-4.266 10.667 0 23.466 57.6 42.666 128 42.666s128-19.2 128-42.666c0-4.267-2.134-6.4-4.267-10.667-14.933 19.2-64 32-123.733 32z" fill="#FFC107"/><path d="M213.333 405.333c-70.4 0-128-19.2-128-42.666v42.666c0 23.467 57.6 42.667 128 42.667s128-19.2 128-42.667v-42.666c0 23.466-57.6 42.666-128 42.666z" fill="#FFA000"/><path d="M213.333 341.333c-70.4 0-128-19.2-128-42.666v42.666c0 23.467 57.6 42.667 128 42.667s128-19.2 128-42.667v-42.666c0 23.466-57.6 42.666-128 42.666zm0 128c-70.4 0-128-19.2-128-42.666v42.666c0 23.467 57.6 42.667 128 42.667s128-19.2 128-42.667v-42.666c0 23.466-57.6 42.666-128 42.666z" fill="#FFA000"/><path d="M213.333 533.333c-70.4 0-128-19.2-128-42.666v42.666c0 23.467 57.6 42.667 128 42.667s128-19.2 128-42.667v-42.666c0 23.466-57.6 42.666-128 42.666z" fill="#FFA000"/><path d="M213.333 597.333c-70.4 0-128-19.2-128-42.666v42.666c0 23.467 57.6 42.667 128 42.667s128-19.2 128-42.667v-42.666c0 23.466-57.6 42.666-128 42.666z" fill="#FFA000"/><path d="M213.333 661.333c-70.4 0-128-19.2-128-42.666v42.666c0 23.467 57.6 42.667 128 42.667s128-19.2 128-42.667v-42.666c0 23.466-57.6 42.666-128 42.666z" fill="#FFA000"/><path d="M213.333 725.333c-70.4 0-128-19.2-128-42.666v42.666c0 23.467 57.6 42.667 128 42.667s128-19.2 128-42.667v-42.666c0 23.466-57.6 42.666-128 42.666z" fill="#FFA000"/><path d="M213.333 789.333c-70.4 0-128-19.2-128-42.666v42.666c0 23.467 57.6 42.667 128 42.667s128-19.2 128-42.667v-42.666c0 23.466-57.6 42.666-128 42.666z" fill="#FFA000"/><path d="M213.333 853.333c-70.4 0-128-19.2-128-42.666v42.666c0 23.467 57.6 42.667 128 42.667s128-19.2 128-42.667v-42.666c0 23.466-57.6 42.666-128 42.666z" fill="#FFA000"/><path d="M85.333 298.667a128 42.667 0 10256 0 128 42.667 0 10-256 0zm128 85.333c-59.733 0-108.8-12.8-123.733-32-2.133 4.267-4.267 6.4-4.267 10.667 0 23.466 57.6 42.666 128 42.666s128-19.2 128-42.666c0-4.267-2.133-6.4-4.266-10.667-14.934 19.2-64 32-123.734 32zm0 64c-59.733 0-108.8-12.8-123.733-32-2.133 4.267-4.267 6.4-4.267 10.667 0 23.466 57.6 42.666 128 42.666s128-19.2 128-42.666c0-4.267-2.133-6.4-4.266-10.667-14.934 19.2-64 32-123.734 32zm0 64c-59.733 0-108.8-12.8-123.733-32-2.133 4.267-4.267 6.4-4.267 10.667 0 23.466 57.6 42.666 128 42.666s128-19.2 128-42.666c0-4.267-2.133-6.4-4.266-10.667-14.934 19.2-64 32-123.734 32zm0 64c-59.733 0-108.8-12.8-123.733-32-2.133 4.267-4.267 6.4-4.267 10.667 0 23.466 57.6 42.666 128 42.666s128-19.2 128-42.666c0-4.267-2.133-6.4-4.266-10.667-14.934 19.2-64 32-123.734 32zm0 64c-59.733 0-108.8-12.8-123.733-32-2.133 4.267-4.267 6.4-4.267 10.667 0 23.466 57.6 42.666 128 42.666s128-19.2 128-42.666c0-4.267-2.133-6.4-4.266-10.667-14.934 19.2-64 32-123.734 32zm0 64c-59.733 0-108.8-12.8-123.733-32-2.133 4.267-4.267 6.4-4.267 10.667 0 23.466 57.6 42.666 128 42.666s128-19.2 128-42.666c0-4.267-2.133-6.4-4.266-10.667-14.934 19.2-64 32-123.734 32zm0 64c-59.733 0-108.8-12.8-123.733-32-2.133 4.267-4.267 6.4-4.267 10.667 0 23.466 57.6 42.666 128 42.666s128-19.2 128-42.666c0-4.267-2.133-6.4-4.266-10.667-14.934 19.2-64 32-123.734 32zm0 64c-59.733 0-108.8-12.8-123.733-32-2.133 4.267-4.267 6.4-4.267 10.667 0 23.466 57.6 42.666 128 42.666s128-19.2 128-42.666c0-4.267-2.133-6.4-4.266-10.667-14.934 19.2-64 32-123.734 32z" fill="#FFC107"/><path d="M512 597.333c-70.4 0-128-19.2-128-42.666v42.666C384 620.8 441.6 640 512 640s128-19.2 128-42.667v-42.666c0 23.466-57.6 42.666-128 42.666z" fill="#FFA000"/><path d="M512 533.333c-70.4 0-128-19.2-128-42.666v42.666C384 556.8 441.6 576 512 576s128-19.2 128-42.667v-42.666c0 23.466-57.6 42.666-128 42.666zm0 128c-70.4 0-128-19.2-128-42.666v42.666C384 684.8 441.6 704 512 704s128-19.2 128-42.667v-42.666c0 23.466-57.6 42.666-128 42.666z" fill="#FFA000"/><path d="M512 725.333c-70.4 0-128-19.2-128-42.666v42.666C384 748.8 441.6 768 512 768s128-19.2 128-42.667v-42.666c0 23.466-57.6 42.666-128 42.666z" fill="#FFA000"/><path d="M512 789.333c-70.4 0-128-19.2-128-42.666v42.666C384 812.8 441.6 832 512 832s128-19.2 128-42.667v-42.666c0 23.466-57.6 42.666-128 42.666z" fill="#FFA000"/><path d="M512 853.333c-70.4 0-128-19.2-128-42.666v42.666C384 876.8 441.6 896 512 896s128-19.2 128-42.667v-42.666c0 23.466-57.6 42.666-128 42.666z" fill="#FFA000"/><path d="M384 490.667a128 42.667 0 10256 0 128 42.667 0 10-256 0zM512 576c-59.733 0-108.8-12.8-123.733-32-2.134 4.267-4.267 6.4-4.267 10.667 0 23.466 57.6 42.666 128 42.666s128-19.2 128-42.666c0-4.267-2.133-6.4-4.267-10.667-14.933 19.2-64 32-123.733 32zm0 64c-59.733 0-108.8-12.8-123.733-32-2.134 4.267-4.267 6.4-4.267 10.667 0 23.466 57.6 42.666 128 42.666s128-19.2 128-42.666c0-4.267-2.133-6.4-4.267-10.667-14.933 19.2-64 32-123.733 32zm0 64c-59.733 0-108.8-12.8-123.733-32-2.134 4.267-4.267 6.4-4.267 10.667 0 23.466 57.6 42.666 128 42.666s128-19.2 128-42.666c0-4.267-2.133-6.4-4.267-10.667-14.933 19.2-64 32-123.733 32zm0 64c-59.733 0-108.8-12.8-123.733-32-2.134 4.267-4.267 6.4-4.267 10.667 0 23.466 57.6 42.666 128 42.666s128-19.2 128-42.666c0-4.267-2.133-6.4-4.267-10.667-14.933 19.2-64 32-123.733 32zm0 64c-59.733 0-108.8-12.8-123.733-32-2.134 4.267-4.267 6.4-4.267 10.667 0 23.466 57.6 42.666 128 42.666s128-19.2 128-42.666c0-4.267-2.133-6.4-4.267-10.667-14.933 19.2-64 32-123.733 32z" fill="#FFC107"/></svg>