<svg class="icon" width="128" height="128" viewBox="0 0 1024 1024" xmlns="http://www.w3.org/2000/svg"><path d="M192 832V128h-42.667v746.667H896V832z" fill="#CFD8DC"/><path d="M768 234.667a64 64 0 10128 0 64 64 0 10-128 0zm-170.667 42.666a64 64 0 10128 0 64 64 0 10-128 0zm128 128a64 64 0 10128 0 64 64 0 10-128 0zm-64 149.334a64 64 0 10128 0 64 64 0 10-128 0zm-128-128a64 64 0 10128 0 64 64 0 10-128 0zm-42.666 170.666a64 64 0 10128 0 64 64 0 10-128 0zm-128-106.666a64 64 0 10128 0 64 64 0 10-128 0zM384 704a64 64 0 10128 0 64 64 0 10-128 0zm-149.333-64a64 64 0 10128 0 64 64 0 10-128 0z" fill="#00BCD4"/></svg>