<svg class="icon" width="128" height="128" viewBox="0 0 1024 1024" xmlns="http://www.w3.org/2000/svg"><path d="M701.867 469.333c0-6.4 2.133-14.933 2.133-21.333V298.667c0-162.134-384-106.667-384 0V448c0 6.4 0 14.933 2.133 21.333h379.734z" fill="#FFB74D"/><path d="M853.333 938.667H170.667c-46.934 0-85.334-38.4-85.334-85.334V554.667c0-46.934 38.4-85.334 85.334-85.334h682.666c46.934 0 85.334 38.4 85.334 85.334v298.666c0 46.934-38.4 85.334-85.334 85.334z" fill="#37474F"/><path d="M149.333 554.667v298.666c0 12.8 8.534 21.334 21.334 21.334h618.666c12.8 0 21.334-8.534 21.334-21.334V554.667c0-12.8-8.534-21.334-21.334-21.334H170.667c-12.8 0-21.334 8.534-21.334 21.334z" fill="#BBDEFB"/><path d="M853.333 640H896v128h-42.667z" fill="#78909C"/><path d="M405.333 682.667H576v192H405.333z" fill="#BF360C"/><path d="M437.333 800H544v74.667H437.333z" fill="#FF9800"/><path d="M586.667 682.667c0-81.067-192-53.334-192 0v74.666c0 53.334 42.666 96 96 96s96-42.666 96-96v-74.666z" fill="#FFB74D"/><path d="M576 448a21.333 21.333 0 1042.667 0A21.333 21.333 0 10576 448zm-170.667 0A21.333 21.333 0 10448 448a21.333 21.333 0 10-42.667 0zm117.334 309.333a10.667 10.667 0 1021.333 0 10.667 10.667 0 10-21.333 0zm-85.334 0a10.667 10.667 0 1021.334 0 10.667 10.667 0 10-21.334 0z" fill="#784719"/><path d="M490.667 576C426.667 576 320 603.733 320 810.667l85.333 64V736l128-74.667L576 714.667v160l85.333-64c0-42.667-17.066-213.334-128-213.334L522.667 576h-32zM341.333 469.333v-64l256-149.333 85.334 106.667v106.666h145.066C817.067 337.067 770.133 128 597.333 128L576 85.333h-64c-117.333 0-283.733 59.734-315.733 384h145.066z" fill="#FF5722"/></svg>