<svg class="icon" width="128" height="128" viewBox="0 0 1024 1024" xmlns="http://www.w3.org/2000/svg"><path d="M704 192H234.667v85.333H704c23.467 0 42.667 19.2 42.667 42.667v426.667h-256V832H832V320c0-70.4-57.6-128-128-128z" fill="#90CAF9"/><path d="M128 128h213.333v213.333H128z" fill="#D81B60"/><path d="M682.667 362.667H896V576H682.667zm-341.334 320h213.334V896H341.333zm106.667-448a106.667 106.667 0 10213.333 0 106.667 106.667 0 10-213.333 0zm234.667 554.666a106.667 106.667 0 10213.333 0 106.667 106.667 0 10-213.333 0z" fill="#2196F3"/></svg>