<svg class="icon" width="128" height="128" viewBox="0 0 1024 1024" xmlns="http://www.w3.org/2000/svg"><path d="M64 512a448 448 0 10896 0 448 448 0 10-896 0z" fill="#9C27B0"/><path d="M356.267 601.6c0-81.067-155.734-46.933-155.734-172.8 0-14.933 8.534-102.4 117.334-102.4s115.2 96 115.2 113.067H358.4c0-8.534 0-53.334-42.667-53.334-38.4 0-40.533 36.267-40.533 42.667 0 64 157.867 42.667 157.867 172.8C433.067 644.267 409.6 704 320 704c-100.267 0-128-72.533-128-121.6h74.667c0 10.667-4.267 59.733 53.333 59.733 38.4 2.134 36.267-34.133 36.267-40.533zm221.866-268.8L646.4 597.333 714.667 332.8h96v366.933H736V601.6l6.4-153.6-72.533 251.733h-51.2L546.133 448l6.4 153.6v98.133h-74.666V332.8h100.266z" fill="#E1BEE7"/></svg>