<svg class="icon" width="128" height="128" viewBox="0 0 1024 1024" xmlns="http://www.w3.org/2000/svg"><path d="M546.133 733.867c2.134-8.534 2.134-19.2 2.134-29.867s0-19.2-2.134-29.867l59.734-42.666c6.4-4.267 8.533-12.8 4.266-19.2l-57.6-98.134c-4.266-6.4-10.666-8.533-17.066-6.4l-66.134 32c-14.933-12.8-32-21.333-51.2-29.866l-6.4-72.534c0-6.4-6.4-12.8-12.8-12.8H285.867c-6.4 0-12.8 6.4-12.8 12.8L264.533 512c-19.2 6.4-34.133 17.067-51.2 29.867L147.2 512c-6.4-2.133-14.933 0-17.067 6.4l-57.6 98.133c-4.266 6.4-2.133 14.934 4.267 19.2l59.733 42.667c-2.133 8.533-2.133 19.2-2.133 29.867s0 19.2 2.133 29.866L76.8 780.8c-6.4 4.267-8.533 12.8-4.267 19.2l57.6 98.133c4.267 6.4 10.667 8.534 17.067 6.4l66.133-29.866c14.934 12.8 32 21.333 51.2 29.866l6.4 72.534c0 6.4 6.4 12.8 12.8 12.8H396.8c6.4 0 12.8-6.4 12.8-12.8l6.4-72.534c19.2-6.4 34.133-17.066 51.2-29.866l66.133 29.866c6.4 2.134 14.934 0 17.067-6.4L608 800c4.267-6.4 2.133-14.933-4.267-19.2l-57.6-46.933zm-204.8 76.8c-59.733 0-106.666-46.934-106.666-106.667S281.6 597.333 341.333 597.333 448 644.267 448 704s-46.933 106.667-106.667 106.667z" fill="#E65100"/><path d="M893.867 326.4C896 315.733 896 307.2 896 298.667s0-17.067-2.133-27.734l53.333-38.4c6.4-4.266 6.4-10.666 4.267-17.066l-53.334-91.734c-4.266-6.4-10.666-8.533-17.066-4.266L819.2 147.2c-14.933-10.667-29.867-19.2-46.933-27.733l-6.4-66.134c2.133-6.4-2.134-10.666-8.534-10.666H652.8c-6.4 0-12.8 4.266-12.8 10.666l-6.4 66.134c-17.067 6.4-32 14.933-46.933 27.733L524.8 119.467c-6.4-2.134-12.8 0-17.067 4.266L454.4 215.467c-4.267 6.4-2.133 12.8 4.267 17.066l53.333 38.4v27.734c0 8.533 0 17.066 2.133 27.733L460.8 364.8c-6.4 4.267-6.4 10.667-4.267 17.067l53.334 91.733c4.266 6.4 10.666 8.533 17.066 4.267l61.867-27.734c14.933 10.667 29.867 19.2 46.933 27.734l6.4 66.133c0 6.4 6.4 10.667 12.8 10.667h104.534c6.4 0 12.8-4.267 12.8-10.667l6.4-66.133c17.066-6.4 32-14.934 46.933-27.734l61.867 27.734c6.4 2.133 12.8 0 17.066-4.267l53.334-91.733c4.266-6.4 2.133-12.8-4.267-17.067l-59.733-38.4zM704 405.333c-59.733 0-106.667-46.933-106.667-106.666S644.267 192 704 192s106.667 46.933 106.667 106.667S763.733 405.333 704 405.333z" fill="#FFA000"/></svg>