<svg class="icon" width="128" height="128" viewBox="0 0 1024 1024" xmlns="http://www.w3.org/2000/svg"><path d="M812.8 665.6L413.867 512 812.8 358.4c32-12.8 49.067-49.067 36.267-83.2-12.8-32-49.067-49.067-83.2-36.267L211.2 452.267C187.733 460.8 170.667 486.4 170.667 512s17.066 51.2 40.533 59.733l554.667 213.334c8.533 2.133 14.933 4.266 23.466 4.266 25.6 0 49.067-14.933 59.734-40.533 12.8-34.133-4.267-70.4-36.267-83.2z" fill="#1976D2"/><path d="M85.333 512A149.333 149.333 0 10384 512a149.333 149.333 0 10-298.667 0zM640 298.667a149.333 149.333 0 10298.667 0 149.333 149.333 0 10-298.667 0zm0 426.666a149.333 149.333 0 10298.667 0 149.333 149.333 0 10-298.667 0z" fill="#1E88E5"/></svg>