<svg class="icon" width="128" height="128" viewBox="0 0 1024 1024" xmlns="http://www.w3.org/2000/svg"><path d="M917.333 768H618.667V298.667H844.8c19.2 0 34.133 12.8 40.533 29.866L960 554.667v170.666C960 748.8 940.8 768 917.333 768z" fill="#8BC34A"/><path d="M618.667 768h-512C83.2 768 64 748.8 64 725.333V192c0-23.467 19.2-42.667 42.667-42.667H576c23.467 0 42.667 19.2 42.667 42.667v576z" fill="#388E3C"/><path d="M682.667 768A106.667 106.667 0 10896 768a106.667 106.667 0 10-213.333 0zm-512 0A106.667 106.667 0 10384 768a106.667 106.667 0 10-213.333 0z" fill="#37474F"/><path d="M746.667 768A42.667 42.667 0 10832 768a42.667 42.667 0 10-85.333 0zm-512 0A42.667 42.667 0 10320 768a42.667 42.667 0 10-85.333 0z" fill="#78909C"/><path d="M874.667 533.333H725.333C712.533 533.333 704 524.8 704 512V362.667c0-12.8 8.533-21.334 21.333-21.334H838.4c8.533 0 17.067 6.4 19.2 14.934L893.867 467.2c0 2.133 2.133 4.267 2.133 6.4V512c0 12.8-8.533 21.333-21.333 21.333z" fill="#37474F"/><path d="M465.067 294.4L296.533 462.933 217.6 381.867 170.667 428.8l125.866 125.867L512 339.2z" fill="#DCEDC8"/></svg>