<svg class="icon" width="128" height="128" viewBox="0 0 1024 1024" xmlns="http://www.w3.org/2000/svg"><path d="M106.667 405.333h810.666v405.334H106.667z" fill="#CFD8DC"/><path d="M106.667 810.667h810.666V896H106.667z" fill="#B0BEC5"/><path d="M576 512h256v384H576z" fill="#455A64"/><path d="M192 512h298.667v234.667H192z" fill="#E3F2FD"/><path d="M213.333 533.333h256v192h-256z" fill="#1E88E5"/><path d="M778.667 714.667c-6.4 0-10.667 4.266-10.667 10.666V768c0 6.4 4.267 10.667 10.667 10.667S789.333 774.4 789.333 768v-42.667c0-6.4-4.266-10.666-10.666-10.666z" fill="#90A4AE"/><path d="M448 405.333a64 64 0 10128 0 64 64 0 10-128 0zm256 0a64 64 0 10128 0 64 64 0 10-128 0zm-512 0a64 64 0 10128 0 64 64 0 10-128 0z" fill="#558B2F"/><path d="M853.333 128H170.667C147.2 128 128 147.2 128 170.667v64h768v-64C896 147.2 876.8 128 853.333 128zM448 234.667h128v170.666H448zm341.333 0H682.667L704 405.333h128zm-554.666 0h106.666L320 405.333H192z" fill="#7CB342"/><path d="M576 405.333a64 64 0 10128 0 64 64 0 10-128 0zm384 0c0 36.267-27.733 64-64 64s-64-27.733-64-64 27.733-64 64-64l64 64zm-640 0a64 64 0 10128 0 64 64 0 10-128 0zm-256 0c0 36.267 27.733 64 64 64s64-27.733 64-64-27.733-64-64-64l-64 64z" fill="#FFA000"/><path d="M682.667 234.667H576v170.666h128zm213.333 0H789.333L832 405.333h128zm-554.667 0H448v170.666H320zm-213.333 0h106.667L192 405.333H64z" fill="#FFC107"/></svg>