<svg class="icon" width="128" height="128" viewBox="0 0 1024 1024" xmlns="http://www.w3.org/2000/svg"><path d="M827.733 601.6C885.333 529.067 960 428.8 960 256c0-12.8-8.533-21.333-21.333-21.333S917.333 243.2 917.333 256c0 142.933-53.333 228.267-106.666 296.533-12.8-40.533-21.334-89.6-21.334-147.2C789.333 394.667 780.8 384 768 384c-10.667 0-21.333 8.533-21.333 21.333-2.134 36.267-12.8 76.8-21.334 81.067-8.533 0-19.2-29.867-21.333-59.733 0-10.667-10.667-19.2-21.333-19.2s-21.334 6.4-21.334 19.2c-6.4 36.266-23.466 87.466-42.666 87.466-8.534 0-12.8-2.133-14.934-6.4-6.4-6.4-8.533-21.333-8.533-34.133 0-8.533 2.133-17.067 2.133-25.6 0-10.667-8.533-21.333-19.2-21.333s-21.333 6.4-23.466 17.066c0 2.134-2.134 10.667-2.134 23.467-4.266 36.267-17.066 108.8-61.866 108.8-14.934 0-23.467-4.267-29.867-14.933-10.667-17.067-10.667-44.8 0-70.4v-2.134c2.133-2.133 2.133-6.4 4.267-8.533 17.066-34.133 36.266-53.333 68.266-53.333 12.8 0 21.334-8.534 21.334-21.334S546.133 384 533.333 384c-89.6 0-115.2 87.467-140.8 170.667-29.866 102.4-57.6 170.666-136.533 170.666-108.8 0-149.333-140.8-149.333-234.666 0-183.467 100.266-298.667 192-298.667 61.866 0 85.333 49.067 87.466 51.2 4.267 10.667 17.067 14.933 27.734 10.667 10.666-4.267 14.933-17.067 10.666-27.734-2.133-4.266-36.266-76.8-125.866-76.8-115.2 0-234.667 128-234.667 341.334C64 710.4 189.867 768 256 768c108.8 0 145.067-96 172.8-181.333 14.933 19.2 36.267 32 61.867 32 46.933 0 74.666-34.134 89.6-76.8 10.666 8.533 23.466 12.8 38.4 12.8 29.866 0 51.2-25.6 64-51.2 8.533 14.933 23.466 25.6 42.666 25.6 12.8 0 23.467-6.4 32-14.934 6.4 29.867 14.934 57.6 21.334 81.067-29.867 38.4-53.334 70.4-53.334 108.8 0 36.267 27.734 64 64 64 38.4 0 64-34.133 64-64 0-27.733-10.666-57.6-23.466-91.733 0-4.267-2.134-6.4-2.134-10.667zm-38.4 123.733C774.4 725.333 768 714.667 768 704c0-19.2 10.667-38.4 27.733-61.867 8.534 25.6 14.934 44.8 14.934 61.867 0 6.4-6.4 21.333-21.334 21.333z" fill="#1565C0"/><path d="M64 853.333h896V896H64z" fill="#90A4AE"/></svg>