<svg class="icon" width="128" height="128" viewBox="0 0 1024 1024" xmlns="http://www.w3.org/2000/svg"><path d="M768 960H256c-46.933 0-85.333-38.4-85.333-85.333V149.333C170.667 102.4 209.067 64 256 64h347.733c23.467 0 44.8 8.533 59.734 25.6l164.266 164.267c17.067 17.066 25.6 38.4 25.6 59.733v561.067C853.333 921.6 814.933 960 768 960z" fill="#009688"/><path d="M682.667 810.667H341.333c-23.466 0-42.666-19.2-42.666-42.667V512c0-23.467 19.2-42.667 42.666-42.667h341.334c23.466 0 42.666 19.2 42.666 42.667v256c0 23.467-19.2 42.667-42.666 42.667z" fill="#FF9800"/><path d="M618.667 640v64h106.666v42.667H618.667v64H576V469.333h42.667v128h106.666V640H618.667zm-320-21.333v42.666h106.666V704H298.667v42.667h106.666v64H448v-192H298.667z" fill="#FFD54F"/></svg>