<svg class="icon" width="128" height="128" viewBox="0 0 1024 1024" xmlns="http://www.w3.org/2000/svg"><path d="M106.667 746.667V277.333C106.667 230.4 145.067 192 192 192h640c46.933 0 85.333 38.4 85.333 85.333v469.334C917.333 793.6 878.933 832 832 832H192c-46.933 0-85.333-38.4-85.333-85.333z" fill="#FF9800"/><path d="M917.333 448v-42.667h-256c-23.466 0-42.666-19.2-42.666-42.666S637.867 320 661.333 320h21.334v-42.667h-21.334c-46.933 0-85.333 38.4-85.333 85.334S614.4 448 661.333 448h64v128h-64c-59.733 0-106.666 46.933-106.666 106.667S601.6 789.333 661.333 789.333H704v-42.666h-42.667c-36.266 0-64-27.734-64-64s27.734-64 64-64h256V576H768V448h149.333zM362.667 576h-64V448h64C409.6 448 448 409.6 448 362.667s-38.4-85.334-85.333-85.334h-64V320h64c23.466 0 42.666 19.2 42.666 42.667s-19.2 42.666-42.666 42.666h-256V448H256v128H106.667v42.667h256c36.266 0 64 27.733 64 64s-27.734 64-64 64H320v42.666h42.667c59.733 0 106.666-46.933 106.666-106.666S422.4 576 362.667 576z" fill="#FFD54F"/></svg>