<svg class="icon" width="128" height="128" viewBox="0 0 1024 1024" xmlns="http://www.w3.org/2000/svg"><path d="M853.333 213.333H691.2l-42.667-64c-8.533-12.8-21.333-19.2-36.266-19.2h-204.8c-14.934 0-27.734 6.4-36.267 19.2l-42.667 64H170.667c-46.934 0-85.334 38.4-85.334 85.334v512c0 46.933 38.4 85.333 85.334 85.333h682.666c46.934 0 85.334-38.4 85.334-85.333v-512c0-46.934-38.4-85.334-85.334-85.334z" fill="#5E35B1"/><path d="M234.667 341.333h426.666c12.8 0 21.334 8.534 21.334 21.334V704c0 12.8-8.534 21.333-21.334 21.333H234.667c-12.8 0-21.334-8.533-21.334-21.333V362.667c0-12.8 8.534-21.334 21.334-21.334z" fill="#F57C00"/><path d="M403.2 469.333L256 682.667h294.4z" fill="#942A09"/><path d="M533.333 448a42.667 42.667 0 1085.334 0 42.667 42.667 0 10-85.334 0z" fill="#FFF9C4"/><path d="M537.6 554.667l-102.4 128H640z" fill="#BF360C"/><path d="M725.333 213.333h128v-17.066c0-14.934-10.666-25.6-25.6-25.6h-76.8c-14.933 0-25.6 10.666-25.6 25.6v17.066zM768 384a42.667 42.667 0 1085.333 0A42.667 42.667 0 10768 384zm0 128a42.667 42.667 0 1085.333 0A42.667 42.667 0 10768 512zm0 128a42.667 42.667 0 1085.333 0A42.667 42.667 0 10768 640z" fill="#8667C4"/></svg>