<svg class="icon" width="128" height="128" viewBox="0 0 1024 1024" xmlns="http://www.w3.org/2000/svg"><path d="M85.333 832V149.333c0-46.933 38.4-85.333 85.334-85.333H640c46.933 0 85.333 38.4 85.333 85.333V832c0 46.933-38.4 85.333-85.333 85.333H170.667c-46.934 0-85.334-38.4-85.334-85.333z" fill="#37474F"/><path d="M640 128H170.667c-12.8 0-21.334 8.533-21.334 21.333V768c0 12.8 8.534 21.333 21.334 21.333H640c12.8 0 21.333-8.533 21.333-21.333V149.333c0-12.8-8.533-21.333-21.333-21.333z" fill="#BBDEFB"/><path d="M320 832h128v42.667H320z" fill="#78909C"/><path d="M512 874.667v-512c0-46.934 38.4-85.334 85.333-85.334h256c46.934 0 85.334 38.4 85.334 85.334v512c0 46.933-38.4 85.333-85.334 85.333h-256C550.4 960 512 921.6 512 874.667z" fill="#E38939"/><path d="M853.333 341.333h-256c-12.8 0-21.333 8.534-21.333 21.334V832c0 12.8 8.533 21.333 21.333 21.333h256c12.8 0 21.334-8.533 21.334-21.333V362.667c0-12.8-8.534-21.334-21.334-21.334z" fill="#FFF3E0"/><path d="M693.333 906.667a32 32 0 1064 0 32 32 0 10-64 0z" fill="#A6642A"/></svg>