<svg class="icon" width="128" height="128" viewBox="0 0 1024 1024" xmlns="http://www.w3.org/2000/svg"><path d="M64 512a448 448 0 10896 0 448 448 0 10-896 0z" fill="#9C27B0"/><path d="M441.6 580.267v179.2h-83.2V275.2H544c27.733 0 53.333 4.267 74.667 10.667 21.333 8.533 40.533 19.2 55.466 32 14.934 12.8 25.6 29.866 34.134 49.066 8.533 19.2 12.8 38.4 12.8 61.867s-4.267 44.8-12.8 64c-8.534 19.2-19.2 34.133-34.134 46.933C659.2 552.533 640 563.2 618.667 569.6c-21.334 6.4-46.934 10.667-74.667 10.667H441.6zm0-68.267h100.267c17.066 0 29.866-2.133 42.666-6.4 10.667-4.267 21.334-10.667 29.867-17.067 8.533-6.4 12.8-17.066 17.067-25.6 4.266-10.666 4.266-21.333 4.266-34.133 0-10.667-2.133-21.333-4.266-32-4.267-10.667-8.534-19.2-17.067-27.733s-17.067-14.934-29.867-19.2c-10.666-4.267-25.6-6.4-42.666-6.4H441.6V512z" fill="#E1BEE7"/></svg>