<svg class="icon" width="128" height="128" viewBox="0 0 1024 1024" xmlns="http://www.w3.org/2000/svg"><path d="M597.333 151.467v42.666C753.067 215.467 874.667 349.867 874.667 512s-121.6 296.533-277.334 317.867v42.666c179.2-21.333 320-174.933 320-360.533s-140.8-339.2-320-360.533z" fill="#81D4FA"/><path d="M298.667 682.667H149.333c-23.466 0-42.666-19.2-42.666-42.667V384c0-23.467 19.2-42.667 42.666-42.667h149.334v341.334z" fill="#546E7A"/><path d="M554.667 896l-256-213.333V341.333l256-213.333z" fill="#78909C"/><path d="M597.333 369.067v44.8c38.4 17.066 64 53.333 64 98.133s-25.6 81.067-64 98.133v44.8C659.2 635.733 704 580.267 704 512s-44.8-123.733-106.667-142.933z" fill="#03A9F4"/><path d="M597.333 260.267v42.666C695.467 322.133 768 409.6 768 512s-72.533 189.867-170.667 209.067v42.666C718.933 742.4 810.667 637.867 810.667 512s-91.734-232.533-213.334-251.733z" fill="#4FC3F7"/></svg>