<svg class="icon" width="128" height="128" viewBox="0 0 1024 1024" xmlns="http://www.w3.org/2000/svg"><path d="M490.667 192A106.667 106.667 0 10704 192a106.667 106.667 0 10-213.333 0z" fill="#FF9800"/><path d="M618.667 582.4L422.4 494.933c-21.333-10.666-32 21.334-42.667 42.667s-87.466 153.6-81.066 177.067c6.4 19.2 23.466 29.866 40.533 29.866 4.267 0 8.533 0 12.8-2.133l262.4-81.067c17.067-4.266 29.867-21.333 29.867-38.4S633.6 588.8 618.667 582.4z" fill="#00796B"/><path d="M571.733 324.267L524.8 302.933c-27.733-12.8-61.867 0-74.667 27.734L196.267 876.8c-10.667 21.333 0 46.933 21.333 57.6 6.4 2.133 12.8 4.267 19.2 4.267 17.067 0 32-8.534 38.4-23.467 0 0 204.8-283.733 221.867-317.867s104.533-198.4 104.533-198.4c10.667-27.733 0-61.866-29.867-74.666z" fill="#009688"/><path d="M864 334.933c-14.933-17.066-42.667-21.333-59.733-6.4l-106.667 89.6-136.533-74.666c-23.467-12.8-55.467-8.534-70.4 19.2-17.067 27.733-8.534 61.866 17.066 72.533L684.8 507.733c6.4 2.134 12.8 4.267 19.2 4.267 10.667 0 19.2-4.267 27.733-10.667l128-106.666c17.067-14.934 19.2-40.534 4.267-59.734zM249.6 492.8L322.133 384l98.134 12.8 32-66.133c8.533-19.2 25.6-29.867 44.8-32H300.8c-14.933 0-27.733 6.4-36.267 19.2l-85.333 128c-12.8 19.2-8.533 46.933 12.8 59.733 4.267 4.267 12.8 6.4 21.333 6.4 12.8 0 27.734-6.4 36.267-19.2z" fill="#FF9800"/></svg>