<svg class="icon" width="128" height="128" viewBox="0 0 1024 1024" xmlns="http://www.w3.org/2000/svg"><path d="M372.779 182.997L939.05 372.95 749.099 939.221 182.827 749.27z" fill="#64B5F6"/><path d="M410.41 266.752l446.337 145.493-132.267 405.76-446.336-145.493z" fill="#1E88E5"/><path d="M232.128 123.264l587.179 108.117L711.189 818.56 124.011 710.443z" fill="#90CAF9"/><path d="M282.005 201.472L744.3 283.605l-74.667 420.267-462.293-82.133z" fill="#42A5F5"/><path d="M85.333 85.333h597.334v597.334H85.333z" fill="#BBDEFB"/><path d="M149.333 149.333h469.334V576H149.333z" fill="#4CAF50"/><path d="M341.333 277.333c0-23.466 19.2-42.666 42.667-42.666s42.667 19.2 42.667 42.666S384 362.667 384 362.667s-42.667-61.867-42.667-85.334zM426.667 448c0 23.467-19.2 42.667-42.667 42.667s-42.667-19.2-42.667-42.667S384 362.667 384 362.667s42.667 61.866 42.667 85.333z" fill="#FFF"/><path d="M288 356.267c-21.333-12.8-27.733-38.4-14.933-57.6 12.8-21.334 38.4-27.734 57.6-14.934C352 296.533 384 362.667 384 362.667s-74.667 6.4-96-6.4zm192 12.8c21.333 12.8 27.733 38.4 14.933 57.6-12.8 21.333-38.4 27.733-57.6 14.933C416 430.933 384 362.667 384 362.667s74.667-6.4 96 6.4z" fill="#FFF"/><path d="M480 356.267c21.333-12.8 27.733-38.4 14.933-57.6-12.8-21.334-38.4-27.734-57.6-14.934C416 294.4 384 362.667 384 362.667s74.667 6.4 96-6.4zm-192 12.8c-21.333 12.8-27.733 38.4-14.933 57.6 12.8 21.333 38.4 27.733 57.6 14.933C352 428.8 384 362.667 384 362.667s-74.667-6.4-96 6.4z" fill="#FFF"/><path d="M341.333 362.667a42.667 42.667 0 1085.334 0 42.667 42.667 0 10-85.334 0z" fill="#FFC107"/></svg>