<svg class="icon" width="128" height="128" viewBox="0 0 1024 1024" xmlns="http://www.w3.org/2000/svg"><path d="M490.667 106.667h42.666v768h-42.666z" fill="#37474F"/><path d="M550.763 699.136l30.165 30.165-214.187 214.187-30.165-30.165z" fill="#37474F"/><path d="M688.192 913.579l-30.165 30.165L443.84 729.557l30.165-30.165z" fill="#37474F"/><path d="M85.333 170.667h853.334V768H85.333z" fill="#CFD8DC"/><path d="M64 149.333h896v85.334H64zm0 597.334h896v42.666H64zM640 928a32 32 0 1064 0 32 32 0 10-64 0zm-320 0a32 32 0 1064 0 32 32 0 10-64 0z" fill="#607D8B"/><path d="M680.533 403.2l-125.866 128-128-128-172.8 170.667L300.8 620.8l125.867-128 128 128 172.8-170.667z" fill="#C51162"/><path d="M768 512L618.667 362.667H768z" fill="#C51162"/></svg>