<svg class="icon" width="128" height="128" viewBox="0 0 1024 1024" xmlns="http://www.w3.org/2000/svg"><path d="M768 85.333H554.667C554.667 108.8 535.467 128 512 128s-42.667-19.2-42.667-42.667H256c-46.933 0-85.333 38.4-85.333 85.334v682.666c0 46.934 38.4 85.334 85.333 85.334h512c46.933 0 85.333-38.4 85.333-85.334V170.667c0-46.934-38.4-85.334-85.333-85.334z" fill="#455A64"/><path d="M768 874.667H256c-12.8 0-21.333-8.534-21.333-21.334V170.667c0-12.8 8.533-21.334 21.333-21.334h512c12.8 0 21.333 8.534 21.333 21.334v682.666c0 12.8-8.533 21.334-21.333 21.334z" fill="#FFF"/><path d="M554.667 85.333C554.667 108.8 535.467 128 512 128s-42.667-19.2-42.667-42.667H320v85.334c0 23.466 19.2 42.666 42.667 42.666h298.666c23.467 0 42.667-19.2 42.667-42.666V85.333H554.667z" fill="#90A4AE"/><path d="M512 0c-46.933 0-85.333 38.4-85.333 85.333s38.4 85.334 85.333 85.334 85.333-38.4 85.333-85.334S558.933 0 512 0zm0 128c-23.467 0-42.667-19.2-42.667-42.667s19.2-42.666 42.667-42.666 42.667 19.2 42.667 42.666S535.467 128 512 128z" fill="#90A4AE"/><path d="M448 426.667h256v42.666H448zm-128-21.334h85.333v85.334H320z" fill="#CFD8DC"/><path d="M448 618.667h256v42.666H448zm-128-21.334h85.333v85.334H320z" fill="#03A9F4"/></svg>