<svg class="icon" width="128" height="128" viewBox="0 0 1024 1024" xmlns="http://www.w3.org/2000/svg"><path d="M723.2 258.133H302.933l72.534-108.8c8.533-12.8 21.333-19.2 36.266-19.2h204.8c14.934 0 27.734 6.4 36.267 19.2l70.4 108.8zm-424.533-23.466h-128v-38.4c0-14.934 10.666-25.6 25.6-25.6h76.8c14.933 0 25.6 10.666 25.6 25.6v38.4z" fill="#5E35B1"/><path d="M853.333 896H170.667c-46.934 0-85.334-38.4-85.334-85.333v-512c0-46.934 38.4-85.334 85.334-85.334h682.666c46.934 0 85.334 38.4 85.334 85.334v512c0 46.933-38.4 85.333-85.334 85.333z" fill="#5E35B1"/><path d="M725.333 533.333C725.333 416 629.333 320 512 320c-51.2 0-98.133 17.067-134.4 46.933l25.6 34.134c29.867-23.467 66.133-38.4 108.8-38.4 93.867 0 170.667 76.8 170.667 170.666H608L704 652.8l96-119.467h-74.667zM620.8 665.6C590.933 689.067 552.533 704 512 704c-93.867 0-170.667-76.8-170.667-170.667H416l-96-119.466-96 119.466h74.667c0 117.334 96 213.334 213.333 213.334 51.2 0 98.133-17.067 134.4-46.934L620.8 665.6z" fill="#E8EAF6"/></svg>