<svg class="icon" width="128" height="128" viewBox="0 0 1024 1024" xmlns="http://www.w3.org/2000/svg"><path d="M825.6 253.867L759.467 307.2C806.4 364.8 832 437.333 832 509.867c0 177.066-142.933 320-320 320-19.2 0-40.533-2.134-59.733-6.4l-14.934 83.2c25.6 4.266 51.2 6.4 74.667 6.4 224 0 405.333-181.334 405.333-405.334 0-89.6-32-181.333-91.733-253.866z" fill="#FF6F00"/><path d="M661.333 170.667L915.2 204.8 706.133 413.867z" fill="#FF6F02"/><path d="M512 106.667C288 106.667 106.667 288 106.667 512c0 98.133 34.133 192 98.133 264.533l64-55.466C219.733 663.467 192 588.8 192 512c0-177.067 142.933-320 320-320 19.2 0 40.533 2.133 59.733 6.4l14.934-83.2c-23.467-6.4-49.067-8.533-74.667-8.533z" fill="#FF6F00"/><path d="M362.667 853.333L108.8 819.2l209.067-209.067z" fill="#FF6F02"/></svg>