<svg class="icon" width="128" height="128" viewBox="0 0 1024 1024" xmlns="http://www.w3.org/2000/svg"><path d="M896 618.667H443.733c-10.666 0-21.333-4.267-29.866-12.8l-78.934-78.934c-8.533-8.533-8.533-21.333 0-29.866l78.934-78.934c8.533-8.533 19.2-12.8 29.866-12.8H896c12.8 0 21.333 8.534 21.333 21.334v170.666c0 12.8-8.533 21.334-21.333 21.334z" fill="#3F51B5"/><path d="M192 128h42.667v768H192z" fill="#CFD8DC"/><path d="M149.333 213.333a64 64 0 10128 0 64 64 0 10-128 0zm0 298.667a64 64 0 10128 0 64 64 0 10-128 0zm0 298.667a64 64 0 10128 0 64 64 0 10-128 0z" fill="#90A4AE"/><path d="M725.333 917.333h-281.6c-10.666 0-21.333-4.266-29.866-12.8L334.933 825.6c-8.533-8.533-8.533-21.333 0-29.867l78.934-78.933c8.533-8.533 19.2-12.8 29.866-12.8h281.6c12.8 0 21.334 8.533 21.334 21.333V896c0 12.8-8.534 21.333-21.334 21.333z" fill="#448AFF"/><path d="M746.667 320H443.733c-10.666 0-21.333-4.267-29.866-12.8l-78.934-78.933c-8.533-8.534-8.533-21.334 0-29.867l78.934-78.933c8.533-8.534 19.2-12.8 29.866-12.8h302.934c12.8 0 21.333 8.533 21.333 21.333v170.667c0 12.8-8.533 21.333-21.333 21.333z" fill="#00BCD4"/></svg>