<svg class="icon" width="128" height="128" viewBox="0 0 1024 1024" xmlns="http://www.w3.org/2000/svg"><path d="M128 768V170.667c0-46.934 38.4-85.334 85.333-85.334H512c46.933 0 85.333 38.4 85.333 85.334V768c0 46.933-38.4 85.333-85.333 85.333H213.333C166.4 853.333 128 814.933 128 768z" fill="#37474F"/><path d="M512 149.333H213.333c-12.8 0-21.333 8.534-21.333 21.334V704c0 12.8 8.533 21.333 21.333 21.333H512c12.8 0 21.333-8.533 21.333-21.333V170.667c0-12.8-8.533-21.334-21.333-21.334z" fill="#BBDEFB"/><path d="M298.667 768h128v42.667h-128z" fill="#78909C"/><path d="M426.667 853.333V256c0-46.933 38.4-85.333 85.333-85.333h298.667C857.6 170.667 896 209.067 896 256v597.333c0 46.934-38.4 85.334-85.333 85.334H512c-46.933 0-85.333-38.4-85.333-85.334z" fill="#E38939"/><path d="M810.667 234.667H512c-12.8 0-21.333 8.533-21.333 21.333v533.333c0 12.8 8.533 21.334 21.333 21.334h298.667c12.8 0 21.333-8.534 21.333-21.334V256c0-12.8-8.533-21.333-21.333-21.333z" fill="#FFF3E0"/><path d="M629.333 874.667a32 32 0 1064 0 32 32 0 10-64 0z" fill="#A6642A"/></svg>