<svg class="icon" width="128" height="128" viewBox="0 0 1024 1024" xmlns="http://www.w3.org/2000/svg"><path d="M106.667 725.333h128v64h-128zm682.666 0h128v64h-128z" fill="#546E7A"/><path d="M938.667 746.667H85.333C38.4 746.667 0 708.267 0 661.333V362.667c0-46.934 38.4-85.334 85.333-85.334h853.334c46.933 0 85.333 38.4 85.333 85.334v298.666c0 46.934-38.4 85.334-85.333 85.334z" fill="#78909C"/><path d="M106.667 405.333h42.666V448h-42.666zm0 85.334h42.666v42.666h-42.666zm0 85.333h42.666v42.667h-42.666zM192 405.333h42.667V448H192zm0 85.334h42.667v42.666H192zM192 576h42.667v42.667H192zm85.333-170.667H320V448h-42.667zm0 85.334H320v42.666h-42.667zm0 85.333H320v42.667h-42.667zm85.334-170.667h42.666V448h-42.666zm0 85.334h42.666v42.666h-42.666zm0 85.333h42.666v42.667h-42.666zM448 405.333h42.667V448H448zm0 85.334h42.667v42.666H448zM448 576h42.667v42.667H448zm170.667-64A170.667 170.667 0 10960 512a170.667 170.667 0 10-341.333 0z" fill="#37474F"/><path d="M661.333 512a128 128 0 10256 0 128 128 0 10-256 0z" fill="#A0F"/><path d="M868.267 462.933c-21.334-23.466-49.067-36.266-78.934-36.266s-59.733 12.8-78.933 36.266c-8.533 8.534-6.4 21.334 2.133 29.867 8.534 8.533 21.334 6.4 29.867-2.133 25.6-27.734 70.4-27.734 96 0 4.267 4.266 10.667 6.4 14.933 6.4 4.267 0 10.667-2.134 14.934-6.4 8.533-6.4 8.533-19.2 0-27.734z" fill="#EA80FC"/></svg>