<svg class="icon" width="128" height="128" viewBox="0 0 1024 1024" xmlns="http://www.w3.org/2000/svg"><path d="M810.667 917.333H213.333C166.4 917.333 128 878.933 128 832V234.667c0-46.934 38.4-85.334 85.333-85.334h597.334c46.933 0 85.333 38.4 85.333 85.334V832c0 46.933-38.4 85.333-85.333 85.333z" fill="#880E4F"/><path d="M339.2 597.333L384 403.2h59.733l-76.8 268.8h-55.466l-76.8-268.8H294.4l44.8 194.133zM546.133 672H492.8V403.2h53.333V672zM665.6 578.133V672h-53.333V403.2H704c78.933 0 87.467 72.533 87.467 89.6 0 25.6-10.667 85.333-87.467 85.333h-38.4zm0-46.933h36.267c27.733 0 32-23.467 32-40.533 0-34.134-19.2-44.8-32-44.8H665.6V531.2z" fill="#FFD54F"/></svg>