<svg class="icon" width="128" height="128" viewBox="0 0 1024 1024" xmlns="http://www.w3.org/2000/svg"><path fill="#333" d="M1024 512c0-130.133-104.533-234.667-234.667-234.667S554.667 381.867 554.667 512c0 57.6 19.2 108.8 53.333 149.333H416C450.133 620.8 469.333 569.6 469.333 512c0-130.133-104.533-234.667-234.666-234.667S0 381.867 0 512s104.533 234.667 234.667 234.667h576v-2.134C930.133 733.867 1024 633.6 1024 512zm-938.667 0c0-83.2 66.134-149.333 149.334-149.333S384 428.8 384 512s-66.133 149.333-149.333 149.333S85.333 595.2 85.333 512zm704 149.333C706.133 661.333 640 595.2 640 512s66.133-149.333 149.333-149.333S938.667 428.8 938.667 512s-66.134 149.333-149.334 149.333z"/></svg>